<svg width="251" height="60" viewBox="0 0 251 60" fill="none" xmlns="http://www.w3.org/2000/svg">
<path d="M95.3728 16.3904C96.6105 15.197 97.432 13.5708 97.7262 11.6614C98.2479 8.26458 96.9602 4.64016 94.5125 2.63646C92.3534 0.888078 89.5393 0.0388641 85.926 0.0388641H67.6707V35.6115H86.5421C90.6827 35.6115 93.9519 34.6735 96.2553 32.8307C99.3247 30.3552 100.629 25.7373 99.419 21.6022C98.7197 19.2155 97.2821 17.395 95.3728 16.3848V16.3904ZM92.1813 28.3016C90.6771 29.617 88.2405 29.7724 86.5365 29.7724H74.1258V19.9316H86.5365C88.3127 19.9316 90.5439 20.0925 92.0203 21.3303C92.8862 22.0463 93.4079 23.3562 93.4301 24.8381C93.4468 26.2868 92.9695 27.6133 92.1813 28.3071V28.3016ZM90.3941 12.9436C89.395 13.7872 87.6744 14.087 86.3922 14.087H74.1202V5.89455H85.9648C87.9907 5.89455 89.4727 6.30528 90.3719 7.11564C91.0435 7.72064 91.4542 8.86403 91.4486 10.0962C91.4431 11.2951 91.049 12.3608 90.3941 12.9436Z" fill="#1F17F6"/>
<path d="M109.254 0.0444183H102.749V35.617H130.829V29.7724H109.254V0.0444183Z" fill="#1F17F6"/>
<path d="M140.648 0.0444183H134.187V35.617H140.648V0.0444183Z" fill="#1F17F6"/>
<path d="M145.937 35.617H152.392V20.7808H173.983V14.9306H152.392V5.89456H174.017V0.0444183H145.937V35.617Z" fill="#1F17F6"/>
<path d="M176.903 35.617H205.027V29.7225H183.408V20.7808H205.027V14.9306H183.408V5.89456H205.027V0.0444183H176.903V35.617Z" fill="#1F17F6"/>
<path d="M235.549 3.24144C233.079 1.09343 229.654 0 225.369 0H207.913V35.617H214.374V24.4052H225.275C229.554 24.4052 232.945 23.3673 235.343 21.3191C237.774 19.271 239.24 15.8797 239.273 12.2553C239.306 8.6198 237.946 5.33395 235.549 3.23589V3.24144ZM231.142 16.8677C229.576 18.2664 227.112 18.5606 225.319 18.5606H214.368V5.89454H225.364C228.072 5.89454 230.054 6.47179 231.253 7.60962C232.229 8.53654 232.823 10.296 232.807 12.2054C232.79 14.1536 232.146 15.9408 231.136 16.8622L231.142 16.8677Z" fill="#1F17F6"/>
<path d="M245.14 0C238.54 0 238.54 9.74653 245.14 9.74653C251.739 9.74653 251.739 0 245.14 0ZM245.14 8.87512C239.917 8.87512 239.917 0.876966 245.14 0.876966C250.363 0.876966 250.363 8.87512 245.14 8.87512Z" fill="#1F17F6"/>
<path d="M247.21 2.55876C246.738 2.18133 246.094 2.12582 245.717 2.12582H243.103V7.43202H244.152V5.45052H244.984L246.616 7.43202H247.776V7.30991L246.133 5.42277C246.511 5.38392 246.871 5.26181 247.182 5.03424C247.965 4.42925 247.993 3.1915 247.21 2.55876ZM246.538 4.34599C246.322 4.54581 245.972 4.57356 245.717 4.57356H244.157V2.99724H245.706C245.8 2.99724 246.3 2.98614 246.566 3.24146C246.821 3.49678 246.794 4.11842 246.538 4.34599Z" fill="#1F17F6"/>
<path fill-rule="evenodd" clip-rule="evenodd" d="M13.7928 14.7697H18.8548H28.2627V20.9306H18.8548H13.7928H9.08047V14.7697H13.7928Z" fill="#97D700"/>
<path fill-rule="evenodd" clip-rule="evenodd" d="M6.19981 19.6318V6.21093H6.21091H12.8437H28.5069V0.0444183H6.21091H0.0333023V0.166527V6.21093V27.8798V29.4561V35.556V35.617H6.21091H28.5069V29.4561H12.8437H6.21091H6.19981V27.8798V19.6318Z" fill="#1F17F6"/>
<path fill-rule="evenodd" clip-rule="evenodd" d="M52.4681 20.1647L48.5661 25.049L56.9306 35.556H64.74L52.4681 20.1647Z" fill="#1F17F6"/>
<path fill-rule="evenodd" clip-rule="evenodd" d="M64.8178 0.0444183H56.9473L56.8807 0.138775L48.5384 10.6069L52.4736 15.5245L52.5458 15.4302L64.8178 0.0444183Z" fill="#1F17F6"/>
<path fill-rule="evenodd" clip-rule="evenodd" d="M46.6845 12.8936L36.4052 0.0444183H28.5069L42.7327 17.8335L28.5069 35.617H36.4052L50.6364 17.8335L46.6845 12.8936Z" fill="#97D700"/>
<path d="M6.46623 56.7086H0.177606V55.6818L3.38575 51.4357C3.86863 50.7808 4.20721 50.2424 4.39592 49.8261C4.58464 49.4043 4.67899 48.9602 4.67899 48.494C4.67899 47.8945 4.54023 47.4117 4.26271 47.0398C3.98519 46.6679 3.61886 46.4847 3.16373 46.4847C2.59204 46.4847 2.148 46.679 1.83718 47.0731C1.52636 47.4672 1.37095 48.0333 1.37095 48.7771H-7.62939e-06C-7.62939e-06 47.7447 0.283064 46.9066 0.849206 46.2683C1.41535 45.63 2.18686 45.308 3.15818 45.308C4.0518 45.308 4.7567 45.58 5.27289 46.1295C5.78908 46.679 6.0444 47.4061 6.0444 48.3219C6.0444 49.432 5.46715 50.753 4.30711 52.2683L1.80388 55.543H6.46068V56.7086H6.46623Z" fill="#002470"/>
<path d="M8.19241 55.9649C8.19241 55.7151 8.26456 55.5097 8.41442 55.3488C8.56428 55.1878 8.78075 55.099 9.07492 55.099C9.36909 55.099 9.59111 55.1822 9.74097 55.3488C9.89083 55.5153 9.96854 55.7206 9.96854 55.9649C9.96854 56.2091 9.89083 56.3978 9.74097 56.5587C9.59111 56.7197 9.36909 56.7974 9.07492 56.7974C8.78075 56.7974 8.55873 56.7197 8.41442 56.5587C8.27011 56.3978 8.19241 56.2035 8.19241 55.9649Z" fill="#002470"/>
<path d="M17.3672 51.913C17.3672 53.5726 17.123 54.8104 16.6401 55.6318C16.1572 56.4533 15.3968 56.864 14.3645 56.864C13.3321 56.864 12.6105 56.4699 12.1165 55.6818C11.6226 54.8936 11.3672 53.7114 11.345 52.1295V50.198C11.345 48.555 11.5893 47.3284 12.0721 46.5236C12.5606 45.7132 13.3154 45.3136 14.3478 45.3136C15.3802 45.3136 16.1128 45.6966 16.6013 46.4625C17.0897 47.2285 17.345 48.3885 17.3672 49.9482V51.9186V51.913ZM16.0018 49.9593C16.0018 48.7715 15.8686 47.8945 15.6078 47.3284C15.3469 46.7623 14.9251 46.4847 14.3478 46.4847C13.7706 46.4847 13.3765 46.7623 13.1101 47.3173C12.8492 47.8723 12.7104 48.7049 12.6993 49.8261V52.1406C12.6993 53.3229 12.8381 54.2165 13.1101 54.8104C13.382 55.4043 13.7983 55.704 14.3589 55.704C14.9195 55.704 15.3247 55.4265 15.5856 54.8603C15.8464 54.2997 15.9852 53.4394 15.9963 52.2905V49.9648L16.0018 49.9593Z" fill="#002470"/>
<path d="M19.0102 52.1517C19.0102 50.8473 19.2488 49.8649 19.7206 49.1989C20.1924 48.5328 20.8862 48.1998 21.7965 48.1998C22.6457 48.1998 23.2895 48.5606 23.7336 49.2877L23.8057 48.3552H25.0435V56.7918C25.0435 57.8242 24.777 58.6179 24.2498 59.173C23.7169 59.728 22.9787 60.0055 22.0351 60.0055C21.6244 60.0055 21.1582 59.9056 20.6475 59.7002C20.1369 59.4949 19.7484 59.2451 19.493 58.9454L20.0481 58.0018C20.6142 58.5569 21.2414 58.8344 21.9241 58.8344C23.062 58.8344 23.6448 58.2127 23.6781 56.975V55.8871C23.234 56.5421 22.6068 56.8695 21.7909 56.8695C20.9251 56.8695 20.2535 56.5421 19.765 55.8927C19.2821 55.2433 19.0268 54.3052 19.0102 53.0842V52.1572V52.1517ZM20.3811 52.9287C20.3811 53.8668 20.5199 54.555 20.7918 54.9935C21.0638 55.432 21.519 55.654 22.1461 55.654C22.8233 55.654 23.3339 55.3043 23.6725 54.6105V50.4366C23.3173 49.7539 22.8122 49.4098 22.1572 49.4098C21.5023 49.4098 21.0749 49.6318 20.7974 50.0703C20.5199 50.5088 20.3756 51.1859 20.3756 52.0962V52.9287H20.3811Z" fill="#002470"/>
<path d="M32.0203 55.6984C32.4755 55.6984 32.8363 55.5596 33.1082 55.2766C33.3802 54.9935 33.5301 54.5939 33.5578 54.0777H34.8455C34.8122 54.8825 34.5291 55.5485 33.9907 56.0758C33.4524 56.6031 32.7919 56.8695 32.0148 56.8695C30.9824 56.8695 30.1887 56.5421 29.6448 55.8927C29.1008 55.2433 28.8289 54.2719 28.8289 52.9842V52.0629C28.8289 50.8029 29.1008 49.8427 29.6392 49.1878C30.1776 48.5328 30.9658 48.2053 32.0037 48.2053C32.8585 48.2053 33.5356 48.4773 34.0407 49.0157C34.5402 49.5541 34.8067 50.2923 34.84 51.2303H33.5523C33.519 50.6142 33.3746 50.148 33.1082 49.8427C32.8418 49.5319 32.4755 49.382 32.0092 49.382C31.4042 49.382 30.9491 49.5818 30.6549 49.9815C30.3608 50.3811 30.2109 51.036 30.1998 51.9463V53.012C30.1998 53.9944 30.3441 54.6882 30.6383 55.099C30.9269 55.5041 31.3876 55.7095 32.0148 55.7095L32.0203 55.6984Z" fill="#002470"/>
<path d="M39.4135 56.864C38.3756 56.864 37.5763 56.5532 37.0213 55.9315C36.4662 55.3099 36.1832 54.3996 36.1721 53.2007V52.1905C36.1721 50.9417 36.444 49.9648 36.988 49.2599C37.5319 48.555 38.2868 48.1998 39.2636 48.1998C40.2405 48.1998 40.9732 48.5106 41.4561 49.1323C41.9389 49.7539 42.1887 50.7252 42.1998 52.0462V52.9398H37.5319V53.1341C37.5319 54.0277 37.6984 54.6827 38.037 55.0879C38.3756 55.493 38.8585 55.6984 39.4912 55.6984C39.8908 55.6984 40.2461 55.6207 40.5513 55.4708C40.8566 55.321 41.1452 55.0768 41.4117 54.7493L42.1221 55.6151C41.5282 56.4477 40.6235 56.864 39.4135 56.864ZM39.2581 49.3709C38.6919 49.3709 38.2701 49.5652 37.9981 49.9537C37.7262 50.3422 37.5708 50.9472 37.5375 51.7632H40.8289V51.58C40.79 50.7863 40.6512 50.2201 40.4015 49.8816C40.1517 49.543 39.7743 49.3709 39.2636 49.3709H39.2581Z" fill="#002470"/>
<path d="M44.4366 56.7086V49.4542H43.3487V48.3497H44.4366V47.3839C44.4533 46.5347 44.6697 45.8742 45.0805 45.3969C45.4968 44.9195 46.0795 44.6808 46.84 44.6808C47.1119 44.6808 47.3894 44.7253 47.667 44.8085L47.6004 45.963C47.4061 45.9186 47.1952 45.8964 46.9732 45.8964C46.1961 45.8964 45.8076 46.4514 45.8076 47.5615V48.3497H47.234V49.4542H45.8076V56.7086H44.4422H44.4366Z" fill="#002470"/>
<path d="M51.6411 56.864C50.6031 56.864 49.8039 56.5532 49.2488 55.9315C48.6938 55.3099 48.4107 54.3996 48.3996 53.2007V52.1905C48.3996 50.9417 48.6716 49.9648 49.2155 49.2599C49.7595 48.555 50.5143 48.1998 51.4912 48.1998C52.4681 48.1998 53.2007 48.5106 53.6836 49.1323C54.1665 49.7539 54.4163 50.7252 54.4274 52.0462V52.9398H49.7595V53.1341C49.7595 54.0277 49.926 54.6827 50.2646 55.0879C50.6031 55.493 51.086 55.6984 51.7188 55.6984C52.1184 55.6984 52.4736 55.6207 52.7789 55.4708C53.0842 55.321 53.3728 55.0768 53.6392 54.7493L54.3497 55.6151C53.7558 56.4477 52.851 56.864 51.6411 56.864ZM51.4856 49.3709C50.9195 49.3709 50.4977 49.5652 50.2257 49.9537C49.9537 50.3422 49.7983 50.9472 49.765 51.7632H53.0564V51.58C53.0176 50.7863 52.8788 50.2201 52.629 49.8816C52.3793 49.543 52.0018 49.3709 51.4912 49.3709H51.4856Z" fill="#002470"/>
<path d="M62.0981 52.9343C62.0981 54.2553 61.8594 55.2433 61.382 55.8927C60.9047 56.5421 60.2331 56.864 59.3617 56.864C58.4903 56.864 57.8742 56.5476 57.4246 55.9149V59.9223H56.0648V48.3497H57.3025L57.3746 49.2766C57.8353 48.555 58.4903 48.1943 59.345 48.1943C60.2609 48.1943 60.9491 48.5162 61.3987 49.1545C61.8538 49.7928 62.087 50.7475 62.1036 52.0185V52.9288L62.0981 52.9343ZM60.7382 52.1517C60.7382 51.2137 60.5939 50.5254 60.3053 50.0759C60.0166 49.6318 59.5504 49.4098 58.9177 49.4098C58.2849 49.4098 57.7687 49.7373 57.4246 50.3922V54.7382C57.7576 55.3765 58.2627 55.6984 58.9288 55.6984C59.5449 55.6984 60 55.4764 60.2942 55.0324C60.5828 54.5883 60.7326 53.9056 60.7382 52.9898V52.1573V52.1517Z" fill="#002470"/>
<path d="M65.445 46.1351C65.445 46.3682 65.3783 46.5569 65.2507 46.7123C65.123 46.8677 64.9288 46.9454 64.6623 46.9454C64.3959 46.9454 64.2128 46.8677 64.0851 46.7123C63.9574 46.5569 63.8908 46.3626 63.8908 46.1351C63.8908 45.9075 63.9574 45.7077 64.0851 45.5467C64.2128 45.3858 64.407 45.308 64.6623 45.308C64.9177 45.308 65.1119 45.3913 65.2451 45.5523C65.3784 45.7132 65.4394 45.9075 65.4394 46.1351H65.445ZM65.3339 56.7086H63.9685V48.3497H65.3339V56.7086Z" fill="#002470"/>
<path d="M68.7752 48.3552L68.8085 49.1267C69.3191 48.5106 69.9907 48.1998 70.8233 48.1998C71.7558 48.1998 72.4052 48.605 72.777 49.4153C73.3043 48.605 74.0314 48.1998 74.9695 48.1998C76.5069 48.1998 77.2951 49.16 77.3339 51.0805V56.7086H75.9741V51.2081C75.9741 50.6031 75.8631 50.148 75.6522 49.8538C75.4412 49.5596 75.0694 49.4098 74.5532 49.4098C74.1424 49.4098 73.8039 49.5707 73.5485 49.8871C73.2932 50.2035 73.1434 50.6142 73.099 51.1082V56.7086H71.7225V51.1471C71.7058 49.987 71.234 49.4098 70.3071 49.4098C69.6188 49.4098 69.1304 49.7539 68.8473 50.4422V56.7086H67.4875V48.3496H68.7696L68.7752 48.3552Z" fill="#002470"/>
<path d="M82.3737 56.864C81.3358 56.864 80.5365 56.5532 79.9815 55.9315C79.4265 55.3099 79.1434 54.3996 79.1323 53.2007V52.1905C79.1323 50.9417 79.4043 49.9648 79.9482 49.2599C80.4921 48.555 81.247 48.1998 82.2239 48.1998C83.2007 48.1998 83.9334 48.5106 84.4163 49.1323C84.8992 49.7539 85.1489 50.7252 85.16 52.0462V52.9398H80.4921V53.1341C80.4921 54.0277 80.6586 54.6827 80.9972 55.0879C81.3358 55.493 81.8187 55.6984 82.4514 55.6984C82.8511 55.6984 83.2063 55.6207 83.5116 55.4708C83.8168 55.321 84.1055 55.0768 84.3719 54.7493L85.0823 55.6151C84.4884 56.4477 83.5837 56.864 82.3737 56.864ZM82.2183 49.3709C81.6522 49.3709 81.2303 49.5652 80.9584 49.9537C80.6864 50.3422 80.531 50.9472 80.4977 51.7632H83.7891V51.58C83.7502 50.7863 83.6115 50.2201 83.3617 49.8816C83.1119 49.543 82.7345 49.3709 82.2239 49.3709H82.2183Z" fill="#002470"/>
<path d="M87.963 57.6744H86.8029L90.7493 45.4635H91.8982L87.9574 57.6744H87.963Z" fill="#97D700"/>
<path d="M99.7354 51.913C99.7354 53.5726 99.4912 54.8104 99.0083 55.6318C98.5254 56.4533 97.765 56.864 96.7326 56.864C95.7003 56.864 94.9787 56.4699 94.4847 55.6818C93.9907 54.8936 93.7354 53.7114 93.7132 52.1295V50.198C93.7132 48.555 93.9574 47.3284 94.4403 46.5236C94.9288 45.7132 95.6836 45.3136 96.716 45.3136C97.7484 45.3136 98.481 45.6966 98.9695 46.4625C99.4579 47.2285 99.7132 48.3885 99.7354 49.9482V51.9186V51.913ZM98.37 49.9593C98.37 48.7715 98.2368 47.8945 97.9759 47.3284C97.7151 46.7623 97.2932 46.4847 96.716 46.4847C96.1387 46.4847 95.7447 46.7623 95.4782 47.3173C95.2174 47.8723 95.0786 48.7049 95.0675 49.8261V52.1406C95.0675 53.3229 95.2063 54.2165 95.4782 54.8104C95.7502 55.4043 96.1665 55.704 96.7271 55.704C97.2877 55.704 97.6929 55.4265 97.9537 54.8603C98.2146 54.2997 98.3534 53.4394 98.3645 52.2905V49.9648L98.37 49.9593Z" fill="#002470"/>
<path d="M101.267 55.9649C101.267 55.7151 101.339 55.5097 101.489 55.3488C101.639 55.1878 101.856 55.099 102.15 55.099C102.444 55.099 102.666 55.1822 102.816 55.3488C102.966 55.5153 103.043 55.7206 103.043 55.9649C103.043 56.2091 102.966 56.3978 102.816 56.5587C102.666 56.7197 102.444 56.7974 102.15 56.7974C101.856 56.7974 101.634 56.7197 101.489 56.5587C101.345 56.3978 101.267 56.2035 101.267 55.9649Z" fill="#002470"/>
<path d="M104.992 51.0749L105.48 45.469H110.37V46.79H106.629L106.368 49.8538C106.829 49.5319 107.328 49.3654 107.867 49.3654C108.744 49.3654 109.432 49.704 109.932 50.3867C110.431 51.0694 110.681 51.9796 110.681 53.1286C110.681 54.2775 110.409 55.2044 109.865 55.8705C109.321 56.5365 108.577 56.864 107.628 56.864C106.784 56.864 106.096 56.5865 105.563 56.037C105.031 55.4875 104.731 54.7215 104.653 53.7502H105.935C106.013 54.3941 106.196 54.877 106.49 55.2044C106.779 55.5319 107.162 55.6929 107.628 55.6929C108.161 55.6929 108.572 55.4597 108.871 54.9991C109.171 54.5384 109.321 53.9167 109.321 53.1341C109.321 52.3959 109.16 51.7965 108.838 51.3358C108.516 50.8751 108.083 50.642 107.539 50.642C107.084 50.642 106.723 50.7585 106.451 50.9972L106.091 51.358L105.003 51.0638L104.992 51.0749Z" fill="#002470"/>
<path d="M112.085 52.1517C112.085 50.8473 112.324 49.8649 112.796 49.1989C113.267 48.5328 113.961 48.1998 114.871 48.1998C115.721 48.1998 116.364 48.5606 116.808 49.2877L116.881 48.3552H118.118V56.7918C118.118 57.8242 117.852 58.6179 117.325 59.173C116.792 59.728 116.054 60.0055 115.11 60.0055C114.699 60.0055 114.233 59.9056 113.722 59.7002C113.212 59.4949 112.823 59.2451 112.568 58.9454L113.123 58.0018C113.689 58.5569 114.316 58.8344 114.999 58.8344C116.137 58.8344 116.72 58.2127 116.753 56.975V55.8871C116.309 56.5421 115.682 56.8695 114.866 56.8695C114 56.8695 113.328 56.5421 112.84 55.8927C112.357 55.2433 112.102 54.3052 112.085 53.0842V52.1572V52.1517ZM113.456 52.9287C113.456 53.8668 113.595 54.555 113.867 54.9935C114.139 55.432 114.594 55.654 115.221 55.654C115.898 55.654 116.409 55.3043 116.747 54.6105V50.4366C116.392 49.7539 115.887 49.4098 115.232 49.4098C114.577 49.4098 114.15 49.6318 113.872 50.0703C113.595 50.5088 113.45 51.1859 113.45 52.0962V52.9287H113.456Z" fill="#002470"/>
<path d="M125.184 56.864C124.146 56.864 123.347 56.5532 122.792 55.9315C122.237 55.3099 121.954 54.3996 121.943 53.2007V52.1905C121.943 50.9417 122.215 49.9648 122.759 49.2599C123.302 48.555 124.057 48.1998 125.034 48.1998C126.011 48.1998 126.744 48.5106 127.227 49.1323C127.71 49.7539 127.959 50.7252 127.97 52.0462V52.9398H123.302V53.1341C123.302 54.0277 123.469 54.6827 123.808 55.0879C124.146 55.493 124.629 55.6984 125.262 55.6984C125.661 55.6984 126.017 55.6207 126.322 55.4708C126.627 55.321 126.916 55.0768 127.182 54.7493L127.893 55.6151C127.299 56.4477 126.394 56.864 125.184 56.864ZM125.029 49.3709C124.463 49.3709 124.041 49.5652 123.769 49.9537C123.497 50.3422 123.341 50.9472 123.308 51.7632H126.599V51.58C126.561 50.7863 126.422 50.2201 126.172 49.8816C125.922 49.543 125.545 49.3709 125.034 49.3709H125.029Z" fill="#002470"/>
<path d="M130.89 48.3552L130.929 49.2599C131.462 48.555 132.139 48.1998 132.96 48.1998C134.437 48.1998 135.186 49.1878 135.208 51.1582V56.7141H133.848V51.2248C133.848 50.5698 133.737 50.1036 133.521 49.8316C133.304 49.5596 132.971 49.4209 132.538 49.4209C132.2 49.4209 131.895 49.5319 131.623 49.7595C131.351 49.987 131.134 50.2812 130.968 50.6475V56.7197H129.602V48.3607H130.89V48.3552Z" fill="#002470"/>
<path d="M138.544 48.3552L138.577 49.1267C139.088 48.5106 139.759 48.1998 140.592 48.1998C141.525 48.1998 142.174 48.605 142.546 49.4153C143.073 48.605 143.8 48.1998 144.738 48.1998C146.276 48.1998 147.064 49.16 147.103 51.0805V56.7086H145.743V51.2081C145.743 50.6031 145.632 50.148 145.421 49.8538C145.21 49.5596 144.838 49.4098 144.322 49.4098C143.911 49.4098 143.573 49.5707 143.317 49.8871C143.062 50.2035 142.912 50.6142 142.868 51.1082V56.7086H141.491V51.1471C141.475 49.987 141.003 49.4098 140.076 49.4098C139.388 49.4098 138.899 49.7539 138.616 50.4422V56.7086H137.256V48.3496H138.538L138.544 48.3552Z" fill="#002470"/>
<path d="M152.148 56.864C151.11 56.864 150.311 56.5532 149.756 55.9315C149.201 55.3099 148.918 54.3996 148.907 53.2007V52.1905C148.907 50.9417 149.179 49.9648 149.722 49.2599C150.266 48.555 151.021 48.1998 151.998 48.1998C152.975 48.1998 153.708 48.5106 154.191 49.1323C154.673 49.7539 154.923 50.7252 154.934 52.0462V52.9398H150.266V53.1341C150.266 54.0277 150.433 54.6827 150.772 55.0879C151.11 55.493 151.593 55.6984 152.226 55.6984C152.625 55.6984 152.981 55.6207 153.286 55.4708C153.591 55.321 153.88 55.0768 154.146 54.7493L154.857 55.6151C154.263 56.4477 153.358 56.864 152.148 56.864ZM151.993 49.3709C151.426 49.3709 151.005 49.5652 150.733 49.9537C150.461 50.3422 150.305 50.9472 150.272 51.7632H153.563V51.58C153.525 50.7863 153.386 50.2201 153.136 49.8816C152.886 49.543 152.509 49.3709 151.998 49.3709H151.993Z" fill="#002470"/>
<path d="M158.353 46.3293V48.3552H159.613V49.4597H158.353V54.6494C158.353 54.9768 158.409 55.2266 158.514 55.3987C158.625 55.5707 158.808 55.654 159.069 55.654C159.253 55.654 159.43 55.6207 159.619 55.5596L159.602 56.7141C159.291 56.814 158.975 56.8695 158.653 56.8695C158.115 56.8695 157.698 56.6753 157.415 56.2923C157.132 55.9038 156.988 55.3598 156.988 54.6549V49.4653H155.711V48.3608H156.988V46.3349H158.348L158.353 46.3293Z" fill="#002470"/>
<path d="M165.541 56.7086C165.458 56.531 165.402 56.2257 165.364 55.7983C164.881 56.5088 164.259 56.864 163.51 56.864C162.76 56.864 162.161 56.6531 161.739 56.2257C161.312 55.8039 161.101 55.2044 161.101 54.4274C161.101 53.5782 161.389 52.901 161.967 52.4015C162.544 51.9019 163.332 51.6466 164.337 51.6355H165.341V50.7474C165.341 50.2479 165.23 49.8927 165.008 49.6818C164.786 49.4709 164.448 49.3654 163.998 49.3654C163.587 49.3654 163.254 49.4875 162.993 49.7317C162.738 49.9759 162.605 50.2868 162.605 50.6642H161.24C161.24 50.2368 161.367 49.8316 161.617 49.4375C161.872 49.049 162.211 48.7437 162.638 48.5217C163.066 48.2997 163.543 48.1887 164.07 48.1887C164.925 48.1887 165.574 48.3996 166.018 48.827C166.462 49.2544 166.69 49.8705 166.701 50.6864V54.9047C166.701 55.5486 166.796 56.1092 166.962 56.5809V56.703H165.541V56.7086ZM163.715 55.6207C164.048 55.6207 164.37 55.5264 164.675 55.3432C164.981 55.16 165.203 54.9269 165.341 54.6494V52.6568H164.57C163.92 52.6679 163.41 52.8122 163.032 53.0953C162.655 53.3783 162.466 53.7669 162.466 54.272C162.466 54.7437 162.561 55.0879 162.749 55.3043C162.938 55.5208 163.26 55.6263 163.715 55.6263V55.6207Z" fill="#002470"/>
<path d="M170.081 55.543H174.111V56.7086H168.516V55.6596L172.346 49.5319H168.544V48.3497H173.95V49.3598L170.07 55.5375L170.081 55.543Z" fill="#002470"/>
<path d="M175.349 52.1461C175.349 50.9306 175.643 49.9704 176.231 49.2599C176.82 48.5495 177.602 48.1998 178.568 48.1998C179.534 48.1998 180.316 48.5439 180.905 49.2377C181.493 49.926 181.798 50.8695 181.809 52.0573V52.9398C181.809 54.1498 181.515 55.1101 180.927 55.815C180.339 56.5199 179.556 56.8751 178.579 56.8751C177.602 56.8751 176.836 56.531 176.248 55.8483C175.665 55.1656 175.36 54.2386 175.343 53.0675V52.1572L175.349 52.1461ZM176.714 52.9343C176.714 53.7946 176.881 54.4718 177.219 54.9602C177.558 55.4542 178.013 55.6984 178.585 55.6984C179.789 55.6984 180.411 54.827 180.444 53.0897V52.1461C180.444 51.2914 180.272 50.6142 179.933 50.1202C179.595 49.6207 179.14 49.3765 178.568 49.3765C177.996 49.3765 177.558 49.6262 177.219 50.1202C176.881 50.6142 176.714 51.2914 176.714 52.1406V52.9343Z" fill="#002470"/>
<path d="M189.63 52.9343C189.63 54.2387 189.397 55.2155 188.925 55.876C188.459 56.5365 187.776 56.864 186.888 56.864C186 56.864 185.339 56.481 184.895 55.7206L184.829 56.7086H183.586V44.8418H184.945V49.2655C185.395 48.5495 186.039 48.1942 186.877 48.1942C187.793 48.1942 188.481 48.5162 188.942 49.1656C189.402 49.815 189.63 50.7918 189.636 52.1017V52.9288L189.63 52.9343ZM188.27 52.1517C188.27 51.1637 188.131 50.4588 187.859 50.0425C187.582 49.6207 187.138 49.4153 186.516 49.4153C185.811 49.4153 185.284 49.7983 184.94 50.5587V54.5328C185.278 55.2821 185.811 55.6596 186.533 55.6596C187.149 55.6596 187.593 55.4431 187.859 55.0102C188.126 54.5772 188.265 53.9056 188.27 52.9954V52.1572V52.1517Z" fill="#002470"/>
<path d="M195.68 56.7086C195.597 56.531 195.541 56.2257 195.502 55.7983C195.019 56.5088 194.398 56.864 193.648 56.864C192.899 56.864 192.3 56.6531 191.878 56.2257C191.45 55.8039 191.24 55.2044 191.24 54.4274C191.24 53.5782 191.528 52.901 192.105 52.4015C192.683 51.9019 193.471 51.6466 194.475 51.6355H195.48V50.7474C195.48 50.2479 195.369 49.8927 195.147 49.6818C194.925 49.4709 194.586 49.3654 194.137 49.3654C193.726 49.3654 193.393 49.4875 193.132 49.7317C192.877 49.9759 192.744 50.2868 192.744 50.6642H191.378C191.378 50.2368 191.506 49.8316 191.756 49.4375C192.011 49.049 192.35 48.7437 192.777 48.5217C193.204 48.2997 193.682 48.1887 194.209 48.1887C195.064 48.1887 195.713 48.3996 196.157 48.827C196.601 49.2544 196.829 49.8705 196.84 50.6864V54.9047C196.84 55.5486 196.934 56.1092 197.101 56.5809V56.703H195.68V56.7086ZM193.854 55.6207C194.187 55.6207 194.509 55.5264 194.814 55.3432C195.119 55.16 195.341 54.9269 195.48 54.6494V52.6568H194.709C194.059 52.6679 193.549 52.8122 193.171 53.0953C192.794 53.3783 192.605 53.7669 192.605 54.272C192.605 54.7437 192.699 55.0879 192.888 55.3043C193.077 55.5208 193.399 55.6263 193.854 55.6263V55.6207Z" fill="#002470"/>
<path d="M201.858 55.6984C202.313 55.6984 202.673 55.5596 202.945 55.2766C203.217 54.9935 203.367 54.5939 203.395 54.0777H204.683C204.649 54.8825 204.366 55.5485 203.828 56.0758C203.29 56.6031 202.629 56.8695 201.852 56.8695C200.82 56.8695 200.026 56.5421 199.482 55.8927C198.938 55.2433 198.666 54.2719 198.666 52.9842V52.0629C198.666 50.8029 198.938 49.8427 199.476 49.1878C200.015 48.5328 200.803 48.2053 201.841 48.2053C202.696 48.2053 203.373 48.4773 203.878 49.0157C204.377 49.5541 204.644 50.2923 204.677 51.2303H203.389C203.356 50.6142 203.212 50.148 202.945 49.8427C202.679 49.5319 202.313 49.382 201.846 49.382C201.241 49.382 200.786 49.5818 200.492 49.9815C200.198 50.3811 200.048 51.036 200.037 51.9463V53.012C200.037 53.9944 200.181 54.6882 200.475 55.099C200.764 55.5041 201.225 55.7095 201.852 55.7095L201.858 55.6984Z" fill="#002470"/>
<path d="M208.052 46.3293V48.3552H209.312V49.4597H208.052V54.6494C208.052 54.9768 208.107 55.2266 208.213 55.3987C208.324 55.5707 208.507 55.654 208.768 55.654C208.951 55.654 209.129 55.6207 209.317 55.5596L209.301 56.7141C208.99 56.814 208.673 56.8695 208.352 56.8695C207.813 56.8695 207.397 56.6753 207.114 56.2923C206.831 55.9038 206.686 55.3598 206.686 54.6549V49.4653H205.41V48.3608H206.686V46.3349H208.046L208.052 46.3293Z" fill="#002470"/>
<path d="M215.234 56.7086C215.151 56.531 215.095 56.2257 215.056 55.7983C214.574 56.5088 213.952 56.864 213.203 56.864C212.453 56.864 211.854 56.6531 211.432 56.2257C211.005 55.8039 210.794 55.2044 210.794 54.4274C210.794 53.5782 211.082 52.901 211.66 52.4015C212.237 51.9019 213.025 51.6466 214.03 51.6355H215.034V50.7474C215.034 50.2479 214.923 49.8927 214.701 49.6818C214.479 49.4709 214.141 49.3654 213.691 49.3654C213.28 49.3654 212.947 49.4875 212.686 49.7317C212.431 49.9759 212.298 50.2868 212.298 50.6642H210.932C210.932 50.2368 211.06 49.8316 211.31 49.4375C211.565 49.049 211.904 48.7437 212.331 48.5217C212.759 48.2997 213.236 48.1887 213.763 48.1887C214.618 48.1887 215.267 48.3996 215.711 48.827C216.155 49.2544 216.383 49.8705 216.394 50.6864V54.9047C216.394 55.5486 216.488 56.1092 216.655 56.5809V56.703H215.234V56.7086ZM213.413 55.6207C213.747 55.6207 214.068 55.5264 214.374 55.3432C214.679 55.16 214.901 54.9269 215.04 54.6494V52.6568H214.268C213.619 52.6679 213.108 52.8122 212.731 53.0953C212.353 53.3783 212.165 53.7669 212.165 54.272C212.165 54.7437 212.259 55.0879 212.448 55.3043C212.636 55.5208 212.958 55.6263 213.413 55.6263V55.6207Z" fill="#002470"/>
<path d="M219.802 48.3552L219.835 49.1267C220.346 48.5106 221.018 48.1998 221.85 48.1998C222.783 48.1998 223.432 48.605 223.804 49.4153C224.331 48.605 225.058 48.1998 225.996 48.1998C227.534 48.1998 228.322 49.16 228.361 51.0805V56.7086H227.001V51.2081C227.001 50.6031 226.89 50.148 226.679 49.8538C226.468 49.5596 226.096 49.4098 225.58 49.4098C225.169 49.4098 224.831 49.5707 224.575 49.8871C224.32 50.2035 224.17 50.6142 224.126 51.1082V56.7086H222.749V51.1471C222.733 49.987 222.261 49.4098 221.334 49.4098C220.646 49.4098 220.157 49.7539 219.874 50.4422V56.7086H218.514V48.3496H219.796L219.802 48.3552Z" fill="#002470"/>
</svg>
