<svg width="270" height="60" viewBox="0 0 270 60" fill="none" xmlns="http://www.w3.org/2000/svg">
<g clip-path="url(#clip0_228_14462)">
<path d="M95.3728 16.3903C96.6105 15.197 97.432 13.5707 97.7262 11.6614C98.2479 8.26454 96.9602 4.64011 94.5125 2.63641C92.3534 0.888032 89.5393 0.0388184 85.926 0.0388184H67.6707V35.6114H86.5421C90.6827 35.6114 93.9519 34.6734 96.2553 32.8307C99.3247 30.3552 100.629 25.7372 99.419 21.6022C98.7197 19.2155 97.2821 17.395 95.3728 16.3848V16.3903ZM92.1813 28.3015C90.6771 29.617 88.2405 29.7724 86.5365 29.7724H74.1258V19.9315H86.5365C88.3127 19.9315 90.5439 20.0925 92.0203 21.3302C92.8862 22.0462 93.4079 23.3561 93.4301 24.8381C93.4468 26.2867 92.9695 27.6133 92.1813 28.3071V28.3015ZM90.3941 12.9435C89.395 13.7872 87.6744 14.0869 86.3922 14.0869H74.1202V5.89451H85.9648C87.9907 5.89451 89.4727 6.30524 90.3719 7.1156C91.0435 7.72059 91.4542 8.86398 91.4486 10.0962C91.4431 11.2951 91.049 12.3607 90.3941 12.9435Z" fill="#1F17F6"/>
<path d="M109.254 0.0444336H102.749V35.617H130.829V29.7725H109.254V0.0444336Z" fill="#1F17F6"/>
<path d="M140.647 0.0444336H134.187V35.6171H140.647V0.0444336Z" fill="#1F17F6"/>
<path d="M145.937 35.617H152.392V20.7808H173.983V14.9306H152.392V5.89457H174.017V0.0444336H145.937V35.617Z" fill="#1F17F6"/>
<path d="M176.903 35.617H205.027V29.7225H183.408V20.7808H205.027V14.9306H183.408V5.89457H205.027V0.0444336H176.903V35.617Z" fill="#1F17F6"/>
<path d="M235.549 3.24144C233.079 1.09343 229.654 0 225.369 0H207.913V35.617H214.374V24.4052H225.275C229.554 24.4052 232.945 23.3673 235.343 21.3192C237.774 19.271 239.24 15.8797 239.273 12.2553C239.306 8.6198 237.946 5.33395 235.549 3.23589V3.24144ZM231.142 16.8677C229.576 18.2664 227.112 18.5606 225.319 18.5606H214.368V5.89454H225.364C228.072 5.89454 230.054 6.47179 231.253 7.60962C232.229 8.53654 232.823 10.296 232.807 12.2054C232.79 14.1536 232.146 15.9408 231.136 16.8622L231.142 16.8677Z" fill="#1F17F6"/>
<path d="M245.14 0C238.54 0 238.54 9.74653 245.14 9.74653C251.739 9.74653 251.739 0 245.14 0ZM245.14 8.87512C239.917 8.87512 239.917 0.876966 245.14 0.876966C250.363 0.876966 250.363 8.87512 245.14 8.87512Z" fill="#1F17F6"/>
<path d="M247.21 2.55879C246.738 2.18136 246.094 2.12585 245.717 2.12585H243.103V7.43205H244.152V5.45055H244.984L246.616 7.43205H247.776V7.30994L246.133 5.4228C246.511 5.38395 246.872 5.26184 247.182 5.03427C247.965 4.42928 247.993 3.19153 247.21 2.55879ZM246.538 4.34602C246.322 4.54584 245.972 4.57359 245.717 4.57359H244.157V2.99727H245.706C245.8 2.99727 246.3 2.98617 246.566 3.24149C246.822 3.49681 246.794 4.11845 246.538 4.34602Z" fill="#1F17F6"/>
<path fill-rule="evenodd" clip-rule="evenodd" d="M13.7929 14.7697H18.8548H28.2628V20.9306H18.8548H13.7929H9.08057V14.7697H13.7929Z" fill="#97D700"/>
<path fill-rule="evenodd" clip-rule="evenodd" d="M6.19972 19.6319V6.21095H6.21082H12.8436H28.5068V0.0444336H6.21082H0.0332031V0.166543V6.21095V27.8798V29.4561V35.556V35.617H6.21082H28.5068V29.4561H12.8436H6.21082H6.19972V27.8798V19.6319Z" fill="#1F17F6"/>
<path fill-rule="evenodd" clip-rule="evenodd" d="M52.4681 20.1647L48.5662 25.049L56.9306 35.556H64.7401L52.4681 20.1647Z" fill="#1F17F6"/>
<path fill-rule="evenodd" clip-rule="evenodd" d="M64.8177 0.0444336H56.9472L56.8806 0.138791L48.5383 10.6069L52.4736 15.5245L52.5457 15.4302L64.8177 0.0444336Z" fill="#1F17F6"/>
<path fill-rule="evenodd" clip-rule="evenodd" d="M46.6847 12.8936L36.4053 0.0444336H28.5071L42.7328 17.8335L28.5071 35.617H36.4053L50.6366 17.8335L46.6847 12.8936Z" fill="#97D700"/>
<path d="M6.46623 56.7085H0.177613V55.6817L3.38575 51.4356C3.86864 50.7807 4.20722 50.2423 4.39593 49.826C4.58464 49.4042 4.679 48.9602 4.679 48.4939C4.679 47.8945 4.54024 47.4116 4.26272 47.0397C3.9852 46.6678 3.61887 46.4847 3.16374 46.4847C2.59204 46.4847 2.14801 46.6789 1.83719 47.073C1.52636 47.4671 1.37095 48.0332 1.37095 48.777H0C0 47.7446 0.283071 46.9065 0.849214 46.2682C1.41536 45.6299 2.18686 45.308 3.15819 45.308C4.0518 45.308 4.75671 45.58 5.2729 46.1294C5.78908 46.6789 6.0444 47.406 6.0444 48.3219C6.0444 49.4319 5.46716 50.7529 4.30712 52.2682L1.80389 55.543H6.46068V56.7085H6.46623Z" fill="#002470"/>
<path d="M8.19238 55.9649C8.19238 55.7151 8.26454 55.5097 8.4144 55.3488C8.56426 55.1878 8.78073 55.099 9.0749 55.099C9.36907 55.099 9.59109 55.1823 9.74095 55.3488C9.89081 55.5153 9.96852 55.7206 9.96852 55.9649C9.96852 56.2091 9.89081 56.3978 9.74095 56.5588C9.59109 56.7197 9.36907 56.7974 9.0749 56.7974C8.78073 56.7974 8.55871 56.7197 8.4144 56.5588C8.27009 56.3978 8.19238 56.2035 8.19238 55.9649Z" fill="#002470"/>
<path d="M17.3672 51.913C17.3672 53.5726 17.123 54.8104 16.6401 55.6318C16.1572 56.4533 15.3968 56.864 14.3644 56.864C13.332 56.864 12.6105 56.4699 12.1165 55.6818C11.6225 54.8936 11.3672 53.7114 11.345 52.1295V50.198C11.345 48.555 11.5892 47.3284 12.0721 46.5236C12.5605 45.7132 13.3154 45.3136 14.3477 45.3136C15.3801 45.3136 16.1128 45.6966 16.6012 46.4625C17.0897 47.2285 17.345 48.3885 17.3672 49.9482V51.9186V51.913ZM16.0018 49.9593C16.0018 48.7715 15.8686 47.8945 15.6077 47.3284C15.3468 46.7623 14.925 46.4847 14.3477 46.4847C13.7705 46.4847 13.3764 46.7623 13.11 47.3173C12.8491 47.8723 12.7104 48.7049 12.6993 49.8261V52.1406C12.6993 53.3229 12.838 54.2165 13.11 54.8104C13.382 55.4043 13.7983 55.704 14.3588 55.704C14.9194 55.704 15.3246 55.4265 15.5855 54.8603C15.8464 54.2997 15.9851 53.4394 15.9962 52.2905V49.9648L16.0018 49.9593Z" fill="#002470"/>
<path d="M19.0103 52.1517C19.0103 50.8474 19.2489 49.865 19.7207 49.1989C20.1925 48.5329 20.8863 48.1998 21.7966 48.1998C22.6458 48.1998 23.2896 48.5606 23.7337 49.2877L23.8058 48.3552H25.0436V56.7919C25.0436 57.8243 24.7771 58.618 24.2498 59.173C23.717 59.728 22.9788 60.0056 22.0352 60.0056C21.6245 60.0056 21.1583 59.9057 20.6476 59.7003C20.137 59.4949 19.7485 59.2452 19.4931 58.9454L20.0482 58.0019C20.6143 58.5569 21.2415 58.8344 21.9242 58.8344C23.0621 58.8344 23.6449 58.2128 23.6782 56.975V55.8872C23.2341 56.5421 22.6069 56.8696 21.791 56.8696C20.9251 56.8696 20.2535 56.5421 19.7651 55.8927C19.2822 55.2433 19.0269 54.3053 19.0103 53.0842V52.1573V52.1517ZM20.3812 52.9288C20.3812 53.8668 20.52 54.5551 20.7919 54.9935C21.0639 55.432 21.519 55.654 22.1462 55.654C22.8234 55.654 23.334 55.3044 23.6726 54.6106V50.4367C23.3174 49.7539 22.8123 49.4098 22.1573 49.4098C21.5024 49.4098 21.075 49.6318 20.7975 50.0703C20.52 50.5088 20.3757 51.186 20.3757 52.0962V52.9288H20.3812Z" fill="#002470"/>
<path d="M32.0203 55.6984C32.4755 55.6984 32.8363 55.5596 33.1082 55.2766C33.3802 54.9935 33.5301 54.5939 33.5578 54.0777H34.8455C34.8122 54.8825 34.5291 55.5485 33.9907 56.0758C33.4524 56.6031 32.7919 56.8695 32.0148 56.8695C30.9824 56.8695 30.1887 56.542 29.6448 55.8926C29.1008 55.2432 28.8289 54.2719 28.8289 52.9842V52.0629C28.8289 50.8029 29.1008 49.8427 29.6392 49.1877C30.1776 48.5328 30.9658 48.2053 32.0037 48.2053C32.8585 48.2053 33.5356 48.4773 34.0407 49.0157C34.5402 49.5541 34.8067 50.2923 34.84 51.2303H33.5523C33.519 50.6142 33.3747 50.148 33.1082 49.8427C32.8418 49.5319 32.4755 49.382 32.0092 49.382C31.4043 49.382 30.9491 49.5818 30.6549 49.9815C30.3608 50.3811 30.2109 51.036 30.1998 51.9463V53.012C30.1998 53.9944 30.3441 54.6882 30.6383 55.0989C30.9269 55.5041 31.3876 55.7095 32.0148 55.7095L32.0203 55.6984Z" fill="#002470"/>
<path d="M39.4136 56.864C38.3756 56.864 37.5764 56.5532 37.0213 55.9316C36.4663 55.3099 36.1832 54.3996 36.1721 53.2008V52.1906C36.1721 50.9417 36.4441 49.9649 36.988 49.26C37.532 48.5551 38.2868 48.1998 39.2637 48.1998C40.2406 48.1998 40.9732 48.5107 41.4561 49.1323C41.939 49.7539 42.1888 50.7253 42.1999 52.0463V52.9399H37.532V53.1342C37.532 54.0278 37.6985 54.6827 38.0371 55.0879C38.3756 55.4931 38.8585 55.6984 39.4913 55.6984C39.8909 55.6984 40.2461 55.6207 40.5514 55.4709C40.8567 55.321 41.1453 55.0768 41.4117 54.7493L42.1222 55.6152C41.5283 56.4477 40.6236 56.864 39.4136 56.864ZM39.2582 49.371C38.692 49.371 38.2702 49.5652 37.9982 49.9538C37.7262 50.3423 37.5708 50.9473 37.5375 51.7632H40.8289V51.58C40.7901 50.7863 40.6513 50.2202 40.4015 49.8816C40.1518 49.543 39.7743 49.371 39.2637 49.371H39.2582Z" fill="#002470"/>
<path d="M44.4365 56.7087V49.4543H43.3486V48.3497H44.4365V47.384C44.4532 46.5347 44.6696 45.8742 45.0804 45.3969C45.4966 44.9196 46.0794 44.6809 46.8398 44.6809C47.1118 44.6809 47.3893 44.7253 47.6669 44.8086L47.6003 45.9631C47.406 45.9186 47.1951 45.8965 46.9731 45.8965C46.196 45.8965 45.8075 46.4515 45.8075 47.5616V48.3497H47.2339V49.4543H45.8075V56.7087H44.4421H44.4365Z" fill="#002470"/>
<path d="M51.6411 56.864C50.6032 56.864 49.8039 56.5532 49.2489 55.9316C48.6938 55.3099 48.4108 54.3996 48.3997 53.2008V52.1906C48.3997 50.9417 48.6716 49.9649 49.2156 49.26C49.7595 48.5551 50.5144 48.1998 51.4912 48.1998C52.4681 48.1998 53.2008 48.5107 53.6837 49.1323C54.1665 49.7539 54.4163 50.7253 54.4274 52.0463V52.9399H49.7595V53.1342C49.7595 54.0278 49.926 54.6827 50.2646 55.0879C50.6032 55.4931 51.0861 55.6984 51.7188 55.6984C52.1184 55.6984 52.4737 55.6207 52.7789 55.4709C53.0842 55.321 53.3728 55.0768 53.6393 54.7493L54.3497 55.6152C53.7558 56.4477 52.8511 56.864 51.6411 56.864ZM51.4857 49.371C50.9196 49.371 50.4977 49.5652 50.2257 49.9538C49.9538 50.3423 49.7984 50.9473 49.7651 51.7632H53.0565V51.58C53.0176 50.7863 52.8788 50.2202 52.6291 49.8816C52.3793 49.543 52.0019 49.371 51.4912 49.371H51.4857Z" fill="#002470"/>
<path d="M62.098 52.9344C62.098 54.2554 61.8593 55.2434 61.382 55.8928C60.9047 56.5422 60.2331 56.8641 59.3616 56.8641C58.4902 56.8641 57.8741 56.5477 57.4245 55.915V59.9224H56.0647V48.3497H57.3024L57.3746 49.2767C57.8353 48.5551 58.4902 48.1943 59.345 48.1943C60.2608 48.1943 60.9491 48.5163 61.3986 49.1546C61.8538 49.7929 62.0869 50.7475 62.1035 52.0186V52.9288L62.098 52.9344ZM60.7381 52.1518C60.7381 51.2138 60.5938 50.5255 60.3052 50.0759C60.0166 49.6319 59.5504 49.4099 58.9176 49.4099C58.2849 49.4099 57.7687 49.7374 57.4245 50.3923V54.7383C57.7576 55.3766 58.2627 55.6985 58.9287 55.6985C59.5448 55.6985 59.9999 55.4765 60.2941 55.0324C60.5827 54.5884 60.7326 53.9057 60.7381 52.9899V52.1573V52.1518Z" fill="#002470"/>
<path d="M65.445 46.135C65.445 46.3681 65.3784 46.5568 65.2507 46.7122C65.1231 46.8677 64.9288 46.9454 64.6624 46.9454C64.396 46.9454 64.2128 46.8677 64.0851 46.7122C63.9575 46.5568 63.8909 46.3626 63.8909 46.135C63.8909 45.9074 63.9575 45.7076 64.0851 45.5467C64.2128 45.3857 64.4071 45.308 64.6624 45.308C64.9177 45.308 65.112 45.3912 65.2452 45.5522C65.3784 45.7132 65.4394 45.9074 65.4394 46.135H65.445ZM65.334 56.7085H63.9686V48.3496H65.334V56.7085Z" fill="#002470"/>
<path d="M68.7752 48.3552L68.8086 49.1268C69.3192 48.5107 69.9908 48.1998 70.8234 48.1998C71.7558 48.1998 72.4052 48.605 72.7771 49.4154C73.3044 48.605 74.0315 48.1998 74.9695 48.1998C76.507 48.1998 77.2951 49.1601 77.334 51.0805V56.7086H75.9741V51.2082C75.9741 50.6032 75.8631 50.148 75.6522 49.8539C75.4413 49.5597 75.0694 49.4098 74.5532 49.4098C74.1425 49.4098 73.8039 49.5708 73.5486 49.8872C73.2933 50.2035 73.1434 50.6143 73.099 51.1083V56.7086H71.7225V51.1471C71.7059 49.9871 71.2341 49.4098 70.3072 49.4098C69.6189 49.4098 69.1305 49.7539 68.8474 50.4422V56.7086H67.4875V48.3497H68.7697L68.7752 48.3552Z" fill="#002470"/>
<path d="M82.3738 56.864C81.3358 56.864 80.5366 56.5532 79.9815 55.9316C79.4265 55.3099 79.1434 54.3996 79.1323 53.2008V52.1906C79.1323 50.9417 79.4043 49.9649 79.9482 49.26C80.4922 48.5551 81.247 48.1998 82.2239 48.1998C83.2008 48.1998 83.9334 48.5107 84.4163 49.1323C84.8992 49.7539 85.149 50.7253 85.1601 52.0463V52.9399H80.4922V53.1342C80.4922 54.0278 80.6587 54.6827 80.9973 55.0879C81.3358 55.4931 81.8187 55.6984 82.4515 55.6984C82.8511 55.6984 83.2063 55.6207 83.5116 55.4709C83.8169 55.321 84.1055 55.0768 84.3719 54.7493L85.0824 55.6152C84.4885 56.4477 83.5838 56.864 82.3738 56.864ZM82.2184 49.371C81.6522 49.371 81.2304 49.5652 80.9584 49.9538C80.6864 50.3423 80.531 50.9473 80.4977 51.7632H83.7891V51.58C83.7503 50.7863 83.6115 50.2202 83.3617 49.8816C83.112 49.543 82.7345 49.371 82.2239 49.371H82.2184Z" fill="#002470"/>
<path d="M87.963 57.6744H86.803L90.7493 45.4635H91.8983L87.9575 57.6744H87.963Z" fill="#97D700"/>
<path d="M99.7353 51.913C99.7353 53.5726 99.4911 54.8104 99.0082 55.6318C98.5254 56.4533 97.7649 56.864 96.7326 56.864C95.7002 56.864 94.9786 56.4699 94.4846 55.6818C93.9907 54.8936 93.7353 53.7114 93.7131 52.1295V50.198C93.7131 48.555 93.9574 47.3284 94.4402 46.5236C94.9287 45.7132 95.6835 45.3136 96.7159 45.3136C97.7483 45.3136 98.4809 45.6966 98.9694 46.4625C99.4578 47.2285 99.7131 48.3885 99.7353 49.9482V51.9186V51.913ZM98.3699 49.9593C98.3699 48.7715 98.2367 47.8945 97.9759 47.3284C97.715 46.7623 97.2932 46.4847 96.7159 46.4847C96.1387 46.4847 95.7446 46.7623 95.4782 47.3173C95.2173 47.8723 95.0785 48.7049 95.0674 49.8261V52.1406C95.0674 53.3229 95.2062 54.2165 95.4782 54.8104C95.7501 55.4043 96.1664 55.704 96.727 55.704C97.2876 55.704 97.6928 55.4265 97.9537 54.8603C98.2145 54.2997 98.3533 53.4394 98.3644 52.2905V49.9648L98.3699 49.9593Z" fill="#002470"/>
<path d="M101.267 55.9649C101.267 55.7151 101.339 55.5097 101.489 55.3488C101.639 55.1878 101.856 55.099 102.15 55.099C102.444 55.099 102.666 55.1823 102.816 55.3488C102.966 55.5153 103.043 55.7206 103.043 55.9649C103.043 56.2091 102.966 56.3978 102.816 56.5588C102.666 56.7197 102.444 56.7974 102.15 56.7974C101.856 56.7974 101.634 56.7197 101.489 56.5588C101.345 56.3978 101.267 56.2035 101.267 55.9649Z" fill="#002470"/>
<path d="M104.992 51.0749L105.48 45.469H110.37V46.79H106.629L106.368 49.8538C106.829 49.5319 107.328 49.3654 107.867 49.3654C108.744 49.3654 109.432 49.704 109.932 50.3867C110.431 51.0694 110.681 51.9796 110.681 53.1286C110.681 54.2775 110.409 55.2044 109.865 55.8705C109.321 56.5365 108.577 56.864 107.628 56.864C106.784 56.864 106.096 56.5865 105.563 56.037C105.031 55.4875 104.731 54.7215 104.653 53.7502H105.935C106.013 54.3941 106.196 54.877 106.49 55.2044C106.779 55.5319 107.162 55.6929 107.628 55.6929C108.161 55.6929 108.572 55.4597 108.871 54.9991C109.171 54.5384 109.321 53.9167 109.321 53.1341C109.321 52.3959 109.16 51.7965 108.838 51.3358C108.516 50.8751 108.083 50.642 107.539 50.642C107.084 50.642 106.723 50.7585 106.451 50.9972L106.091 51.358L105.003 51.0638L104.992 51.0749Z" fill="#002470"/>
<path d="M112.085 52.1517C112.085 50.8474 112.324 49.865 112.796 49.1989C113.267 48.5329 113.961 48.1998 114.872 48.1998C115.721 48.1998 116.365 48.5606 116.809 49.2877L116.881 48.3552H118.119V56.7919C118.119 57.8243 117.852 58.618 117.325 59.173C116.792 59.728 116.054 60.0056 115.11 60.0056C114.699 60.0056 114.233 59.9057 113.723 59.7003C113.212 59.4949 112.823 59.2452 112.568 58.9454L113.123 58.0019C113.689 58.5569 114.316 58.8344 114.999 58.8344C116.137 58.8344 116.72 58.2128 116.753 56.975V55.8872C116.309 56.5421 115.682 56.8696 114.866 56.8696C114 56.8696 113.328 56.5421 112.84 55.8927C112.357 55.2433 112.102 54.3053 112.085 53.0842V52.1573V52.1517ZM113.456 52.9288C113.456 53.8668 113.595 54.5551 113.867 54.9935C114.139 55.432 114.594 55.654 115.221 55.654C115.898 55.654 116.409 55.3044 116.748 54.6106V50.4367C116.392 49.7539 115.887 49.4098 115.232 49.4098C114.577 49.4098 114.15 49.6318 113.872 50.0703C113.595 50.5088 113.451 51.186 113.451 52.0962V52.9288H113.456Z" fill="#002470"/>
<path d="M125.184 56.864C124.146 56.864 123.347 56.5532 122.792 55.9316C122.237 55.3099 121.954 54.3996 121.943 53.2008V52.1906C121.943 50.9417 122.215 49.9649 122.759 49.26C123.302 48.5551 124.057 48.1998 125.034 48.1998C126.011 48.1998 126.744 48.5107 127.227 49.1323C127.71 49.7539 127.959 50.7253 127.97 52.0463V52.9399H123.302V53.1342C123.302 54.0278 123.469 54.6827 123.808 55.0879C124.146 55.4931 124.629 55.6984 125.262 55.6984C125.661 55.6984 126.017 55.6207 126.322 55.4709C126.627 55.321 126.916 55.0768 127.182 54.7493L127.893 55.6152C127.299 56.4477 126.394 56.864 125.184 56.864ZM125.029 49.371C124.463 49.371 124.041 49.5652 123.769 49.9538C123.497 50.3423 123.341 50.9473 123.308 51.7632H126.599V51.58C126.561 50.7863 126.422 50.2202 126.172 49.8816C125.922 49.543 125.545 49.371 125.034 49.371H125.029Z" fill="#002470"/>
<path d="M130.89 48.3552L130.929 49.26C131.462 48.5551 132.139 48.1998 132.96 48.1998C134.437 48.1998 135.186 49.1878 135.208 51.1582V56.7142H133.848V51.2248C133.848 50.5699 133.737 50.1036 133.521 49.8317C133.304 49.5597 132.971 49.4209 132.538 49.4209C132.2 49.4209 131.895 49.5319 131.623 49.7595C131.351 49.9871 131.134 50.2812 130.968 50.6476V56.7197H129.602V48.3608H130.89V48.3552Z" fill="#002470"/>
<path d="M138.544 48.3552L138.577 49.1268C139.088 48.5107 139.76 48.1998 140.592 48.1998C141.525 48.1998 142.174 48.605 142.546 49.4154C143.073 48.605 143.8 48.1998 144.738 48.1998C146.276 48.1998 147.064 49.1601 147.103 51.0805V56.7086H145.743V51.2082C145.743 50.6032 145.632 50.148 145.421 49.8539C145.21 49.5597 144.838 49.4098 144.322 49.4098C143.911 49.4098 143.573 49.5708 143.317 49.8872C143.062 50.2035 142.912 50.6143 142.868 51.1083V56.7086H141.491V51.1471C141.475 49.9871 141.003 49.4098 140.076 49.4098C139.388 49.4098 138.899 49.7539 138.616 50.4422V56.7086H137.256V48.3497H138.539L138.544 48.3552Z" fill="#002470"/>
<path d="M152.148 56.864C151.11 56.864 150.311 56.5532 149.756 55.9316C149.201 55.3099 148.918 54.3996 148.906 53.2008V52.1906C148.906 50.9417 149.178 49.9649 149.722 49.26C150.266 48.5551 151.021 48.1998 151.998 48.1998C152.975 48.1998 153.708 48.5107 154.19 49.1323C154.673 49.7539 154.923 50.7253 154.934 52.0463V52.9399H150.266V53.1342C150.266 54.0278 150.433 54.6827 150.771 55.0879C151.11 55.4931 151.593 55.6984 152.226 55.6984C152.625 55.6984 152.981 55.6207 153.286 55.4709C153.591 55.321 153.88 55.0768 154.146 54.7493L154.857 55.6152C154.263 56.4477 153.358 56.864 152.148 56.864ZM151.993 49.371C151.426 49.371 151.005 49.5652 150.733 49.9538C150.461 50.3423 150.305 50.9473 150.272 51.7632H153.563V51.58C153.524 50.7863 153.386 50.2202 153.136 49.8816C152.886 49.543 152.509 49.371 151.998 49.371H151.993Z" fill="#002470"/>
<path d="M158.353 46.3293V48.3552H159.613V49.4598H158.353V54.6494C158.353 54.9769 158.409 55.2267 158.514 55.3987C158.625 55.5708 158.809 55.654 159.069 55.654C159.253 55.654 159.43 55.6207 159.619 55.5597L159.602 56.7142C159.291 56.8141 158.975 56.8696 158.653 56.8696C158.115 56.8696 157.698 56.6753 157.415 56.2923C157.132 55.9038 156.988 55.3599 156.988 54.655V49.4653H155.711V48.3608H156.988V46.3349H158.348L158.353 46.3293Z" fill="#002470"/>
<path d="M165.541 56.7086C165.458 56.531 165.402 56.2257 165.364 55.7983C164.881 56.5088 164.259 56.864 163.51 56.864C162.76 56.864 162.161 56.6531 161.739 56.2257C161.312 55.8039 161.101 55.2044 161.101 54.4274C161.101 53.5782 161.389 52.901 161.967 52.4015C162.544 51.902 163.332 51.6466 164.337 51.6355H165.341V50.7475C165.341 50.2479 165.23 49.8927 165.008 49.6818C164.786 49.4709 164.448 49.3654 163.998 49.3654C163.587 49.3654 163.254 49.4875 162.994 49.7317C162.738 49.976 162.605 50.2868 162.605 50.6642H161.24C161.24 50.2368 161.367 49.8316 161.617 49.4376C161.872 49.049 162.211 48.7438 162.638 48.5217C163.066 48.2997 163.543 48.1887 164.07 48.1887C164.925 48.1887 165.574 48.3996 166.018 48.827C166.463 49.2544 166.69 49.8705 166.701 50.6864V54.9047C166.701 55.5486 166.796 56.1092 166.962 56.581V56.7031H165.541V56.7086ZM163.715 55.6207C164.048 55.6207 164.37 55.5264 164.675 55.3432C164.981 55.16 165.203 54.9269 165.341 54.6494V52.6568H164.57C163.92 52.6679 163.41 52.8122 163.032 53.0953C162.655 53.3784 162.466 53.7669 162.466 54.272C162.466 54.7438 162.561 55.0879 162.749 55.3044C162.938 55.5208 163.26 55.6263 163.715 55.6263V55.6207Z" fill="#002470"/>
<path d="M170.081 55.5429H174.111V56.7085H168.516V55.6595L172.346 49.5318H168.544V48.3496H173.95V49.3598L170.07 55.5374L170.081 55.5429Z" fill="#002470"/>
<path d="M175.349 52.1462C175.349 50.9306 175.643 49.9704 176.231 49.26C176.82 48.5495 177.602 48.1998 178.568 48.1998C179.534 48.1998 180.316 48.544 180.905 49.2378C181.493 49.926 181.798 50.8696 181.809 52.0574V52.9399C181.809 54.1499 181.515 55.1101 180.927 55.815C180.339 56.5199 179.556 56.8751 178.579 56.8751C177.602 56.8751 176.836 56.531 176.248 55.8483C175.665 55.1656 175.36 54.2387 175.343 53.0675V52.1573L175.349 52.1462ZM176.714 52.9343C176.714 53.7947 176.881 54.4718 177.219 54.9602C177.558 55.4542 178.013 55.6984 178.585 55.6984C179.789 55.6984 180.411 54.827 180.444 53.0897V52.1462C180.444 51.2914 180.272 50.6143 179.933 50.1203C179.595 49.6207 179.14 49.3765 178.568 49.3765C177.996 49.3765 177.558 49.6263 177.219 50.1203C176.881 50.6143 176.714 51.2914 176.714 52.1406V52.9343Z" fill="#002470"/>
<path d="M189.63 52.9343C189.63 54.2387 189.397 55.2155 188.925 55.876C188.459 56.5365 187.776 56.864 186.888 56.864C186 56.864 185.339 56.481 184.895 55.7206L184.829 56.7086H183.585V44.8418H184.945V49.2655C185.395 48.5495 186.039 48.1942 186.877 48.1942C187.793 48.1942 188.481 48.5162 188.942 49.1656C189.402 49.815 189.63 50.7918 189.635 52.1017V52.9288L189.63 52.9343ZM188.27 52.1517C188.27 51.1637 188.131 50.4588 187.859 50.0425C187.582 49.6207 187.138 49.4153 186.516 49.4153C185.811 49.4153 185.284 49.7983 184.94 50.5587V54.5328C185.278 55.2821 185.811 55.6596 186.533 55.6596C187.149 55.6596 187.593 55.4431 187.859 55.0102C188.126 54.5772 188.264 53.9056 188.27 52.9954V52.1572V52.1517Z" fill="#002470"/>
<path d="M195.68 56.7086C195.597 56.531 195.541 56.2257 195.502 55.7983C195.019 56.5088 194.398 56.864 193.648 56.864C192.899 56.864 192.3 56.6531 191.878 56.2257C191.45 55.8039 191.24 55.2044 191.24 54.4274C191.24 53.5782 191.528 52.901 192.105 52.4015C192.683 51.902 193.471 51.6466 194.475 51.6355H195.48V50.7475C195.48 50.2479 195.369 49.8927 195.147 49.6818C194.925 49.4709 194.586 49.3654 194.137 49.3654C193.726 49.3654 193.393 49.4875 193.132 49.7317C192.877 49.976 192.744 50.2868 192.744 50.6642H191.378C191.378 50.2368 191.506 49.8316 191.756 49.4376C192.011 49.049 192.35 48.7438 192.777 48.5217C193.204 48.2997 193.682 48.1887 194.209 48.1887C195.064 48.1887 195.713 48.3996 196.157 48.827C196.601 49.2544 196.829 49.8705 196.84 50.6864V54.9047C196.84 55.5486 196.934 56.1092 197.101 56.581V56.7031H195.68V56.7086ZM193.854 55.6207C194.187 55.6207 194.509 55.5264 194.814 55.3432C195.119 55.16 195.341 54.9269 195.48 54.6494V52.6568H194.709C194.059 52.6679 193.548 52.8122 193.171 53.0953C192.794 53.3784 192.605 53.7669 192.605 54.272C192.605 54.7438 192.699 55.0879 192.888 55.3044C193.077 55.5208 193.399 55.6263 193.854 55.6263V55.6207Z" fill="#002470"/>
<path d="M201.858 55.6984C202.313 55.6984 202.673 55.5596 202.945 55.2766C203.217 54.9935 203.367 54.5939 203.395 54.0777H204.683C204.649 54.8825 204.366 55.5485 203.828 56.0758C203.29 56.6031 202.629 56.8695 201.852 56.8695C200.82 56.8695 200.026 56.542 199.482 55.8926C198.938 55.2432 198.666 54.2719 198.666 52.9842V52.0629C198.666 50.8029 198.938 49.8427 199.476 49.1877C200.015 48.5328 200.803 48.2053 201.841 48.2053C202.696 48.2053 203.373 48.4773 203.878 49.0157C204.377 49.5541 204.644 50.2923 204.677 51.2303H203.389C203.356 50.6142 203.212 50.148 202.945 49.8427C202.679 49.5319 202.313 49.382 201.846 49.382C201.241 49.382 200.786 49.5818 200.492 49.9815C200.198 50.3811 200.048 51.036 200.037 51.9463V53.012C200.037 53.9944 200.181 54.6882 200.475 55.0989C200.764 55.5041 201.225 55.7095 201.852 55.7095L201.858 55.6984Z" fill="#002470"/>
<path d="M208.052 46.3293V48.3552H209.312V49.4598H208.052V54.6494C208.052 54.9769 208.107 55.2267 208.213 55.3987C208.324 55.5708 208.507 55.654 208.768 55.654C208.951 55.654 209.128 55.6207 209.317 55.5597L209.301 56.7142C208.99 56.8141 208.673 56.8696 208.351 56.8696C207.813 56.8696 207.397 56.6753 207.114 56.2923C206.831 55.9038 206.686 55.3599 206.686 54.655V49.4653H205.41V48.3608H206.686V46.3349H208.046L208.052 46.3293Z" fill="#002470"/>
<path d="M215.234 56.7086C215.151 56.531 215.095 56.2257 215.056 55.7983C214.574 56.5088 213.952 56.864 213.203 56.864C212.453 56.864 211.854 56.6531 211.432 56.2257C211.005 55.8039 210.794 55.2044 210.794 54.4274C210.794 53.5782 211.082 52.901 211.66 52.4015C212.237 51.902 213.025 51.6466 214.03 51.6355H215.034V50.7475C215.034 50.2479 214.923 49.8927 214.701 49.6818C214.479 49.4709 214.141 49.3654 213.691 49.3654C213.28 49.3654 212.947 49.4875 212.686 49.7317C212.431 49.976 212.298 50.2868 212.298 50.6642H210.932C210.932 50.2368 211.06 49.8316 211.31 49.4376C211.565 49.049 211.904 48.7438 212.331 48.5217C212.759 48.2997 213.236 48.1887 213.763 48.1887C214.618 48.1887 215.267 48.3996 215.711 48.827C216.155 49.2544 216.383 49.8705 216.394 50.6864V54.9047C216.394 55.5486 216.488 56.1092 216.655 56.581V56.7031H215.234V56.7086ZM213.413 55.6207C213.747 55.6207 214.068 55.5264 214.374 55.3432C214.679 55.16 214.901 54.9269 215.04 54.6494V52.6568H214.268C213.619 52.6679 213.108 52.8122 212.731 53.0953C212.353 53.3784 212.165 53.7669 212.165 54.272C212.165 54.7438 212.259 55.0879 212.448 55.3044C212.636 55.5208 212.958 55.6263 213.413 55.6263V55.6207Z" fill="#002470"/>
<path d="M219.802 48.3552L219.835 49.1268C220.346 48.5107 221.018 48.1998 221.85 48.1998C222.783 48.1998 223.432 48.605 223.804 49.4154C224.331 48.605 225.058 48.1998 225.996 48.1998C227.534 48.1998 228.322 49.1601 228.361 51.0805V56.7086H227.001V51.2082C227.001 50.6032 226.89 50.148 226.679 49.8539C226.468 49.5597 226.096 49.4098 225.58 49.4098C225.169 49.4098 224.831 49.5708 224.575 49.8872C224.32 50.2035 224.17 50.6143 224.126 51.1083V56.7086H222.749V51.1471C222.733 49.9871 222.261 49.4098 221.334 49.4098C220.646 49.4098 220.157 49.7539 219.874 50.4422V56.7086H218.514V48.3497H219.797L219.802 48.3552Z" fill="#002470"/>
<path d="M261.025 17.8112L252.178 0.843628H269.867L261.025 17.8112Z" fill="black"/>
</g>
<defs>
<clipPath id="clip0_228_14462">
<rect width="269.867" height="60" fill="white"/>
</clipPath>
</defs>
</svg>
