<svg width="885" height="537" viewBox="0 0 885 537" fill="none" xmlns="http://www.w3.org/2000/svg">
<path d="M565.827 19.6109V0L546.216 0V19.6109H565.827Z" fill="url(#paint0_linear_317_9923)"/>
<path d="M579.96 7.31286L576.687 1.96388H577.978L580.621 6.26766L583.281 1.96388H584.556L581.267 7.31286L584.771 13H583.48L580.621 8.37344L577.732 13H576.441L579.96 7.31286ZM588.927 12.3852L585.576 4.83819H586.683L589.496 11.1248L592.217 4.83819H593.339L588.466 15.9819H587.359L588.927 12.3852ZM601.81 13V11.6013C600.918 12.6772 599.796 13.1998 598.521 13.1998C596.138 13.1998 594.34 11.217 594.34 8.89604C594.34 6.57507 596.184 4.623 598.551 4.623C599.873 4.623 600.995 5.19171 601.81 6.32914V1.68721H602.855V13H601.81ZM598.644 5.63746C596.768 5.63746 595.416 7.17453 595.416 8.92678C595.416 10.6944 596.799 12.2468 598.628 12.2468C600.304 12.2468 601.871 10.9864 601.871 8.95752C601.871 7.06693 600.473 5.63746 598.644 5.63746ZM612.317 6.32914V4.83819H613.347V13H612.317V11.6013C611.425 12.6772 610.303 13.1998 609.028 13.1998C606.645 13.1998 604.847 11.217 604.847 8.89604C604.847 6.57507 606.691 4.623 609.058 4.623C610.38 4.623 611.502 5.19171 612.317 6.32914ZM609.15 5.63746C607.275 5.63746 605.923 7.17453 605.923 8.92678C605.923 10.6944 607.306 12.2468 609.135 12.2468C610.811 12.2468 612.394 10.9864 612.394 8.95752C612.394 7.06693 610.98 5.63746 609.15 5.63746ZM615.554 13V1.68721H616.599V13H615.554ZM619.907 11.4937V13H618.862V1.68721H619.907V6.23692C620.799 5.16097 621.905 4.623 623.181 4.623C625.563 4.623 627.377 6.60581 627.377 8.92678C627.377 11.2324 625.533 13.2152 623.15 13.2152C621.828 13.2152 620.737 12.6311 619.907 11.4937ZM623.073 12.2007C624.964 12.2007 626.301 10.6483 626.301 8.89604C626.301 7.12841 624.903 5.57598 623.073 5.57598C621.398 5.57598 619.83 6.821 619.83 8.8653C619.83 10.7559 621.229 12.2007 623.073 12.2007ZM636.363 6.32914V4.83819H637.393V13H636.363V11.6013C635.472 12.6772 634.35 13.1998 633.074 13.1998C630.692 13.1998 628.893 11.217 628.893 8.89604C628.893 6.57507 630.738 4.623 633.105 4.623C634.427 4.623 635.549 5.19171 636.363 6.32914ZM633.197 5.63746C631.322 5.63746 629.969 7.17453 629.969 8.92678C629.969 10.6944 631.353 12.2468 633.182 12.2468C634.857 12.2468 636.44 10.9864 636.44 8.95752C636.44 7.06693 635.026 5.63746 633.197 5.63746ZM646.37 1.18466H647.44V5.06728H646.776V1.86711L645.319 5.06728H644.876L643.474 1.86711V5.06728H642.81V1.18466H643.898L645.097 3.87759L646.37 1.18466ZM638.642 1.18466H642.054V1.80256H640.68V5.06728H640.016V1.80256H638.642V1.18466Z" fill="#414042"/>
<path d="M714.651 19.6109V0L695.041 0V19.6109H714.651Z" fill="#D4DDDA"/>
<path d="M729.984 13L725.249 1.96388H726.448L730.107 10.4946L733.826 1.96388H735.025L730.23 13H729.984ZM742.213 6.32914V4.83819H743.243V13H742.213V11.6013C741.321 12.6772 740.199 13.1998 738.924 13.1998C736.541 13.1998 734.743 11.217 734.743 8.89604C734.743 6.57507 736.587 4.623 738.954 4.623C740.276 4.623 741.398 5.19171 742.213 6.32914ZM739.047 5.63746C737.171 5.63746 735.819 7.17453 735.819 8.92678C735.819 10.6944 737.202 12.2468 739.031 12.2468C740.707 12.2468 742.29 10.9864 742.29 8.95752C742.29 7.06693 740.876 5.63746 739.047 5.63746ZM746.649 4.83819V6.2984C747.495 5.19171 748.509 4.623 749.708 4.623C751.491 4.623 752.736 5.85265 752.736 8.41955V13H751.691V8.55788C751.691 6.63655 751.091 5.57598 749.508 5.57598C748.632 5.57598 747.91 5.96025 747.356 6.68267C746.741 7.48194 746.649 8.28121 746.649 9.57235V13H745.604V4.83819H746.649ZM762.071 10.8174L762.917 11.3553C762.117 12.5696 760.734 13.1998 759.089 13.1998C756.4 13.1998 754.601 11.2631 754.601 8.98826C754.601 6.59044 756.476 4.623 759.166 4.623C760.734 4.623 762.164 5.26857 762.917 6.52896L762.071 7.05156C761.349 6.09858 760.35 5.63746 759.12 5.63746C757.045 5.63746 755.677 7.15916 755.677 8.91141C755.677 10.6944 757.03 12.2468 759.136 12.2468C760.319 12.2468 761.303 11.7703 762.071 10.8174ZM768.811 4.623C771.255 4.623 773.068 6.60581 773.068 8.94215C773.068 11.2631 771.27 13.2152 768.811 13.2152C766.351 13.2152 764.553 11.2631 764.553 8.94215C764.553 6.60581 766.367 4.623 768.811 4.623ZM768.811 5.63746C767.059 5.63746 765.629 7.14379 765.629 8.95752C765.629 10.7405 766.966 12.2007 768.811 12.2007C770.64 12.2007 771.993 10.7405 771.993 8.95752C771.993 7.14379 770.548 5.63746 768.811 5.63746ZM781.603 9.43401V13H780.558V8.81919C780.558 8.18899 780.497 7.66639 780.481 7.29749C780.435 6.40599 779.713 5.63746 778.637 5.63746C777.914 5.63746 777.192 5.99099 776.731 6.59044C776.147 7.3436 776.039 8.31195 776.039 9.54161V13H774.994V4.83819H776.039V6.23692C776.762 5.19171 777.668 4.623 778.837 4.623C780.082 4.623 780.973 5.26857 781.419 6.59044C782.141 5.28394 783.217 4.623 784.416 4.623C786.107 4.623 787.198 5.83728 787.198 8.15825V13H786.153V8.54251C786.153 7.94306 786.076 7.46657 786.061 7.15916C786.015 6.43674 785.323 5.63746 784.216 5.63746C783.202 5.63746 782.31 6.25229 781.895 7.29749C781.634 7.95843 781.603 8.68085 781.603 9.43401ZM791.909 12.3852L788.558 4.83819H789.665L792.478 11.1248L795.198 4.83819H796.32L791.448 15.9819H790.341L791.909 12.3852ZM804.761 10.8174L805.606 11.3553C804.807 12.5696 803.424 13.1998 801.779 13.1998C799.089 13.1998 797.291 11.2631 797.291 8.98826C797.291 6.59044 799.166 4.623 801.856 4.623C803.424 4.623 804.853 5.26857 805.606 6.52896L804.761 7.05156C804.038 6.09858 803.039 5.63746 801.81 5.63746C799.735 5.63746 798.367 7.15916 798.367 8.91141C798.367 10.6944 799.719 12.2468 801.825 12.2468C803.009 12.2468 803.992 11.7703 804.761 10.8174ZM807.489 13V4.83819H808.534V13H807.489ZM807.996 1.47202C808.472 1.47202 808.872 1.85628 808.872 2.33277C808.872 2.80926 808.472 3.2089 807.996 3.2089C807.519 3.2089 807.135 2.80926 807.135 2.33277C807.135 1.84091 807.535 1.47202 807.996 1.47202ZM811.749 4.83819V6.2984C812.595 5.19171 813.609 4.623 814.808 4.623C816.591 4.623 817.836 5.85265 817.836 8.41955V13H816.791V8.55788C816.791 6.63655 816.191 5.57598 814.608 5.57598C813.732 5.57598 813.01 5.96025 812.456 6.68267C811.841 7.48194 811.749 8.28121 811.749 9.57235V13H810.704V4.83819H811.749ZM824.036 1.68721H825.189L820.608 14.5063H819.455L824.036 1.68721ZM826.641 13V1.68721H827.687V13H826.641ZM829.734 13V4.83819H830.779V13H829.734ZM830.241 1.47202C830.718 1.47202 831.117 1.85628 831.117 2.33277C831.117 2.80926 830.718 3.2089 830.241 3.2089C829.765 3.2089 829.38 2.80926 829.38 2.33277C829.38 1.84091 829.78 1.47202 830.241 1.47202ZM833.995 4.83819V6.2984C834.84 5.19171 835.855 4.623 837.053 4.623C838.836 4.623 840.081 5.85265 840.081 8.41955V13H839.036V8.55788C839.036 6.63655 838.437 5.57598 836.854 5.57598C835.977 5.57598 835.255 5.96025 834.702 6.68267C834.087 7.48194 833.995 8.28121 833.995 9.57235V13H832.949V4.83819H833.995ZM850.37 9.00363H843.023C843.069 10.8789 844.345 12.2468 846.097 12.2468C847.803 12.2468 848.618 11.2785 849.217 10.2948L850.093 10.7559C849.263 12.3852 847.987 13.1998 846.204 13.1998C843.499 13.1998 841.947 11.1248 841.947 8.94215C841.947 6.71341 843.591 4.623 846.143 4.623C848.464 4.623 850.339 6.2984 850.37 9.00363ZM843.13 8.08139H849.217C848.787 6.39062 847.572 5.63746 846.158 5.63746C844.698 5.63746 843.607 6.42136 843.13 8.08139ZM851.652 5.76043V4.83819H857.661L853.035 12.0778H857.508V13H851.221L855.848 5.76043H851.652ZM862.731 4.623C865.175 4.623 866.988 6.60581 866.988 8.94215C866.988 11.2631 865.19 13.2152 862.731 13.2152C860.271 13.2152 858.473 11.2631 858.473 8.94215C858.473 6.60581 860.287 4.623 862.731 4.623ZM862.731 5.63746C860.979 5.63746 859.549 7.14379 859.549 8.95752C859.549 10.7405 860.886 12.2007 862.731 12.2007C864.56 12.2007 865.913 10.7405 865.913 8.95752C865.913 7.14379 864.468 5.63746 862.731 5.63746ZM868.776 13V1.68721H869.821V13H868.776ZM871.868 13V4.83819H872.913V13H871.868ZM872.375 1.47202C872.852 1.47202 873.252 1.85628 873.252 2.33277C873.252 2.80926 872.852 3.2089 872.375 3.2089C871.899 3.2089 871.515 2.80926 871.515 2.33277C871.515 1.84091 871.914 1.47202 872.375 1.47202ZM882.2 13V11.6013C881.309 12.6772 880.187 13.1998 878.911 13.1998C876.528 13.1998 874.73 11.217 874.73 8.89604C874.73 6.57507 876.575 4.623 878.942 4.623C880.264 4.623 881.386 5.19171 882.2 6.32914V1.68721H883.245V13H882.2ZM879.034 5.63746C877.159 5.63746 875.806 7.17453 875.806 8.92678C875.806 10.6944 877.189 12.2468 879.019 12.2468C880.694 12.2468 882.262 10.9864 882.262 8.95752C882.262 7.06693 880.863 5.63746 879.034 5.63746Z" fill="#414042"/>
<path d="M337.383 497.119V67.791" stroke="#878787" stroke-width="0.490272" stroke-miterlimit="10" stroke-dasharray="1.96 2.61"/>
<path d="M609.757 497.119V67.791" stroke="#878787" stroke-width="0.490272" stroke-miterlimit="10" stroke-dasharray="1.96 2.61"/>
<path d="M59.3184 410.007H65.012" stroke="#414042" stroke-width="0.653695" stroke-miterlimit="10"/>
<path d="M59.3184 495.046H65.012" stroke="#414042" stroke-width="0.653695" stroke-miterlimit="10"/>
<path d="M59.3184 452.523H65.012" stroke="#414042" stroke-width="0.653695" stroke-miterlimit="10"/>
<path d="M59.3184 367.491H65.012" stroke="#414042" stroke-width="0.653695" stroke-miterlimit="10"/>
<path d="M59.3184 324.976H65.012" stroke="#414042" stroke-width="0.653695" stroke-miterlimit="10"/>
<path d="M59.3184 282.452H65.012" stroke="#414042" stroke-width="0.653695" stroke-miterlimit="10"/>
<path d="M59.3184 239.935H65.012" stroke="#414042" stroke-width="0.653695" stroke-miterlimit="10"/>
<path d="M59.3184 197.418H65.012" stroke="#414042" stroke-width="0.653695" stroke-miterlimit="10"/>
<path d="M59.3184 154.904H65.012" stroke="#414042" stroke-width="0.653695" stroke-miterlimit="10"/>
<path d="M59.3184 112.386H65.012" stroke="#414042" stroke-width="0.653695" stroke-miterlimit="10"/>
<path d="M43.2351 493.978C43.2351 493.209 43.2659 492.425 43.4196 491.657C43.85 489.443 45.1872 488.198 46.9856 488.198C48.3689 488.198 49.5832 489.028 50.2288 490.535C50.6591 491.518 50.7821 492.656 50.7821 493.978C50.7821 495.3 50.6438 496.452 50.2288 497.436C49.5832 498.943 48.3689 499.788 46.9856 499.788C45.7559 499.788 44.7415 499.204 44.0651 498.082C43.4196 497.021 43.2351 495.669 43.2351 493.978ZM44.3111 493.993C44.3111 495.515 44.434 496.683 44.9413 497.528C45.4178 498.328 46.2017 498.773 47.0009 498.773C48.5995 498.773 49.7523 497.236 49.7523 493.993C49.7523 490.765 48.6149 489.213 47.0009 489.213C46.1863 489.213 45.4178 489.689 44.9413 490.489C44.434 491.334 44.3111 492.487 44.3111 493.993Z" fill="#414042"/>
<path d="M38.1995 447.282H36.4626L37.1235 446.206H39.3062V457.242H38.1995V447.282ZM43.2674 451.709C43.2674 450.94 43.2981 450.156 43.4518 449.388C43.8822 447.174 45.2194 445.929 47.0178 445.929C48.4011 445.929 49.6154 446.759 50.261 448.266C50.6914 449.249 50.8143 450.387 50.8143 451.709C50.8143 453.031 50.676 454.183 50.261 455.167C49.6154 456.673 48.4011 457.519 47.0178 457.519C45.7881 457.519 44.7737 456.935 44.0974 455.813C43.4518 454.752 43.2674 453.4 43.2674 451.709ZM44.3433 451.724C44.3433 453.246 44.4663 454.414 44.9735 455.259C45.45 456.059 46.2339 456.504 47.0332 456.504C48.6317 456.504 49.7845 454.967 49.7845 451.724C49.7845 448.496 48.6471 446.944 47.0332 446.944C46.2185 446.944 45.45 447.42 44.9735 448.22C44.4663 449.065 44.3433 450.218 44.3433 451.724Z" fill="#414042"/>
<path d="M40.4436 364.234C40.4436 363.296 39.629 362.466 38.43 362.466C37.3541 362.466 36.7393 363.066 36.3089 364.219H35.1868C35.6018 362.328 36.8776 361.39 38.4147 361.39C40.1977 361.39 41.5964 362.666 41.5964 364.234C41.5964 365.172 41.1199 365.94 40.1823 366.493C41.4888 367.031 42.1959 368.2 42.1959 369.414C42.1959 371.258 40.7356 372.98 38.4454 372.98C36.5395 372.98 35.2176 371.888 34.8179 369.752H35.9093C36.2782 371.151 37.0313 371.904 38.4608 371.904C40.0747 371.904 41.1199 370.766 41.1199 369.491C41.1199 368.676 40.6588 367.923 39.8903 367.508C39.2601 367.17 38.5991 367.124 37.8921 367.093V366.078C39.6443 365.971 40.4436 365.248 40.4436 364.234ZM43.2674 367.17C43.2674 366.401 43.2981 365.617 43.4518 364.849C43.8822 362.635 45.2194 361.39 47.0178 361.39C48.4011 361.39 49.6154 362.22 50.261 363.727C50.6914 364.71 50.8143 365.848 50.8143 367.17C50.8143 368.492 50.676 369.644 50.261 370.628C49.6154 372.134 48.4011 372.98 47.0178 372.98C45.7881 372.98 44.7737 372.396 44.0974 371.274C43.4518 370.213 43.2674 368.86 43.2674 367.17ZM44.3433 367.185C44.3433 368.707 44.4663 369.875 44.9735 370.72C45.45 371.52 46.2339 371.965 47.0332 371.965C48.6317 371.965 49.7845 370.428 49.7845 367.185C49.7845 363.957 48.6471 362.405 47.0332 362.405C46.2185 362.405 45.45 362.881 44.9735 363.681C44.4663 364.526 44.3433 365.679 44.3433 367.185Z" fill="#414042"/>
<path d="M37.0621 277.129H41.8423V278.205H37.9074L37.3695 281.187C37.6461 281.11 38.0458 280.987 38.6606 280.987C40.7356 280.987 42.1497 282.539 42.1497 284.568C42.1497 286.689 40.6742 288.426 38.2763 288.426C36.4011 288.426 35.1407 287.181 34.9102 285.491H36.0476C36.3243 286.843 37.3541 287.412 38.3532 287.412C39.7673 287.412 40.9969 286.213 40.9969 284.522C40.9969 283.031 39.9825 282.001 38.3993 282.001C37.5385 282.001 36.7854 282.293 36.0476 282.601L37.0621 277.129ZM43.2674 282.632C43.2674 281.863 43.2981 281.079 43.4518 280.311C43.8822 278.097 45.2194 276.852 47.0178 276.852C48.4011 276.852 49.6154 277.682 50.261 279.189C50.6914 280.172 50.8143 281.31 50.8143 282.632C50.8143 283.953 50.676 285.106 50.261 286.09C49.6154 287.596 48.4011 288.442 47.0178 288.442C45.7881 288.442 44.7737 287.858 44.0974 286.736C43.4518 285.675 43.2674 284.322 43.2674 282.632ZM44.3433 282.647C44.3433 284.169 44.4663 285.337 44.9735 286.182C45.45 286.981 46.2339 287.427 47.0332 287.427C48.6317 287.427 49.7845 285.89 49.7845 282.647C49.7845 279.419 48.6471 277.867 47.0332 277.867C46.2185 277.867 45.45 278.343 44.9735 279.142C44.4663 279.988 44.3433 281.141 44.3433 282.647Z" fill="#414042"/>
<path d="M35.3867 193.666V192.59H42.3803L36.478 203.903L35.5711 203.442L40.6742 193.666H35.3867ZM43.2674 198.093C43.2674 197.325 43.2981 196.541 43.4518 195.772C43.8822 193.559 45.2194 192.314 47.0178 192.314C48.4011 192.314 49.6154 193.144 50.261 194.65C50.6914 195.634 50.8143 196.771 50.8143 198.093C50.8143 199.415 50.676 200.568 50.261 201.551C49.6154 203.058 48.4011 203.903 47.0178 203.903C45.7881 203.903 44.7737 203.319 44.0974 202.197C43.4518 201.136 43.2674 199.784 43.2674 198.093ZM44.3433 198.108C44.3433 199.63 44.4663 200.798 44.9735 201.644C45.45 202.443 46.2339 202.889 47.0332 202.889C48.6317 202.889 49.7845 201.352 49.7845 198.108C49.7845 194.881 48.6471 193.328 47.0332 193.328C46.2185 193.328 45.45 193.805 44.9735 194.604C44.4663 195.449 44.3433 196.602 44.3433 198.108Z" fill="#414042"/>
<path d="M40.5819 114.369L37.2311 119.365L36.3243 118.78L39.3062 114.262C38.9988 114.354 38.6299 114.461 38.1687 114.461C36.3396 114.461 35.0485 112.97 35.0485 111.172C35.0485 109.128 36.6471 107.775 38.4762 107.775C40.4743 107.775 41.827 109.358 41.827 111.111C41.827 112.171 41.3658 113.201 40.5819 114.369ZM38.43 113.493C39.7058 113.493 40.751 112.448 40.751 111.172C40.751 109.896 39.7212 108.851 38.43 108.851C37.1543 108.851 36.1244 109.881 36.1244 111.172C36.1244 112.448 37.1543 113.493 38.43 113.493ZM43.2674 113.554C43.2674 112.786 43.2981 112.002 43.4518 111.233C43.8822 109.02 45.2194 107.775 47.0178 107.775C48.4011 107.775 49.6154 108.605 50.261 110.111C50.6914 111.095 50.8143 112.233 50.8143 113.554C50.8143 114.876 50.676 116.029 50.261 117.013C49.6154 118.519 48.4011 119.365 47.0178 119.365C45.7881 119.365 44.7737 118.78 44.0974 117.658C43.4518 116.598 43.2674 115.245 43.2674 113.554ZM44.3433 113.57C44.3433 115.092 44.4663 116.26 44.9735 117.105C45.45 117.904 46.2339 118.35 47.0332 118.35C48.6317 118.35 49.7845 116.813 49.7845 113.57C49.7845 110.342 48.6471 108.79 47.0332 108.79C46.2185 108.79 45.45 109.266 44.9735 110.065C44.4663 110.911 44.3433 112.064 44.3433 113.57Z" fill="#414042"/>
<path d="M34.7411 414.973L38.968 410.423C40.2592 409.024 41.0123 408.179 41.0123 406.98C41.0123 405.704 39.9671 404.674 38.6299 404.674C37.2311 404.674 36.2013 405.704 36.063 407.395H35.0024C35.0639 405.243 36.6163 403.66 38.676 403.66C40.6742 403.66 42.0883 405.135 42.0883 406.98C42.0883 408.486 41.1968 409.531 39.8903 410.946L37.1389 413.897H42.242V414.973H34.7411ZM43.2674 409.439C43.2674 408.671 43.2981 407.887 43.4518 407.118C43.8822 404.905 45.2194 403.66 47.0178 403.66C48.4011 403.66 49.6154 404.49 50.261 405.996C50.6914 406.98 50.8143 408.117 50.8143 409.439C50.8143 410.761 50.676 411.914 50.261 412.898C49.6154 414.404 48.4011 415.249 47.0178 415.249C45.7881 415.249 44.7737 414.665 44.0974 413.543C43.4518 412.483 43.2674 411.13 43.2674 409.439ZM44.3433 409.455C44.3433 410.976 44.4663 412.144 44.9735 412.99C45.45 413.789 46.2339 414.235 47.0332 414.235C48.6317 414.235 49.7845 412.698 49.7845 409.455C49.7845 406.227 48.6471 404.674 47.0332 404.674C46.2185 404.674 45.45 405.151 44.9735 405.95C44.4663 406.795 44.3433 407.948 44.3433 409.455Z" fill="#414042"/>
<path d="M34.6796 327.867L40.8279 319.121H41.0584V326.791H42.3957V327.867H41.0584V330.434H39.9517V327.867H34.6796ZM36.7085 326.791H39.9517V322.211L36.7085 326.791ZM43.2674 324.901C43.2674 324.132 43.2981 323.348 43.4518 322.58C43.8822 320.366 45.2194 319.121 47.0178 319.121C48.4011 319.121 49.6154 319.951 50.261 321.458C50.6914 322.441 50.8143 323.579 50.8143 324.901C50.8143 326.223 50.676 327.375 50.261 328.359C49.6154 329.865 48.4011 330.711 47.0178 330.711C45.7881 330.711 44.7737 330.127 44.0974 329.005C43.4518 327.944 43.2674 326.591 43.2674 324.901ZM44.3433 324.916C44.3433 326.438 44.4663 327.606 44.9735 328.451C45.45 329.251 46.2339 329.696 47.0332 329.696C48.6317 329.696 49.7845 328.159 49.7845 324.916C49.7845 321.688 48.6471 320.136 47.0332 320.136C46.2185 320.136 45.45 320.612 44.9735 321.412C44.4663 322.257 44.3433 323.41 44.3433 324.916Z" fill="#414042"/>
<path d="M36.5702 239.579L39.9364 234.583L40.8279 235.167L37.8613 239.686C38.1226 239.594 38.4608 239.486 38.9834 239.486C40.8125 239.486 42.119 240.993 42.119 242.776C42.119 244.835 40.4897 246.173 38.676 246.173C36.6778 246.173 35.3252 244.574 35.3252 242.837C35.3252 241.761 35.7863 240.747 36.5702 239.579ZM38.7221 240.455C37.4463 240.455 36.4011 241.5 36.4011 242.776C36.4011 244.052 37.4463 245.097 38.7221 245.097C39.9979 245.097 41.0431 244.052 41.0431 242.776C41.0431 241.5 40.0132 240.455 38.7221 240.455ZM43.2674 240.363C43.2674 239.594 43.2981 238.81 43.4518 238.042C43.8822 235.828 45.2194 234.583 47.0178 234.583C48.4011 234.583 49.6154 235.413 50.261 236.92C50.6914 237.903 50.8143 239.041 50.8143 240.363C50.8143 241.684 50.676 242.837 50.261 243.821C49.6154 245.327 48.4011 246.173 47.0178 246.173C45.7881 246.173 44.7737 245.589 44.0974 244.467C43.4518 243.406 43.2674 242.053 43.2674 240.363ZM44.3433 240.378C44.3433 241.9 44.4663 243.068 44.9735 243.913C45.45 244.712 46.2339 245.158 47.0332 245.158C48.6317 245.158 49.7845 243.621 49.7845 240.378C49.7845 237.15 48.6471 235.598 47.0332 235.598C46.2185 235.598 45.45 236.074 44.9735 236.873C44.4663 237.719 44.3433 238.872 44.3433 240.378Z" fill="#414042"/>
<path d="M35.3098 152.918C35.3098 151.397 36.7239 150.044 38.5991 150.044C40.4129 150.044 41.7501 151.397 41.7501 152.949C41.7501 153.964 41.2429 154.732 40.1977 155.301C41.5349 155.977 42.2727 156.838 42.2727 158.191C42.2727 159.943 40.9969 161.618 38.5223 161.618C36.1091 161.618 34.8179 159.989 34.8179 158.283C34.8179 156.869 35.6172 155.977 36.9545 155.301C35.8478 154.732 35.3098 153.871 35.3098 152.918ZM38.553 151.12C37.3541 151.12 36.4626 151.935 36.4626 152.934C36.4626 153.964 37.4924 154.84 38.5838 154.84C39.8288 154.84 40.6742 153.841 40.6742 152.903C40.6742 152.058 39.9517 151.12 38.553 151.12ZM38.5991 155.854C37.0159 155.854 35.8939 157.069 35.8939 158.314C35.8939 159.528 36.893 160.604 38.5376 160.604C40.1516 160.604 41.1968 159.482 41.1968 158.206C41.1968 157.038 40.1054 155.854 38.5991 155.854ZM43.2674 155.824C43.2674 155.055 43.2981 154.271 43.4518 153.503C43.8822 151.289 45.2194 150.044 47.0178 150.044C48.4011 150.044 49.6154 150.874 50.261 152.38C50.6914 153.364 50.8143 154.502 50.8143 155.824C50.8143 157.145 50.676 158.298 50.261 159.282C49.6154 160.788 48.4011 161.634 47.0178 161.634C45.7881 161.634 44.7737 161.05 44.0974 159.927C43.4518 158.867 43.2674 157.514 43.2674 155.824ZM44.3433 155.839C44.3433 157.361 44.4663 158.529 44.9735 159.374C45.45 160.173 46.2339 160.619 47.0332 160.619C48.6317 160.619 49.7845 159.082 49.7845 155.839C49.7845 152.611 48.6471 151.059 47.0332 151.059C46.2185 151.059 45.45 151.535 44.9735 152.334C44.4663 153.18 44.3433 154.333 44.3433 155.839Z" fill="#414042"/>
<path d="M30.004 66.8587H28.2671L28.9281 65.7827H31.1107V76.8188H30.004V66.8587ZM35.0719 71.2854C35.0719 70.5169 35.1026 69.733 35.2563 68.9644C35.6867 66.7511 37.024 65.5061 38.8223 65.5061C40.2057 65.5061 41.42 66.3361 42.0655 67.8424C42.4959 68.8261 42.6189 69.9635 42.6189 71.2854C42.6189 72.6073 42.4805 73.7601 42.0655 74.7438C41.42 76.2501 40.2057 77.0955 38.8223 77.0955C37.5927 77.0955 36.5782 76.5114 35.9019 75.3894C35.2563 74.3288 35.0719 72.9762 35.0719 71.2854ZM36.1478 71.3008C36.1478 72.8225 36.2708 73.9906 36.778 74.836C37.2545 75.6353 38.0384 76.0811 38.8377 76.0811C40.4362 76.0811 41.589 74.544 41.589 71.3008C41.589 68.073 40.4516 66.5205 38.8377 66.5205C38.0231 66.5205 37.2545 66.997 36.778 67.7963C36.2708 68.6417 36.1478 69.7945 36.1478 71.3008ZM43.5828 71.2854C43.5828 70.5169 43.6135 69.733 43.7672 68.9644C44.1976 66.7511 45.5349 65.5061 47.3332 65.5061C48.7166 65.5061 49.9309 66.3361 50.5764 67.8424C51.0068 68.8261 51.1298 69.9635 51.1298 71.2854C51.1298 72.6073 50.9914 73.7601 50.5764 74.7438C49.9309 76.2501 48.7166 77.0955 47.3332 77.0955C46.1036 77.0955 45.0891 76.5114 44.4128 75.3894C43.7672 74.3288 43.5828 72.9762 43.5828 71.2854ZM44.6587 71.3008C44.6587 72.8225 44.7817 73.9906 45.2889 74.836C45.7654 75.6353 46.5493 76.0811 47.3486 76.0811C48.9471 76.0811 50.0999 74.544 50.0999 71.3008C50.0999 68.073 48.9625 66.5205 47.3486 66.5205C46.5339 66.5205 45.7654 66.997 45.2889 67.7963C44.7817 68.6417 44.6587 69.7945 44.6587 71.3008Z" fill="#414042"/>
<path d="M13 325.039H1.96388L1.96388 322.487C1.96388 321.335 2.04073 320.474 2.24055 319.936C2.67093 318.814 3.65465 318.122 4.89967 318.122C5.94488 318.122 6.821 318.614 7.31286 319.398C7.80472 320.182 7.86621 321.319 7.86621 322.841V323.932H13V325.039ZM3.03982 321.98L3.03982 323.932H6.79026C6.80563 323.302 6.79026 322.672 6.79026 322.103C6.79026 321.15 6.72878 320.412 6.32914 319.92C6.02173 319.536 5.45301 319.275 4.89967 319.275C4.33096 319.275 3.77761 319.552 3.45483 319.967C3.08594 320.458 3.03982 321.119 3.03982 321.98ZM6.32914 309.01H4.83819V307.981H13V309.01H11.6013C12.6772 309.902 13.1998 311.024 13.1998 312.3C13.1998 314.682 11.217 316.481 8.89604 316.481C6.57507 316.481 4.623 314.636 4.623 312.269C4.623 310.947 5.19171 309.825 6.32914 309.01ZM5.63746 312.177C5.63746 314.052 7.17453 315.405 8.92678 315.405C10.6944 315.405 12.2468 314.021 12.2468 312.192C12.2468 310.517 10.9864 308.934 8.95752 308.934C7.06693 308.934 5.63746 310.348 5.63746 312.177ZM4.83819 304.682H1.7948V303.637H4.83819V301.961H5.76043V303.637H13V304.682H5.76043V306.127H4.83819V304.682ZM13 300.549H4.83819V299.504H13V300.549ZM1.47202 300.042C1.47202 299.565 1.85628 299.166 2.33277 299.166C2.80926 299.166 3.2089 299.565 3.2089 300.042C3.2089 300.518 2.80926 300.903 2.33277 300.903C1.84091 300.903 1.47202 300.503 1.47202 300.042ZM9.00363 289.295V296.642C10.8789 296.596 12.2468 295.32 12.2468 293.568C12.2468 291.862 11.2785 291.047 10.2948 290.448L10.7559 289.571C12.3852 290.401 13.1998 291.677 13.1998 293.46C13.1998 296.165 11.1248 297.718 8.94215 297.718C6.71341 297.718 4.623 296.073 4.623 293.522C4.623 291.201 6.2984 289.326 9.00363 289.295ZM8.08139 296.534V290.448C6.39062 290.878 5.63746 292.092 5.63746 293.506C5.63746 294.967 6.42136 296.058 8.08139 296.534ZM4.83819 286.292H6.2984C5.19171 285.446 4.623 284.432 4.623 283.233C4.623 281.45 5.85265 280.205 8.41955 280.205H13V281.25H8.55788C6.63655 281.25 5.57598 281.849 5.57598 283.433C5.57598 284.309 5.96025 285.031 6.68267 285.584C7.48194 286.199 8.28121 286.292 9.57235 286.292H13V287.337H4.83819V286.292ZM4.83819 277.018H1.7948V275.972H4.83819L4.83819 274.297H5.76043L5.76043 275.972H13V277.018H5.76043V278.462H4.83819V277.018ZM12.047 273.515L11.2939 272.854C11.8779 272.332 12.2007 271.763 12.2007 271.148C12.2007 270.349 11.6166 269.642 10.8481 269.642C10.3716 269.642 9.92587 269.918 9.71068 270.318C8.66548 272.193 8.21973 273.146 6.79026 273.146C5.49913 273.146 4.623 272.147 4.623 270.902C4.623 270.011 5.05338 269.334 5.72969 268.643L6.42136 269.319C5.94488 269.811 5.63746 270.303 5.63746 270.964C5.63746 271.64 6.11395 272.193 6.72878 272.193C7.14379 272.193 7.6049 271.932 7.82009 271.563C8.91141 269.688 9.32642 268.643 10.802 268.643C12.0778 268.643 13.2152 269.626 13.2152 271.102C13.2152 272.009 12.8002 272.931 12.047 273.515ZM16.1971 259.327V260.48C14.4141 261.233 11.9241 261.71 9.26493 261.71C6.46748 261.71 3.77761 261.187 1.47202 260.173L1.47202 258.959C3.43946 259.927 6.20618 260.557 9.14197 260.557C11.8165 260.557 14.3372 260.111 16.1971 259.327ZM1.47202 248.535L1.47202 247.644L13.7685 255.682V256.682L2.56333 249.365C2.80926 250.395 2.88612 251.486 2.88612 252.639C2.88612 252.701 2.87075 252.87 2.87075 252.931C3.27038 252.639 3.67002 252.47 4.28485 252.47C5.57598 252.47 6.88248 253.5 6.88248 255.098C6.88248 256.589 5.69894 257.665 4.30022 257.665C2.71704 257.665 1.68721 256.359 1.68721 255.083C1.68721 254.499 2.02536 253.807 2.02536 252.055C2.02536 250.395 1.68721 249.304 1.47202 248.535ZM2.64019 255.068C2.64019 255.975 3.37798 256.712 4.28485 256.712C5.37616 256.712 5.9295 255.882 5.9295 255.068C5.9295 254.238 5.37616 253.423 4.28485 253.423C3.45483 253.423 2.64019 254.238 2.64019 255.068ZM10.7251 251.64C8.98826 251.64 8.12751 250.333 8.12751 249.042C8.12751 247.736 8.98826 246.445 10.7251 246.445C12.0316 246.445 13.3228 247.736 13.3228 249.042C13.3228 250.472 12.1546 251.64 10.7251 251.64ZM10.7251 247.398C9.71068 247.398 9.08049 248.335 9.08049 249.211C9.08049 249.965 9.55698 250.687 10.7251 250.687C11.632 250.687 12.3544 249.949 12.3544 249.042C12.3544 248.135 11.632 247.398 10.7251 247.398ZM1.47202 244.809V243.657C3.23964 242.919 5.71432 242.458 8.38881 242.458C11.1863 242.458 13.8915 242.965 16.1971 243.964V245.178C14.2297 244.21 11.4783 243.534 8.52714 243.534C5.83728 243.534 3.33187 244.026 1.47202 244.809Z" fill="#414042"/>
<path d="M202.204 124.424H102.264V495.132H202.204V124.424Z" fill="url(#paint1_linear_317_9923)"/>
<path d="M59.3184 69.8633H65.012" stroke="#414042" stroke-width="0.653695" stroke-miterlimit="10"/>
<path d="M202.358 503.839V495.046" stroke="#414042" stroke-width="0.653695" stroke-miterlimit="10"/>
<path d="M473.573 503.839V495.046" stroke="#414042" stroke-width="0.653695" stroke-miterlimit="10"/>
<path d="M747.109 503.839V495.046" stroke="#414042" stroke-width="0.653695" stroke-miterlimit="10"/>
<path d="M65.0127 494.446V68.9429" stroke="#414042" stroke-width="0.653695" stroke-miterlimit="10"/>
<path d="M572.913 101.182H472.973V495.132H572.913V101.182Z" fill="#D4DDDA"/>
<path d="M472.973 97.6953H375.357V495.132H472.973V97.6953Z" fill="url(#paint2_linear_317_9923)"/>
<path d="M844.843 103.506H747.227V495.132H844.843V103.506Z" fill="#D4DDDA"/>
<path d="M747.227 105.83H647.287V495.132H747.227V105.83Z" fill="url(#paint3_linear_317_9923)"/>
<path d="M299.82 105.83H202.204V495.132H299.82V105.83Z" fill="#D4DDDA"/>
<path d="M242.31 95.5175L238.96 100.513L238.053 99.9289L241.035 95.4099C240.727 95.5022 240.358 95.6098 239.897 95.6098C238.068 95.6098 236.777 94.1188 236.777 92.3204C236.777 90.2762 238.376 88.9235 240.205 88.9235C242.203 88.9235 243.555 90.5067 243.555 92.259C243.555 93.3195 243.094 94.3494 242.31 95.5175ZM240.159 94.6414C241.434 94.6414 242.479 93.5962 242.479 92.3204C242.479 91.0447 241.45 89.9995 240.159 89.9995C238.883 89.9995 237.853 91.0293 237.853 92.3204C237.853 93.5962 238.883 94.6414 240.159 94.6414ZM248.439 90.2762H246.702L247.363 89.2002H249.546V100.236H248.439V90.2762ZM255.351 98.5763C255.843 98.5763 256.273 98.9913 256.273 99.5139C256.273 100.037 255.858 100.452 255.351 100.452C254.829 100.452 254.429 100.021 254.429 99.5139C254.429 99.0067 254.844 98.5763 255.351 98.5763ZM257.693 97.6694L263.841 88.9235H264.072V96.5935H265.409V97.6694H264.072V100.236H262.965V97.6694H257.693ZM259.722 96.5935H262.965V92.013L259.722 96.5935Z" fill="#414042"/>
<path d="M415.461 86.2216L412.11 91.2171L411.203 90.633L414.185 86.114C413.878 86.2063 413.509 86.3139 413.048 86.3139C411.218 86.3139 409.927 84.8229 409.927 83.0245C409.927 80.9803 411.526 79.6276 413.355 79.6276C415.353 79.6276 416.706 81.2108 416.706 82.9631C416.706 84.0236 416.245 85.0535 415.461 86.2216ZM413.309 85.3455C414.585 85.3455 415.63 84.3003 415.63 83.0245C415.63 81.7488 414.6 80.7036 413.309 80.7036C412.033 80.7036 411.003 81.7334 411.003 83.0245C411.003 84.3003 412.033 85.3455 413.309 85.3455ZM423.833 82.4712C423.833 81.5336 423.019 80.7036 421.82 80.7036C420.744 80.7036 420.129 81.303 419.699 82.4558H418.577C418.992 80.5652 420.267 79.6276 421.804 79.6276C423.587 79.6276 424.986 80.9034 424.986 82.4712C424.986 83.4088 424.51 84.1773 423.572 84.7307C424.879 85.2687 425.586 86.4368 425.586 87.6511C425.586 89.4956 424.125 91.2171 421.835 91.2171C419.929 91.2171 418.607 90.1258 418.208 87.9893H419.299C419.668 89.388 420.421 90.1412 421.851 90.1412C423.464 90.1412 424.51 89.0037 424.51 87.728C424.51 86.9133 424.049 86.1602 423.28 85.7452C422.65 85.407 421.989 85.3609 421.282 85.3301V84.3157C423.034 84.2081 423.833 83.4857 423.833 82.4712ZM428.502 89.2804C428.993 89.2804 429.424 89.6954 429.424 90.218C429.424 90.7406 429.009 91.1556 428.502 91.1556C427.979 91.1556 427.579 90.7252 427.579 90.218C427.579 89.7108 427.994 89.2804 428.502 89.2804ZM433.226 79.9043H438.006V80.9803H434.071L433.533 83.9622C433.81 83.8853 434.209 83.7623 434.824 83.7623C436.899 83.7623 438.313 85.3148 438.313 87.3437C438.313 89.4648 436.838 91.2017 434.44 91.2017C432.565 91.2017 431.304 89.9567 431.074 88.2659H432.211C432.488 89.6186 433.518 90.1873 434.517 90.1873C435.931 90.1873 437.161 88.9884 437.161 87.2976C437.161 85.8066 436.146 84.7768 434.563 84.7768C433.702 84.7768 432.949 85.0688 432.211 85.3763L433.226 79.9043Z" fill="#414042"/>
<path d="M688.555 95.5175L685.204 100.513L684.297 99.9289L687.279 95.4099C686.971 95.5022 686.602 95.6098 686.141 95.6098C684.312 95.6098 683.021 94.1188 683.021 92.3204C683.021 90.2762 684.62 88.9235 686.449 88.9235C688.447 88.9235 689.8 90.5067 689.8 92.259C689.8 93.3195 689.338 94.3494 688.555 95.5175ZM686.403 94.6414C687.678 94.6414 688.724 93.5962 688.724 92.3204C688.724 91.0447 687.694 89.9995 686.403 89.9995C685.127 89.9995 684.097 91.0293 684.097 92.3204C684.097 93.5962 685.127 94.6414 686.403 94.6414ZM691.24 94.7029C691.24 93.9344 691.271 93.1505 691.424 92.3819C691.855 90.1686 693.192 88.9235 694.99 88.9235C696.374 88.9235 697.588 89.7535 698.234 91.2599C698.664 92.2436 698.787 93.381 698.787 94.7029C698.787 96.0248 698.649 97.1776 698.234 98.1613C697.588 99.6676 696.374 100.513 694.99 100.513C693.761 100.513 692.746 99.9289 692.07 98.8069C691.424 97.7463 691.24 96.3937 691.24 94.7029ZM692.316 94.7183C692.316 96.24 692.439 97.4081 692.946 98.2535C693.423 99.0528 694.206 99.4985 695.006 99.4985C696.604 99.4985 697.757 97.9615 697.757 94.7183C697.757 91.4904 696.62 89.938 695.006 89.938C694.191 89.938 693.423 90.4145 692.946 91.2138C692.439 92.0591 692.316 93.2119 692.316 94.7183ZM701.595 98.5763C702.087 98.5763 702.518 98.9913 702.518 99.5139C702.518 100.037 702.103 100.452 701.595 100.452C701.073 100.452 700.673 100.021 700.673 99.5139C700.673 99.0067 701.088 98.5763 701.595 98.5763ZM704.644 90.2762V89.2002H711.638L705.735 100.513L704.828 100.052L709.931 90.2762H704.644Z" fill="#414042"/>
<path d="M787.333 93.1933L783.982 98.1888L783.075 97.6047L786.057 93.0857C785.75 93.178 785.381 93.2855 784.92 93.2855C783.091 93.2855 781.799 91.7946 781.799 89.9962C781.799 87.9519 783.398 86.5993 785.227 86.5993C787.225 86.5993 788.578 88.1825 788.578 89.9347C788.578 90.9953 788.117 92.0252 787.333 93.1933ZM785.181 92.3172C786.457 92.3172 787.502 91.272 787.502 89.9962C787.502 88.7205 786.472 87.6753 785.181 87.6753C783.905 87.6753 782.875 88.7051 782.875 89.9962C782.875 91.272 783.905 92.3172 785.181 92.3172ZM790.003 97.9121L794.23 93.3624C795.521 91.9637 796.274 91.1183 796.274 89.9194C796.274 88.6436 795.229 87.6138 793.892 87.6138C792.493 87.6138 791.463 88.6436 791.325 90.3344H790.264C790.326 88.1825 791.878 86.5993 793.938 86.5993C795.936 86.5993 797.35 88.0749 797.35 89.9194C797.35 91.4257 796.459 92.4709 795.152 93.885L792.401 96.8362H797.504V97.9121H790.003ZM800.374 96.2521C800.866 96.2521 801.296 96.6671 801.296 97.1897C801.296 97.7123 800.881 98.1273 800.374 98.1273C799.851 98.1273 799.451 97.6969 799.451 97.1897C799.451 96.6825 799.866 96.2521 800.374 96.2521ZM806.235 87.9519H804.498L805.159 86.876H807.342V97.9121H806.235V87.9519Z" fill="#414042"/>
<path d="M514.239 90.8696L510.888 95.8651L509.981 95.281L512.963 90.762C512.656 90.8542 512.287 90.9618 511.826 90.9618C509.997 90.9618 508.706 89.4709 508.706 87.6725C508.706 85.6282 510.304 84.2756 512.133 84.2756C514.132 84.2756 515.484 85.8588 515.484 87.611C515.484 88.6716 515.023 89.7014 514.239 90.8696ZM512.087 89.9935C513.363 89.9935 514.408 88.9483 514.408 87.6725C514.408 86.3967 513.378 85.3515 512.087 85.3515C510.811 85.3515 509.782 86.3814 509.782 87.6725C509.782 88.9483 510.811 89.9935 512.087 89.9935ZM516.909 95.5884L521.136 91.0387C522.427 89.6399 523.18 88.7946 523.18 87.5956C523.18 86.3199 522.135 85.29 520.798 85.29C519.399 85.29 518.369 86.3199 518.231 88.0107H517.17C517.232 85.8588 518.784 84.2756 520.844 84.2756C522.842 84.2756 524.256 85.7512 524.256 87.5956C524.256 89.102 523.365 90.1472 522.058 91.5613L519.307 94.5124H524.41V95.5884H516.909ZM527.28 93.9283C527.772 93.9283 528.202 94.3434 528.202 94.866C528.202 95.3886 527.787 95.8036 527.28 95.8036C526.757 95.8036 526.358 95.3732 526.358 94.866C526.358 94.3587 526.773 93.9283 527.28 93.9283ZM530.329 85.6282V84.5523H537.322L531.42 95.8651L530.513 95.4039L535.616 85.6282H530.329Z" fill="#414042"/>
<path d="M884.354 495.046H65.0127" stroke="#414042" stroke-width="0.653695" stroke-miterlimit="10"/>
<path d="M158.483 531.534V520.498H161.204C162.418 520.498 163.54 520.559 164.632 521.005C166.614 521.804 167.798 523.71 167.798 526.139C167.798 529.29 165.892 531.534 162.341 531.534H158.483ZM159.59 530.458H161.219C163.31 530.458 164.693 530.273 165.677 529.074C166.307 528.306 166.645 527.307 166.645 526.154C166.645 525.032 166.338 524.033 165.723 523.234C164.678 521.866 163.11 521.574 160.712 521.574H159.59V530.458ZM169.768 531.534V520.498H170.874V531.534H169.768ZM178.523 522.019L177.631 522.711C177.032 521.927 176.509 521.358 175.602 521.358C174.649 521.358 174.111 522.035 174.111 522.757C174.111 523.357 174.465 523.987 175.095 524.463C177.17 526 178.692 527.061 178.692 528.844C178.692 530.396 177.385 531.81 175.587 531.81C174.065 531.81 173.066 530.965 172.251 529.474L173.189 528.905C173.85 530.12 174.649 530.734 175.495 530.734C176.647 530.734 177.539 529.889 177.539 528.859C177.539 527.645 176.401 526.953 173.896 524.924C173.373 524.509 172.958 523.633 172.958 522.803C172.958 521.281 174.142 520.221 175.633 520.221C176.985 520.221 177.8 521.036 178.523 522.019ZM191.327 522.542L190.451 523.203C189.483 521.927 188.099 521.297 186.516 521.297C183.903 521.297 181.705 523.234 181.705 526.046C181.705 528.782 183.795 530.781 186.577 530.781C188.115 530.781 189.421 530.15 190.451 528.951L191.327 529.612C190.19 531.042 188.514 531.795 186.501 531.795C182.812 531.795 180.552 529.197 180.552 525.954C180.552 522.696 183.073 520.221 186.501 520.221C188.53 520.221 190.236 521.02 191.327 522.542ZM198.804 520.221C202.155 520.221 204.707 522.726 204.707 526.016C204.707 529.259 202.171 531.81 198.897 531.81C195.5 531.81 193.071 529.151 193.071 526.062C193.071 522.772 195.623 520.221 198.804 520.221ZM198.866 521.297C196.437 521.297 194.224 523.234 194.224 526.062C194.224 528.782 196.376 530.734 198.866 530.734C201.448 530.734 203.554 528.767 203.554 526C203.554 523.203 201.31 521.297 198.866 521.297ZM210.811 531.534L206.077 520.498H207.276L210.934 529.028L214.654 520.498H215.853L211.057 531.534H210.811ZM217.715 531.534V520.498H224.017V521.574H218.821V525.032H224.017V526.108H218.821V530.458H224.017V531.534H217.715ZM226.002 531.534V520.498H228.538C229.691 520.498 230.567 520.574 231.105 520.774C232.242 521.205 232.918 522.188 232.918 523.433C232.918 523.987 232.842 524.309 232.596 524.801C232.027 525.954 230.92 526.4 229.091 526.4L233.072 531.534H231.704L227.739 526.4H227.108V531.534H226.002ZM229.368 521.574H227.108V525.324C227.723 525.324 228.353 525.339 228.937 525.339C229.89 525.339 230.628 525.247 231.105 524.863C231.504 524.54 231.766 524.002 231.766 523.433C231.766 522.357 231.028 521.574 229.368 521.574ZM242.122 521.574H240.385L241.046 520.498H243.229V531.534H242.122V521.574Z" fill="#414042"/>
<path d="M130.774 450.996L136.41 444.929C138.132 443.064 139.136 441.937 139.136 440.339C139.136 438.638 137.742 437.264 135.959 437.264C134.094 437.264 132.721 438.638 132.537 440.892H131.123C131.205 438.023 133.275 435.912 136.021 435.912C138.685 435.912 140.57 437.879 140.57 440.339C140.57 442.347 139.382 443.741 137.64 445.626L133.971 449.561H140.775V450.996H130.774ZM146.733 437.715H144.417L145.299 436.281H148.209V450.996H146.733V437.715ZM153.388 447.573L161.586 435.912H161.893V446.138H163.676V447.573H161.893V450.996H160.417V447.573H153.388ZM156.093 446.138H160.417V440.031L156.093 446.138ZM171.028 435.912H172.565L166.457 453.004H164.92L171.028 435.912ZM135.247 475.996L140.883 469.929C142.605 468.064 143.609 466.937 143.609 465.339C143.609 463.638 142.215 462.264 140.432 462.264C138.567 462.264 137.194 463.638 137.01 465.892H135.596C135.678 463.023 137.748 460.912 140.494 460.912C143.158 460.912 145.044 462.879 145.044 465.339C145.044 467.347 143.855 468.741 142.113 470.626L138.444 474.561H145.249V475.996H135.247ZM146.513 472.573L154.711 460.912H155.018V471.138H156.801V472.573H155.018V475.996H153.543V472.573H146.513ZM149.218 471.138H153.543V465.031L149.218 471.138ZM160.382 467.572L164.87 460.912L166.059 461.691L162.103 467.716C162.452 467.593 162.903 467.45 163.599 467.45C166.038 467.45 167.78 469.458 167.78 471.835C167.78 474.582 165.608 476.365 163.19 476.365C160.525 476.365 158.722 474.233 158.722 471.917C158.722 470.483 159.337 469.13 160.382 467.572ZM163.251 468.741C161.55 468.741 160.156 470.134 160.156 471.835C160.156 473.536 161.55 474.93 163.251 474.93C164.952 474.93 166.346 473.536 166.346 471.835C166.346 470.134 164.973 468.741 163.251 468.741Z" fill="white"/>
<path d="M138.26 110.392C138.26 108.87 139.674 107.517 141.549 107.517C143.363 107.517 144.7 108.87 144.7 110.422C144.7 111.437 144.193 112.205 143.148 112.774C144.485 113.45 145.223 114.311 145.223 115.664C145.223 117.416 143.947 119.091 141.472 119.091C139.059 119.091 137.768 117.462 137.768 115.756C137.768 114.342 138.567 113.45 139.905 112.774C138.798 112.205 138.26 111.345 138.26 110.392ZM141.503 108.593C140.304 108.593 139.413 109.408 139.413 110.407C139.413 111.437 140.443 112.313 141.534 112.313C142.779 112.313 143.624 111.314 143.624 110.376C143.624 109.531 142.902 108.593 141.503 108.593ZM141.549 113.327C139.966 113.327 138.844 114.542 138.844 115.787C138.844 117.001 139.843 118.077 141.488 118.077C143.102 118.077 144.147 116.955 144.147 115.679C144.147 114.511 143.056 113.327 141.549 113.327ZM146.848 108.87V107.794H153.841L147.939 119.107L147.032 118.646L152.135 108.87H146.848ZM156.573 117.17C157.065 117.17 157.495 117.585 157.495 118.108C157.495 118.63 157.08 119.045 156.573 119.045C156.05 119.045 155.651 118.615 155.651 118.108C155.651 117.6 156.066 117.17 156.573 117.17ZM158.991 113.297C158.991 112.528 159.022 111.744 159.176 110.976C159.606 108.762 160.943 107.517 162.742 107.517C164.125 107.517 165.339 108.347 165.985 109.854C166.415 110.837 166.538 111.975 166.538 113.297C166.538 114.619 166.4 115.771 165.985 116.755C165.339 118.261 164.125 119.107 162.742 119.107C161.512 119.107 160.498 118.523 159.821 117.401C159.176 116.34 158.991 114.987 158.991 113.297ZM160.067 113.312C160.067 114.834 160.19 116.002 160.697 116.847C161.174 117.647 161.958 118.092 162.757 118.092C164.356 118.092 165.508 116.555 165.508 113.312C165.508 110.084 164.371 108.532 162.757 108.532C161.943 108.532 161.174 109.008 160.697 109.808C160.19 110.653 160.067 111.806 160.067 113.312Z" fill="#414042"/>
<path d="M410.308 439.703C410.308 438.453 409.222 437.346 407.624 437.346C406.189 437.346 405.369 438.146 404.795 439.683H403.299C403.853 437.162 405.554 435.912 407.603 435.912C409.98 435.912 411.845 437.613 411.845 439.703C411.845 440.953 411.21 441.978 409.96 442.716C411.702 443.433 412.645 444.991 412.645 446.61C412.645 449.069 410.698 451.365 407.644 451.365C405.103 451.365 403.34 449.909 402.807 447.061H404.262C404.754 448.926 405.759 449.93 407.664 449.93C409.816 449.93 411.21 448.413 411.21 446.712C411.21 445.626 410.595 444.622 409.57 444.069C408.73 443.618 407.849 443.556 406.906 443.515V442.163C409.243 442.019 410.308 441.056 410.308 439.703ZM414.073 443.618C414.073 442.593 414.114 441.548 414.319 440.523C414.893 437.572 416.676 435.912 419.074 435.912C420.918 435.912 422.537 437.019 423.398 439.027C423.972 440.339 424.136 441.855 424.136 443.618C424.136 445.38 423.951 446.917 423.398 448.229C422.537 450.237 420.918 451.365 419.074 451.365C417.434 451.365 416.082 450.586 415.18 449.09C414.319 447.676 414.073 445.872 414.073 443.618ZM415.508 443.638C415.508 445.667 415.672 447.225 416.348 448.352C416.983 449.418 418.029 450.012 419.094 450.012C421.226 450.012 422.763 447.962 422.763 443.638C422.763 439.334 421.246 437.264 419.094 437.264C418.008 437.264 416.983 437.9 416.348 438.966C415.672 440.093 415.508 441.63 415.508 443.638ZM433.004 439.703C433.004 438.453 431.918 437.346 430.319 437.346C428.885 437.346 428.065 438.146 427.491 439.683H425.995C426.548 437.162 428.249 435.912 430.299 435.912C432.676 435.912 434.541 437.613 434.541 439.703C434.541 440.953 433.906 441.978 432.656 442.716C434.398 443.433 435.34 444.991 435.34 446.61C435.34 449.069 433.393 451.365 430.34 451.365C427.798 451.365 426.036 449.909 425.503 447.061H426.958C427.45 448.926 428.454 449.93 430.36 449.93C432.512 449.93 433.906 448.413 433.906 446.712C433.906 445.626 433.291 444.622 432.266 444.069C431.426 443.618 430.545 443.556 429.602 443.515V442.163C431.938 442.019 433.004 441.056 433.004 439.703ZM442.958 435.912H444.495L438.388 453.004H436.851L442.958 435.912ZM414.781 464.703C414.781 463.453 413.695 462.346 412.097 462.346C410.662 462.346 409.842 463.146 409.268 464.683H407.772C408.326 462.162 410.027 460.912 412.076 460.912C414.453 460.912 416.318 462.613 416.318 464.703C416.318 465.953 415.683 466.978 414.433 467.716C416.175 468.433 417.118 469.991 417.118 471.61C417.118 474.069 415.171 476.365 412.117 476.365C409.576 476.365 407.813 474.909 407.28 472.061H408.736C409.227 473.926 410.232 474.93 412.138 474.93C414.289 474.93 415.683 473.413 415.683 471.712C415.683 470.626 415.068 469.622 414.044 469.069C413.203 468.618 412.322 468.556 411.379 468.515V467.163C413.716 467.019 414.781 466.056 414.781 464.703ZM418.526 475.996L424.162 469.929C425.883 468.064 426.887 466.937 426.887 465.339C426.887 463.638 425.494 462.264 423.711 462.264C421.846 462.264 420.473 463.638 420.288 465.892H418.874C418.956 463.023 421.026 460.912 423.772 460.912C426.437 460.912 428.322 462.879 428.322 465.339C428.322 467.347 427.133 468.741 425.391 470.626L421.723 474.561H428.527V475.996H418.526ZM429.792 472.573L437.989 460.912H438.297V471.138H440.08V472.573H438.297V475.996H436.821V472.573H429.792ZM432.497 471.138H436.821V465.031L432.497 471.138Z" fill="white"/>
<path d="M681.216 436.281H687.589V437.715H682.343L681.625 441.691C681.994 441.589 682.527 441.425 683.347 441.425C686.114 441.425 687.999 443.495 687.999 446.2C687.999 449.028 686.032 451.344 682.835 451.344C680.334 451.344 678.654 449.684 678.346 447.43H679.863C680.232 449.233 681.605 449.991 682.937 449.991C684.823 449.991 686.462 448.393 686.462 446.138C686.462 444.151 685.109 442.777 682.999 442.777C681.851 442.777 680.847 443.167 679.863 443.577L681.216 436.281ZM694.08 437.715H691.764L692.645 436.281H695.556V450.996H694.08V437.715ZM701.677 437.715V436.281H711.002L703.132 451.365L701.923 450.75L708.727 437.715H701.677ZM718.374 435.912H719.911L713.804 453.004H712.267L718.374 435.912ZM685.689 461.281H692.062V462.715H686.816L686.099 466.691C686.467 466.589 687 466.425 687.82 466.425C690.587 466.425 692.472 468.495 692.472 471.2C692.472 474.028 690.505 476.344 687.308 476.344C684.807 476.344 683.127 474.684 682.819 472.43H684.336C684.705 474.233 686.078 474.991 687.41 474.991C689.296 474.991 690.935 473.393 690.935 471.138C690.935 469.151 689.583 467.777 687.472 467.777C686.324 467.777 685.32 468.167 684.336 468.577L685.689 461.281ZM694.803 462.715V461.281H704.127L696.258 476.365L695.049 475.75L701.853 462.715H694.803ZM705.31 468.618C705.31 467.593 705.351 466.548 705.556 465.523C706.13 462.572 707.913 460.912 710.311 460.912C712.155 460.912 713.774 462.019 714.635 464.027C715.209 465.339 715.373 466.855 715.373 468.618C715.373 470.38 715.188 471.917 714.635 473.229C713.774 475.237 712.155 476.365 710.311 476.365C708.671 476.365 707.319 475.586 706.417 474.09C705.556 472.676 705.31 470.872 705.31 468.618ZM706.745 468.638C706.745 470.667 706.909 472.225 707.585 473.352C708.22 474.418 709.266 475.012 710.331 475.012C712.463 475.012 714 472.962 714 468.638C714 464.334 712.483 462.264 710.331 462.264C709.245 462.264 708.22 462.9 707.585 463.966C706.909 465.093 706.745 466.63 706.745 468.638Z" fill="white"/>
<path d="M229.554 450.996L235.189 444.929C236.911 443.064 237.915 441.937 237.915 440.339C237.915 438.638 236.522 437.264 234.739 437.264C232.874 437.264 231.5 438.638 231.316 440.892H229.902C229.984 438.023 232.054 435.912 234.8 435.912C237.464 435.912 239.35 437.879 239.35 440.339C239.35 442.347 238.161 443.741 236.419 445.626L232.751 449.561H239.555V450.996H229.554ZM240.901 450.996L246.537 444.929C248.259 443.064 249.263 441.937 249.263 440.339C249.263 438.638 247.869 437.264 246.086 437.264C244.221 437.264 242.848 438.638 242.664 440.892H241.25C241.332 438.023 243.402 435.912 246.148 435.912C248.812 435.912 250.698 437.879 250.698 440.339C250.698 442.347 249.509 443.741 247.767 445.626L244.098 449.561H250.903V450.996H240.901ZM252.249 450.996L257.885 444.929C259.607 443.064 260.611 441.937 260.611 440.339C260.611 438.638 259.217 437.264 257.434 437.264C255.569 437.264 254.196 438.638 254.012 440.892H252.598C252.68 438.023 254.75 435.912 257.496 435.912C260.16 435.912 262.045 437.879 262.045 440.339C262.045 442.347 260.857 443.741 259.115 445.626L255.446 449.561H262.25V450.996H252.249ZM269.807 435.912H271.344L265.237 453.004H263.7L269.807 435.912ZM234.027 475.996L239.663 469.929C241.384 468.064 242.388 466.937 242.388 465.339C242.388 463.638 240.995 462.264 239.212 462.264C237.347 462.264 235.974 463.638 235.789 465.892H234.375C234.457 463.023 236.527 460.912 239.273 460.912C241.937 460.912 243.823 462.879 243.823 465.339C243.823 467.347 242.634 468.741 240.892 470.626L237.224 474.561H244.028V475.996H234.027ZM245.293 472.573L253.49 460.912H253.798V471.138H255.581V472.573H253.798V475.996H252.322V472.573H245.293ZM247.998 471.138H252.322V465.031L247.998 471.138ZM264.326 464.703C264.326 463.453 263.24 462.346 261.641 462.346C260.206 462.346 259.387 463.146 258.813 464.683H257.317C257.87 462.162 259.571 460.912 261.62 460.912C263.998 460.912 265.863 462.613 265.863 464.703C265.863 465.953 265.227 466.978 263.977 467.716C265.719 468.433 266.662 469.991 266.662 471.61C266.662 474.069 264.715 476.365 261.661 476.365C259.12 476.365 257.358 474.909 256.825 472.061H258.28C258.772 473.926 259.776 474.93 261.682 474.93C263.834 474.93 265.227 473.413 265.227 471.712C265.227 470.626 264.613 469.622 263.588 469.069C262.748 468.618 261.866 468.556 260.924 468.515V467.163C263.26 467.019 264.326 466.056 264.326 464.703Z" fill="black"/>
<path d="M501.482 450.996L507.118 444.929C508.84 443.064 509.844 441.937 509.844 440.339C509.844 438.638 508.45 437.264 506.667 437.264C504.802 437.264 503.429 438.638 503.245 440.892H501.831C501.913 438.023 503.983 435.912 506.729 435.912C509.393 435.912 511.278 437.879 511.278 440.339C511.278 442.347 510.09 443.741 508.348 445.626L504.679 449.561H511.483V450.996H501.482ZM513.588 439.744C513.588 437.715 515.474 435.912 517.974 435.912C520.392 435.912 522.175 437.715 522.175 439.785C522.175 441.138 521.499 442.163 520.106 442.921C521.889 443.823 522.872 444.97 522.872 446.774C522.872 449.11 521.171 451.344 517.872 451.344C514.654 451.344 512.933 449.172 512.933 446.897C512.933 445.011 513.998 443.823 515.781 442.921C514.306 442.163 513.588 441.015 513.588 439.744ZM517.913 437.346C516.314 437.346 515.125 438.433 515.125 439.765C515.125 441.138 516.499 442.306 517.954 442.306C519.614 442.306 520.741 440.974 520.741 439.724C520.741 438.597 519.778 437.346 517.913 437.346ZM517.974 443.659C515.863 443.659 514.367 445.278 514.367 446.938C514.367 448.557 515.699 449.991 517.892 449.991C520.044 449.991 521.438 448.495 521.438 446.794C521.438 445.237 519.983 443.659 517.974 443.659ZM524.198 443.618C524.198 442.593 524.239 441.548 524.444 440.523C525.018 437.572 526.801 435.912 529.199 435.912C531.044 435.912 532.663 437.019 533.523 439.027C534.097 440.339 534.261 441.855 534.261 443.618C534.261 445.38 534.077 446.917 533.523 448.229C532.663 450.237 531.044 451.365 529.199 451.365C527.56 451.365 526.207 450.586 525.305 449.09C524.444 447.676 524.198 445.872 524.198 443.618ZM525.633 443.638C525.633 445.667 525.797 447.225 526.473 448.352C527.109 449.418 528.154 450.012 529.22 450.012C531.351 450.012 532.888 447.962 532.888 443.638C532.888 439.334 531.371 437.264 529.22 437.264C528.133 437.264 527.109 437.9 526.473 438.966C525.797 440.093 525.633 441.63 525.633 443.638ZM541.736 435.912H543.273L537.165 453.004H535.628L541.736 435.912ZM513.559 464.703C513.559 463.453 512.472 462.346 510.874 462.346C509.439 462.346 508.62 463.146 508.046 464.683H506.55C507.103 462.162 508.804 460.912 510.853 460.912C513.231 460.912 515.096 462.613 515.096 464.703C515.096 465.953 514.46 466.978 513.21 467.716C514.952 468.433 515.895 469.991 515.895 471.61C515.895 474.069 513.948 476.365 510.894 476.365C508.353 476.365 506.591 474.909 506.058 472.061H507.513C508.005 473.926 509.009 474.93 510.915 474.93C513.067 474.93 514.46 473.413 514.46 471.712C514.46 470.626 513.846 469.622 512.821 469.069C511.981 468.618 511.099 468.556 510.157 468.515V467.163C512.493 467.019 513.559 466.056 513.559 464.703ZM517.324 468.618C517.324 467.593 517.365 466.548 517.57 465.523C518.143 462.572 519.926 460.912 522.324 460.912C524.169 460.912 525.788 462.019 526.649 464.027C527.222 465.339 527.386 466.855 527.386 468.618C527.386 470.38 527.202 471.917 526.649 473.229C525.788 475.237 524.169 476.365 522.324 476.365C520.685 476.365 519.332 475.586 518.43 474.09C517.57 472.676 517.324 470.872 517.324 468.618ZM518.758 468.638C518.758 470.667 518.922 472.225 519.599 473.352C520.234 474.418 521.279 475.012 522.345 475.012C524.476 475.012 526.013 472.962 526.013 468.638C526.013 464.334 524.497 462.264 522.345 462.264C521.259 462.264 520.234 462.9 519.599 463.966C518.922 465.093 518.758 466.63 518.758 468.638ZM528.651 475.996L534.287 469.929C536.008 468.064 537.013 466.937 537.013 465.339C537.013 463.638 535.619 462.264 533.836 462.264C531.971 462.264 530.598 463.638 530.414 465.892H528.999C529.081 463.023 531.151 460.912 533.898 460.912C536.562 460.912 538.447 462.879 538.447 465.339C538.447 467.347 537.259 468.741 535.517 470.626L531.848 474.561H538.652V475.996H528.651Z" fill="black"/>
<path d="M777.67 436.281H784.043V437.715H778.797L778.08 441.691C778.448 441.589 778.981 441.425 779.801 441.425C782.568 441.425 784.453 443.495 784.453 446.2C784.453 449.028 782.486 451.344 779.289 451.344C776.788 451.344 775.108 449.684 774.8 447.43H776.317C776.686 449.233 778.059 449.991 779.391 449.991C781.277 449.991 782.916 448.393 782.916 446.138C782.916 444.151 781.564 442.777 779.453 442.777C778.305 442.777 777.301 443.167 776.317 443.577L777.67 436.281ZM785.943 443.618C785.943 442.593 785.984 441.548 786.189 440.523C786.763 437.572 788.546 435.912 790.944 435.912C792.788 435.912 794.407 437.019 795.268 439.027C795.842 440.339 796.006 441.855 796.006 443.618C796.006 445.38 795.822 446.917 795.268 448.229C794.407 450.237 792.788 451.365 790.944 451.365C789.304 451.365 787.952 450.586 787.05 449.09C786.189 447.676 785.943 445.872 785.943 443.618ZM787.378 443.638C787.378 445.667 787.542 447.225 788.218 448.352C788.854 449.418 789.899 450.012 790.964 450.012C793.096 450.012 794.633 447.962 794.633 443.638C794.633 439.334 793.116 437.264 790.964 437.264C789.878 437.264 788.854 437.9 788.218 438.966C787.542 440.093 787.378 441.63 787.378 443.638ZM797.271 450.996L802.907 444.929C804.628 443.064 805.632 441.937 805.632 440.339C805.632 438.638 804.239 437.264 802.456 437.264C800.591 437.264 799.218 438.638 799.033 440.892H797.619C797.701 438.023 799.771 435.912 802.517 435.912C805.181 435.912 807.067 437.879 807.067 440.339C807.067 442.347 805.878 443.741 804.136 445.626L800.468 449.561H807.272V450.996H797.271ZM814.828 435.912H816.365L810.258 453.004H808.721L814.828 435.912ZM782.143 461.281H788.516V462.715H783.27L782.553 466.691C782.922 466.589 783.454 466.425 784.274 466.425C787.041 466.425 788.926 468.495 788.926 471.2C788.926 474.028 786.959 476.344 783.762 476.344C781.261 476.344 779.581 474.684 779.274 472.43H780.79C781.159 474.233 782.532 474.991 783.864 474.991C785.75 474.991 787.389 473.393 787.389 471.138C787.389 469.151 786.037 467.777 783.926 467.777C782.778 467.777 781.774 468.167 780.79 468.577L782.143 461.281ZM790.314 472.573L798.512 460.912H798.819V471.138H800.602V472.573H798.819V475.996H797.344V472.573H790.314ZM793.019 471.138H797.344V465.031L793.019 471.138ZM804.838 461.281H811.212V462.715H805.966L805.248 466.691C805.617 466.589 806.15 466.425 806.97 466.425C809.737 466.425 811.622 468.495 811.622 471.2C811.622 474.028 809.655 476.344 806.457 476.344C803.957 476.344 802.277 474.684 801.969 472.43H803.486C803.855 474.233 805.228 474.991 806.56 474.991C808.445 474.991 810.085 473.393 810.085 471.138C810.085 469.151 808.732 467.777 806.621 467.777C805.474 467.777 804.47 468.167 803.486 468.577L804.838 461.281Z" fill="black"/>
<path d="M430.149 531.534V520.498H432.87C434.084 520.498 435.206 520.559 436.298 521.005C438.281 521.804 439.464 523.71 439.464 526.139C439.464 529.29 437.558 531.534 434.007 531.534H430.149ZM431.256 530.458H432.885C434.976 530.458 436.359 530.273 437.343 529.074C437.973 528.306 438.311 527.307 438.311 526.154C438.311 525.032 438.004 524.033 437.389 523.234C436.344 521.866 434.776 521.574 432.378 521.574H431.256V530.458ZM441.434 531.534V520.498H442.54V531.534H441.434ZM450.189 522.019L449.297 522.711C448.698 521.927 448.175 521.358 447.268 521.358C446.315 521.358 445.777 522.035 445.777 522.757C445.777 523.357 446.131 523.987 446.761 524.463C448.836 526 450.358 527.061 450.358 528.844C450.358 530.396 449.051 531.81 447.253 531.81C445.731 531.81 444.732 530.965 443.917 529.474L444.855 528.905C445.516 530.12 446.315 530.734 447.161 530.734C448.313 530.734 449.205 529.889 449.205 528.859C449.205 527.645 448.067 526.953 445.562 524.924C445.039 524.509 444.624 523.633 444.624 522.803C444.624 521.281 445.808 520.221 447.299 520.221C448.651 520.221 449.466 521.036 450.189 522.019ZM462.993 522.542L462.117 523.203C461.149 521.927 459.765 521.297 458.182 521.297C455.569 521.297 453.371 523.234 453.371 526.046C453.371 528.782 455.461 530.781 458.243 530.781C459.781 530.781 461.087 530.15 462.117 528.951L462.993 529.612C461.856 531.042 460.18 531.795 458.167 531.795C454.478 531.795 452.218 529.197 452.218 525.954C452.218 522.696 454.739 520.221 458.167 520.221C460.196 520.221 461.902 521.02 462.993 522.542ZM470.47 520.221C473.821 520.221 476.373 522.726 476.373 526.016C476.373 529.259 473.837 531.81 470.563 531.81C467.166 531.81 464.737 529.151 464.737 526.062C464.737 522.772 467.289 520.221 470.47 520.221ZM470.532 521.297C468.103 521.297 465.89 523.234 465.89 526.062C465.89 528.782 468.042 530.734 470.532 530.734C473.114 530.734 475.22 528.767 475.22 526C475.22 523.203 472.976 521.297 470.532 521.297ZM482.477 531.534L477.743 520.498H478.942L482.6 529.028L486.32 520.498H487.519L482.723 531.534H482.477ZM489.381 531.534V520.498H495.683V521.574H490.487V525.032H495.683V526.108H490.487V530.458H495.683V531.534H489.381ZM497.668 531.534V520.498H500.204C501.357 520.498 502.233 520.574 502.771 520.774C503.908 521.205 504.584 522.188 504.584 523.433C504.584 523.987 504.508 524.309 504.262 524.801C503.693 525.954 502.586 526.4 500.757 526.4L504.738 531.534H503.37L499.405 526.4H498.774V531.534H497.668ZM501.034 521.574H498.774V525.324C499.389 525.324 500.019 525.339 500.603 525.339C501.556 525.339 502.294 525.247 502.771 524.863C503.17 524.54 503.432 524.002 503.432 523.433C503.432 522.357 502.694 521.574 501.034 521.574ZM510.329 531.534L514.556 526.984C515.847 525.585 516.601 524.74 516.601 523.541C516.601 522.265 515.555 521.235 514.218 521.235C512.819 521.235 511.79 522.265 511.651 523.956H510.591C510.652 521.804 512.205 520.221 514.264 520.221C516.263 520.221 517.677 521.696 517.677 523.541C517.677 525.047 516.785 526.092 515.479 527.507L512.727 530.458H517.83V531.534H510.329Z" fill="#414042"/>
<path d="M691.133 531.534V520.498H693.685C694.838 520.498 695.698 520.574 696.236 520.774C697.359 521.205 698.05 522.188 698.05 523.433C698.05 524.479 697.558 525.355 696.774 525.847C695.991 526.338 694.853 526.4 693.331 526.4H692.24V531.534H691.133ZM694.192 521.574H692.24V525.324C692.87 525.339 693.5 525.324 694.069 525.324C695.022 525.324 695.76 525.262 696.252 524.863C696.636 524.555 696.897 523.987 696.897 523.433C696.897 522.865 696.621 522.311 696.206 521.989C695.714 521.62 695.053 521.574 694.192 521.574ZM703.934 523.157C706.378 523.157 708.192 525.14 708.192 527.476C708.192 529.797 706.393 531.749 703.934 531.749C701.475 531.749 699.676 529.797 699.676 527.476C699.676 525.14 701.49 523.157 703.934 523.157ZM703.934 524.171C702.182 524.171 700.752 525.677 700.752 527.491C700.752 529.274 702.09 530.734 703.934 530.734C705.763 530.734 707.116 529.274 707.116 527.491C707.116 525.677 705.671 524.171 703.934 524.171ZM714.006 523.157C716.45 523.157 718.264 525.14 718.264 527.476C718.264 529.797 716.465 531.749 714.006 531.749C711.547 531.749 709.748 529.797 709.748 527.476C709.748 525.14 711.562 523.157 714.006 523.157ZM714.006 524.171C712.254 524.171 710.824 525.677 710.824 527.491C710.824 529.274 712.162 530.734 714.006 530.734C715.835 530.734 717.188 529.274 717.188 527.491C717.188 525.677 715.743 524.171 714.006 524.171ZM720.051 531.534V520.221H721.096V531.534H720.051ZM731.321 527.537H723.973C724.019 529.413 725.295 530.781 727.048 530.781C728.754 530.781 729.568 529.812 730.168 528.828L731.044 529.29C730.214 530.919 728.938 531.734 727.155 531.734C724.45 531.734 722.897 529.658 722.897 527.476C722.897 525.247 724.542 523.157 727.094 523.157C729.415 523.157 731.29 524.832 731.321 527.537ZM724.081 526.615H730.168C729.737 524.924 728.523 524.171 727.109 524.171C725.649 524.171 724.557 524.955 724.081 526.615ZM740.395 531.534V530.135C739.504 531.211 738.382 531.734 737.106 531.734C734.723 531.734 732.925 529.751 732.925 527.43C732.925 525.109 734.77 523.157 737.137 523.157C738.459 523.157 739.581 523.725 740.395 524.863V520.221H741.44V531.534H740.395ZM737.229 524.171C735.354 524.171 734.001 525.708 734.001 527.46C734.001 529.228 735.384 530.781 737.214 530.781C738.889 530.781 740.457 529.52 740.457 527.491C740.457 525.601 739.058 524.171 737.229 524.171ZM755.165 524.863V523.372H756.195V531.534H755.165V530.135C754.274 531.211 753.152 531.734 751.876 531.734C749.493 531.734 747.695 529.751 747.695 527.43C747.695 525.109 749.539 523.157 751.907 523.157C753.228 523.157 754.35 523.725 755.165 524.863ZM751.999 524.171C750.124 524.171 748.771 525.708 748.771 527.46C748.771 529.228 750.154 530.781 751.983 530.781C753.659 530.781 755.242 529.52 755.242 527.491C755.242 525.601 753.828 524.171 751.999 524.171ZM759.601 523.372V524.832C760.447 523.725 761.461 523.157 762.66 523.157C764.443 523.157 765.688 524.386 765.688 526.953V531.534H764.643V527.092C764.643 525.17 764.043 524.11 762.46 524.11C761.584 524.11 760.862 524.494 760.308 525.216C759.694 526.016 759.601 526.815 759.601 528.106V531.534H758.556V523.372H759.601ZM775.039 524.863V523.372H776.069V531.534H775.039V530.135C774.147 531.211 773.025 531.734 771.75 531.734C769.367 531.734 767.569 529.751 767.569 527.43C767.569 525.109 769.413 523.157 771.78 523.157C773.102 523.157 774.224 523.725 775.039 524.863ZM771.873 524.171C769.997 524.171 768.645 525.708 768.645 527.46C768.645 529.228 770.028 530.781 771.857 530.781C773.533 530.781 775.116 529.52 775.116 527.491C775.116 525.601 773.702 524.171 771.873 524.171ZM778.276 531.534V520.221H779.321V531.534H778.276ZM783.982 530.919L780.631 523.372H781.738L784.55 529.658L787.271 523.372H788.393L783.521 534.516H782.414L783.982 530.919ZM788.979 530.581L789.64 529.828C790.163 530.412 790.731 530.734 791.346 530.734C792.146 530.734 792.853 530.15 792.853 529.382C792.853 528.905 792.576 528.46 792.176 528.244C790.301 527.199 789.348 526.753 789.348 525.324C789.348 524.033 790.347 523.157 791.592 523.157C792.484 523.157 793.16 523.587 793.852 524.263L793.175 524.955C792.684 524.479 792.192 524.171 791.531 524.171C790.854 524.171 790.301 524.648 790.301 525.262C790.301 525.677 790.562 526.139 790.931 526.354C792.806 527.445 793.852 527.86 793.852 529.336C793.852 530.611 792.868 531.749 791.392 531.749C790.486 531.749 789.563 531.334 788.979 530.581ZM795.569 531.534V523.372H796.614V531.534H795.569ZM796.076 520.006C796.552 520.006 796.952 520.39 796.952 520.866C796.952 521.343 796.552 521.743 796.076 521.743C795.599 521.743 795.215 521.343 795.215 520.866C795.215 520.375 795.615 520.006 796.076 520.006ZM798.015 530.581L798.676 529.828C799.199 530.412 799.768 530.734 800.383 530.734C801.182 530.734 801.889 530.15 801.889 529.382C801.889 528.905 801.612 528.46 801.213 528.244C799.337 527.199 798.384 526.753 798.384 525.324C798.384 524.033 799.383 523.157 800.628 523.157C801.52 523.157 802.196 523.587 802.888 524.263L802.212 524.955C801.72 524.479 801.228 524.171 800.567 524.171C799.891 524.171 799.337 524.648 799.337 525.262C799.337 525.677 799.599 526.139 799.968 526.354C801.843 527.445 802.888 527.86 802.888 529.336C802.888 530.611 801.904 531.749 800.429 531.749C799.522 531.749 798.6 531.334 798.015 530.581Z" fill="#414042"/>
<defs>
<linearGradient id="paint0_linear_317_9923" x1="556.022" y1="2.2325e-06" x2="556.022" y2="19.6109" gradientUnits="userSpaceOnUse">
<stop stop-color="#982384"/>
<stop offset="1" stop-color="#009656"/>
</linearGradient>
<linearGradient id="paint1_linear_317_9923" x1="152.234" y1="124.424" x2="152.234" y2="495.132" gradientUnits="userSpaceOnUse">
<stop stop-color="#982384"/>
<stop offset="1" stop-color="#009656"/>
</linearGradient>
<linearGradient id="paint2_linear_317_9923" x1="424.165" y1="97.6953" x2="424.165" y2="495.132" gradientUnits="userSpaceOnUse">
<stop stop-color="#982384"/>
<stop offset="1" stop-color="#009656"/>
</linearGradient>
<linearGradient id="paint3_linear_317_9923" x1="697.257" y1="105.83" x2="697.257" y2="495.132" gradientUnits="userSpaceOnUse">
<stop stop-color="#982384"/>
<stop offset="1" stop-color="#009656"/>
</linearGradient>
</defs>
</svg>
