<svg width="885" height="504" viewBox="0 0 885 504" fill="none" xmlns="http://www.w3.org/2000/svg">
<path d="M565.828 19.6109V0L546.217 0V19.6109H565.828Z" fill="url(#paint0_linear_317_10069)"/>
<path d="M579.96 7.31286L576.687 1.96388H577.978L580.621 6.26766L583.281 1.96388H584.556L581.267 7.31286L584.771 13H583.48L580.621 8.37344L577.732 13H576.441L579.96 7.31286ZM588.927 12.3852L585.576 4.83819H586.683L589.496 11.1248L592.217 4.83819H593.339L588.466 15.9819H587.359L588.927 12.3852ZM601.81 13V11.6013C600.918 12.6772 599.796 13.1998 598.521 13.1998C596.138 13.1998 594.34 11.217 594.34 8.89604C594.34 6.57507 596.184 4.623 598.551 4.623C599.873 4.623 600.995 5.19171 601.81 6.32914V1.68721H602.855V13H601.81ZM598.644 5.63746C596.768 5.63746 595.416 7.17453 595.416 8.92678C595.416 10.6944 596.799 12.2468 598.628 12.2468C600.304 12.2468 601.871 10.9864 601.871 8.95752C601.871 7.06693 600.473 5.63746 598.644 5.63746ZM612.317 6.32914V4.83819H613.347V13H612.317V11.6013C611.425 12.6772 610.303 13.1998 609.028 13.1998C606.645 13.1998 604.847 11.217 604.847 8.89604C604.847 6.57507 606.691 4.623 609.058 4.623C610.38 4.623 611.502 5.19171 612.317 6.32914ZM609.15 5.63746C607.275 5.63746 605.923 7.17453 605.923 8.92678C605.923 10.6944 607.306 12.2468 609.135 12.2468C610.811 12.2468 612.394 10.9864 612.394 8.95752C612.394 7.06693 610.98 5.63746 609.15 5.63746ZM615.554 13V1.68721H616.599V13H615.554ZM619.907 11.4937V13H618.862V1.68721H619.907V6.23692C620.799 5.16097 621.905 4.623 623.181 4.623C625.563 4.623 627.377 6.60581 627.377 8.92678C627.377 11.2324 625.533 13.2152 623.15 13.2152C621.828 13.2152 620.737 12.6311 619.907 11.4937ZM623.073 12.2007C624.964 12.2007 626.301 10.6483 626.301 8.89604C626.301 7.12841 624.903 5.57598 623.073 5.57598C621.398 5.57598 619.83 6.821 619.83 8.8653C619.83 10.7559 621.229 12.2007 623.073 12.2007ZM636.363 6.32914V4.83819H637.393V13H636.363V11.6013C635.472 12.6772 634.35 13.1998 633.074 13.1998C630.692 13.1998 628.893 11.217 628.893 8.89604C628.893 6.57507 630.738 4.623 633.105 4.623C634.427 4.623 635.549 5.19171 636.363 6.32914ZM633.197 5.63746C631.322 5.63746 629.969 7.17453 629.969 8.92678C629.969 10.6944 631.353 12.2468 633.182 12.2468C634.857 12.2468 636.44 10.9864 636.44 8.95752C636.44 7.06693 635.026 5.63746 633.197 5.63746ZM646.37 1.18466H647.44V5.06728H646.776V1.86711L645.319 5.06728H644.876L643.474 1.86711V5.06728H642.81V1.18466H643.898L645.097 3.87759L646.37 1.18466ZM638.642 1.18466H642.054V1.80256H640.68V5.06728H640.016V1.80256H638.642V1.18466Z" fill="#414042"/>
<path d="M714.652 19.6109V0L695.041 0V19.6109H714.652Z" fill="#D4DDDA"/>
<path d="M729.984 13L725.249 1.96388H726.448L730.107 10.4946L733.826 1.96388H735.025L730.23 13H729.984ZM742.213 6.32914V4.83819H743.243V13H742.213V11.6013C741.321 12.6772 740.199 13.1998 738.924 13.1998C736.541 13.1998 734.743 11.217 734.743 8.89604C734.743 6.57507 736.587 4.623 738.954 4.623C740.276 4.623 741.398 5.19171 742.213 6.32914ZM739.047 5.63746C737.171 5.63746 735.819 7.17453 735.819 8.92678C735.819 10.6944 737.202 12.2468 739.031 12.2468C740.707 12.2468 742.29 10.9864 742.29 8.95752C742.29 7.06693 740.876 5.63746 739.047 5.63746ZM746.649 4.83819V6.2984C747.495 5.19171 748.509 4.623 749.708 4.623C751.491 4.623 752.736 5.85265 752.736 8.41955V13H751.691V8.55788C751.691 6.63655 751.091 5.57598 749.508 5.57598C748.632 5.57598 747.91 5.96025 747.356 6.68267C746.741 7.48194 746.649 8.28121 746.649 9.57235V13H745.604V4.83819H746.649ZM762.071 10.8174L762.917 11.3553C762.117 12.5696 760.734 13.1998 759.089 13.1998C756.4 13.1998 754.601 11.2631 754.601 8.98826C754.601 6.59044 756.476 4.623 759.166 4.623C760.734 4.623 762.164 5.26857 762.917 6.52896L762.071 7.05156C761.349 6.09858 760.35 5.63746 759.12 5.63746C757.045 5.63746 755.677 7.15916 755.677 8.91141C755.677 10.6944 757.03 12.2468 759.136 12.2468C760.319 12.2468 761.303 11.7703 762.071 10.8174ZM768.811 4.623C771.255 4.623 773.068 6.60581 773.068 8.94215C773.068 11.2631 771.27 13.2152 768.811 13.2152C766.351 13.2152 764.553 11.2631 764.553 8.94215C764.553 6.60581 766.367 4.623 768.811 4.623ZM768.811 5.63746C767.059 5.63746 765.629 7.14379 765.629 8.95752C765.629 10.7405 766.966 12.2007 768.811 12.2007C770.64 12.2007 771.993 10.7405 771.993 8.95752C771.993 7.14379 770.548 5.63746 768.811 5.63746ZM781.603 9.43401V13H780.558V8.81919C780.558 8.18899 780.497 7.66639 780.481 7.29749C780.435 6.40599 779.713 5.63746 778.637 5.63746C777.914 5.63746 777.192 5.99099 776.731 6.59044C776.147 7.3436 776.039 8.31195 776.039 9.54161V13H774.994V4.83819H776.039V6.23692C776.762 5.19171 777.668 4.623 778.837 4.623C780.082 4.623 780.973 5.26857 781.419 6.59044C782.141 5.28394 783.217 4.623 784.416 4.623C786.107 4.623 787.198 5.83728 787.198 8.15825V13H786.153V8.54251C786.153 7.94306 786.076 7.46657 786.061 7.15916C786.015 6.43674 785.323 5.63746 784.216 5.63746C783.202 5.63746 782.31 6.25229 781.895 7.29749C781.634 7.95843 781.603 8.68085 781.603 9.43401ZM791.909 12.3852L788.558 4.83819H789.665L792.478 11.1248L795.198 4.83819H796.32L791.448 15.9819H790.341L791.909 12.3852ZM804.761 10.8174L805.606 11.3553C804.807 12.5696 803.424 13.1998 801.779 13.1998C799.089 13.1998 797.291 11.2631 797.291 8.98826C797.291 6.59044 799.166 4.623 801.856 4.623C803.424 4.623 804.853 5.26857 805.606 6.52896L804.761 7.05156C804.038 6.09858 803.039 5.63746 801.81 5.63746C799.735 5.63746 798.367 7.15916 798.367 8.91141C798.367 10.6944 799.719 12.2468 801.825 12.2468C803.009 12.2468 803.992 11.7703 804.761 10.8174ZM807.489 13V4.83819H808.534V13H807.489ZM807.996 1.47202C808.472 1.47202 808.872 1.85628 808.872 2.33277C808.872 2.80926 808.472 3.2089 807.996 3.2089C807.519 3.2089 807.135 2.80926 807.135 2.33277C807.135 1.84091 807.535 1.47202 807.996 1.47202ZM811.749 4.83819V6.2984C812.595 5.19171 813.609 4.623 814.808 4.623C816.591 4.623 817.836 5.85265 817.836 8.41955V13H816.791V8.55788C816.791 6.63655 816.191 5.57598 814.608 5.57598C813.732 5.57598 813.01 5.96025 812.456 6.68267C811.841 7.48194 811.749 8.28121 811.749 9.57235V13H810.704V4.83819H811.749ZM824.036 1.68721H825.189L820.608 14.5063H819.455L824.036 1.68721ZM826.641 13V1.68721H827.687V13H826.641ZM829.734 13V4.83819H830.779V13H829.734ZM830.241 1.47202C830.718 1.47202 831.117 1.85628 831.117 2.33277C831.117 2.80926 830.718 3.2089 830.241 3.2089C829.765 3.2089 829.38 2.80926 829.38 2.33277C829.38 1.84091 829.78 1.47202 830.241 1.47202ZM833.995 4.83819V6.2984C834.84 5.19171 835.855 4.623 837.053 4.623C838.836 4.623 840.081 5.85265 840.081 8.41955V13H839.036V8.55788C839.036 6.63655 838.437 5.57598 836.854 5.57598C835.977 5.57598 835.255 5.96025 834.702 6.68267C834.087 7.48194 833.995 8.28121 833.995 9.57235V13H832.949V4.83819H833.995ZM850.37 9.00363H843.023C843.069 10.8789 844.345 12.2468 846.097 12.2468C847.803 12.2468 848.618 11.2785 849.217 10.2948L850.093 10.7559C849.263 12.3852 847.987 13.1998 846.204 13.1998C843.499 13.1998 841.947 11.1248 841.947 8.94215C841.947 6.71341 843.591 4.623 846.143 4.623C848.464 4.623 850.339 6.2984 850.37 9.00363ZM843.13 8.08139H849.217C848.787 6.39062 847.572 5.63746 846.158 5.63746C844.698 5.63746 843.607 6.42136 843.13 8.08139ZM851.652 5.76043V4.83819H857.661L853.035 12.0778H857.508V13H851.221L855.848 5.76043H851.652ZM862.731 4.623C865.175 4.623 866.988 6.60581 866.988 8.94215C866.988 11.2631 865.19 13.2152 862.731 13.2152C860.271 13.2152 858.473 11.2631 858.473 8.94215C858.473 6.60581 860.287 4.623 862.731 4.623ZM862.731 5.63746C860.979 5.63746 859.549 7.14379 859.549 8.95752C859.549 10.7405 860.886 12.2007 862.731 12.2007C864.56 12.2007 865.913 10.7405 865.913 8.95752C865.913 7.14379 864.468 5.63746 862.731 5.63746ZM868.776 13V1.68721H869.821V13H868.776ZM871.868 13V4.83819H872.913V13H871.868ZM872.375 1.47202C872.852 1.47202 873.252 1.85628 873.252 2.33277C873.252 2.80926 872.852 3.2089 872.375 3.2089C871.899 3.2089 871.515 2.80926 871.515 2.33277C871.515 1.84091 871.914 1.47202 872.375 1.47202ZM882.2 13V11.6013C881.309 12.6772 880.187 13.1998 878.911 13.1998C876.528 13.1998 874.73 11.217 874.73 8.89604C874.73 6.57507 876.575 4.623 878.942 4.623C880.264 4.623 881.386 5.19171 882.2 6.32914V1.68721H883.245V13H882.2ZM879.034 5.63746C877.159 5.63746 875.806 7.17453 875.806 8.92678C875.806 10.6944 877.189 12.2468 879.019 12.2468C880.694 12.2468 882.262 10.9864 882.262 8.95752C882.262 7.06693 880.863 5.63746 879.034 5.63746Z" fill="#414042"/>
<path d="M337.383 464.119V34.791" stroke="#878787" stroke-width="0.490272" stroke-miterlimit="10" stroke-dasharray="1.96 2.61"/>
<path d="M609.758 464.119V34.791" stroke="#878787" stroke-width="0.490272" stroke-miterlimit="10" stroke-dasharray="1.96 2.61"/>
<path d="M59.3184 377.007H65.012" stroke="#414042" stroke-width="0.653695" stroke-miterlimit="10"/>
<path d="M59.3184 462.046H65.012" stroke="#414042" stroke-width="0.653695" stroke-miterlimit="10"/>
<path d="M59.3184 419.523H65.012" stroke="#414042" stroke-width="0.653695" stroke-miterlimit="10"/>
<path d="M59.3184 334.491H65.012" stroke="#414042" stroke-width="0.653695" stroke-miterlimit="10"/>
<path d="M59.3184 291.976H65.012" stroke="#414042" stroke-width="0.653695" stroke-miterlimit="10"/>
<path d="M59.3184 249.451H65.012" stroke="#414042" stroke-width="0.653695" stroke-miterlimit="10"/>
<path d="M59.3184 206.935H65.012" stroke="#414042" stroke-width="0.653695" stroke-miterlimit="10"/>
<path d="M59.3184 164.418H65.012" stroke="#414042" stroke-width="0.653695" stroke-miterlimit="10"/>
<path d="M59.3184 121.904H65.012" stroke="#414042" stroke-width="0.653695" stroke-miterlimit="10"/>
<path d="M59.3184 79.3862H65.012" stroke="#414042" stroke-width="0.653695" stroke-miterlimit="10"/>
<path d="M43.2351 460.978C43.2351 460.209 43.2659 459.425 43.4196 458.657C43.85 456.443 45.1872 455.198 46.9856 455.198C48.3689 455.198 49.5832 456.028 50.2288 457.535C50.6591 458.518 50.7821 459.656 50.7821 460.978C50.7821 462.3 50.6438 463.452 50.2288 464.436C49.5832 465.943 48.3689 466.788 46.9856 466.788C45.7559 466.788 44.7415 466.204 44.0651 465.082C43.4196 464.021 43.2351 462.669 43.2351 460.978ZM44.3111 460.993C44.3111 462.515 44.434 463.683 44.9413 464.528C45.4178 465.328 46.2017 465.773 47.0009 465.773C48.5995 465.773 49.7523 464.236 49.7523 460.993C49.7523 457.765 48.6149 456.213 47.0009 456.213C46.1863 456.213 45.4178 456.689 44.9413 457.489C44.434 458.334 44.3111 459.487 44.3111 460.993Z" fill="#414042"/>
<path d="M38.2005 414.282H36.4636L37.1245 413.206H39.3071V424.242H38.2005V414.282ZM43.2683 418.709C43.2683 417.94 43.2991 417.156 43.4528 416.388C43.8832 414.174 45.2204 412.929 47.0188 412.929C48.4021 412.929 49.6164 413.759 50.262 415.266C50.6924 416.249 50.8153 417.387 50.8153 418.709C50.8153 420.031 50.677 421.183 50.262 422.167C49.6164 423.673 48.4021 424.519 47.0188 424.519C45.7891 424.519 44.7747 423.935 44.0983 422.813C43.4528 421.752 43.2683 420.4 43.2683 418.709ZM44.3443 418.724C44.3443 420.246 44.4672 421.414 44.9745 422.259C45.451 423.059 46.2349 423.504 47.0341 423.504C48.6327 423.504 49.7855 421.967 49.7855 418.724C49.7855 415.496 48.6481 413.944 47.0341 413.944C46.2195 413.944 45.451 414.42 44.9745 415.22C44.4672 416.065 44.3443 417.218 44.3443 418.724Z" fill="#414042"/>
<path d="M40.4446 331.234C40.4446 330.296 39.6299 329.466 38.431 329.466C37.3551 329.466 36.7403 330.066 36.3099 331.219H35.1878C35.6028 329.328 36.8786 328.39 38.4157 328.39C40.1986 328.39 41.5974 329.666 41.5974 331.234C41.5974 332.172 41.1209 332.94 40.1833 333.493C41.4898 334.031 42.1968 335.2 42.1968 336.414C42.1968 338.258 40.7366 339.98 38.4464 339.98C36.5404 339.98 35.2186 338.888 34.8189 336.752H35.9102C36.2791 338.151 37.0323 338.904 38.4618 338.904C40.0757 338.904 41.1209 337.766 41.1209 336.491C41.1209 335.676 40.6598 334.923 39.8912 334.508C39.261 334.17 38.6001 334.124 37.893 334.093V333.078C39.6453 332.971 40.4446 332.248 40.4446 331.234ZM43.2683 334.17C43.2683 333.401 43.2991 332.617 43.4528 331.849C43.8832 329.635 45.2204 328.39 47.0188 328.39C48.4021 328.39 49.6164 329.22 50.262 330.727C50.6924 331.71 50.8153 332.848 50.8153 334.17C50.8153 335.492 50.677 336.644 50.262 337.628C49.6164 339.134 48.4021 339.98 47.0188 339.98C45.7891 339.98 44.7747 339.396 44.0983 338.274C43.4528 337.213 43.2683 335.86 43.2683 334.17ZM44.3443 334.185C44.3443 335.707 44.4672 336.875 44.9745 337.72C45.451 338.52 46.2349 338.965 47.0341 338.965C48.6327 338.965 49.7855 337.428 49.7855 334.185C49.7855 330.957 48.6481 329.405 47.0341 329.405C46.2195 329.405 45.451 329.881 44.9745 330.681C44.4672 331.526 44.3443 332.679 44.3443 334.185Z" fill="#414042"/>
<path d="M37.063 244.129H41.8433V245.205H37.9084L37.3704 248.187C37.6471 248.11 38.0468 247.987 38.6616 247.987C40.7366 247.987 42.1507 249.539 42.1507 251.568C42.1507 253.689 40.6751 255.426 38.2773 255.426C36.4021 255.426 35.1417 254.181 34.9111 252.491H36.0486C36.3252 253.843 37.3551 254.412 38.3542 254.412C39.7683 254.412 40.9979 253.213 40.9979 251.522C40.9979 250.031 39.9835 249.001 38.4003 249.001C37.5395 249.001 36.7864 249.293 36.0486 249.601L37.063 244.129ZM43.2683 249.632C43.2683 248.863 43.2991 248.079 43.4528 247.311C43.8832 245.097 45.2204 243.852 47.0188 243.852C48.4021 243.852 49.6164 244.682 50.262 246.189C50.6924 247.172 50.8153 248.31 50.8153 249.632C50.8153 250.953 50.677 252.106 50.262 253.09C49.6164 254.596 48.4021 255.442 47.0188 255.442C45.7891 255.442 44.7747 254.858 44.0983 253.736C43.4528 252.675 43.2683 251.322 43.2683 249.632ZM44.3443 249.647C44.3443 251.169 44.4672 252.337 44.9745 253.182C45.451 253.981 46.2349 254.427 47.0341 254.427C48.6327 254.427 49.7855 252.89 49.7855 249.647C49.7855 246.419 48.6481 244.867 47.0341 244.867C46.2195 244.867 45.451 245.343 44.9745 246.142C44.4672 246.988 44.3443 248.141 44.3443 249.647Z" fill="#414042"/>
<path d="M35.3876 160.666V159.59H42.3813L36.479 170.903L35.5721 170.442L40.6751 160.666H35.3876ZM43.2683 165.093C43.2683 164.325 43.2991 163.541 43.4528 162.772C43.8832 160.559 45.2204 159.314 47.0188 159.314C48.4021 159.314 49.6164 160.144 50.262 161.65C50.6924 162.634 50.8153 163.771 50.8153 165.093C50.8153 166.415 50.677 167.568 50.262 168.551C49.6164 170.058 48.4021 170.903 47.0188 170.903C45.7891 170.903 44.7747 170.319 44.0983 169.197C43.4528 168.136 43.2683 166.784 43.2683 165.093ZM44.3443 165.108C44.3443 166.63 44.4672 167.798 44.9745 168.644C45.451 169.443 46.2349 169.889 47.0341 169.889C48.6327 169.889 49.7855 168.352 49.7855 165.108C49.7855 161.881 48.6481 160.328 47.0341 160.328C46.2195 160.328 45.451 160.805 44.9745 161.604C44.4672 162.449 44.3443 163.602 44.3443 165.108Z" fill="#414042"/>
<path d="M40.5829 81.3691L37.2321 86.3646L36.3252 85.7805L39.3071 81.2615C38.9997 81.3537 38.6308 81.4613 38.1697 81.4613C36.3406 81.4613 35.0495 79.9704 35.0495 78.172C35.0495 76.1277 36.648 74.7751 38.4771 74.7751C40.4753 74.7751 41.8279 76.3583 41.8279 78.1105C41.8279 79.1711 41.3668 80.2009 40.5829 81.3691ZM38.431 80.493C39.7068 80.493 40.752 79.4478 40.752 78.172C40.752 76.8962 39.7222 75.851 38.431 75.851C37.1553 75.851 36.1254 76.8809 36.1254 78.172C36.1254 79.4478 37.1553 80.493 38.431 80.493ZM43.2683 80.5545C43.2683 79.7859 43.2991 79.002 43.4528 78.2335C43.8832 76.0201 45.2204 74.7751 47.0188 74.7751C48.4021 74.7751 49.6164 75.6051 50.262 77.1114C50.6924 78.0952 50.8153 79.2326 50.8153 80.5545C50.8153 81.8763 50.677 83.0291 50.262 84.0129C49.6164 85.5192 48.4021 86.3646 47.0188 86.3646C45.7891 86.3646 44.7747 85.7805 44.0983 84.6584C43.4528 83.5978 43.2683 82.2452 43.2683 80.5545ZM44.3443 80.5698C44.3443 82.0915 44.4672 83.2597 44.9745 84.1051C45.451 84.9044 46.2349 85.3501 47.0341 85.3501C48.6327 85.3501 49.7855 83.813 49.7855 80.5698C49.7855 77.342 48.6481 75.7896 47.0341 75.7896C46.2195 75.7896 45.451 76.266 44.9745 77.0653C44.4672 77.9107 44.3443 79.0635 44.3443 80.5698Z" fill="#414042"/>
<path d="M34.7421 381.973L38.969 377.423C40.2601 376.024 41.0133 375.179 41.0133 373.98C41.0133 372.704 39.9681 371.674 38.6308 371.674C37.2321 371.674 36.2023 372.704 36.0639 374.395H35.0034C35.0649 372.243 36.6173 370.66 38.677 370.66C40.6751 370.66 42.0892 372.135 42.0892 373.98C42.0892 375.486 41.1977 376.531 39.8912 377.946L37.1399 380.897H42.2429V381.973H34.7421ZM43.2683 376.439C43.2683 375.671 43.2991 374.887 43.4528 374.118C43.8832 371.905 45.2204 370.66 47.0188 370.66C48.4021 370.66 49.6164 371.49 50.262 372.996C50.6924 373.98 50.8153 375.117 50.8153 376.439C50.8153 377.761 50.677 378.914 50.262 379.898C49.6164 381.404 48.4021 382.249 47.0188 382.249C45.7891 382.249 44.7747 381.665 44.0983 380.543C43.4528 379.483 43.2683 378.13 43.2683 376.439ZM44.3443 376.455C44.3443 377.976 44.4672 379.144 44.9745 379.99C45.451 380.789 46.2349 381.235 47.0341 381.235C48.6327 381.235 49.7855 379.698 49.7855 376.455C49.7855 373.227 48.6481 371.674 47.0341 371.674C46.2195 371.674 45.451 372.151 44.9745 372.95C44.4672 373.795 44.3443 374.948 44.3443 376.455Z" fill="#414042"/>
<path d="M34.6806 294.867L40.8288 286.121H41.0594V293.791H42.3966V294.867H41.0594V297.434H39.9527V294.867H34.6806ZM36.7095 293.791H39.9527V289.211L36.7095 293.791ZM43.2683 291.901C43.2683 291.132 43.2991 290.348 43.4528 289.58C43.8832 287.366 45.2204 286.121 47.0188 286.121C48.4021 286.121 49.6164 286.951 50.262 288.458C50.6924 289.441 50.8153 290.579 50.8153 291.901C50.8153 293.223 50.677 294.375 50.262 295.359C49.6164 296.865 48.4021 297.711 47.0188 297.711C45.7891 297.711 44.7747 297.127 44.0983 296.005C43.4528 294.944 43.2683 293.591 43.2683 291.901ZM44.3443 291.916C44.3443 293.438 44.4672 294.606 44.9745 295.451C45.451 296.251 46.2349 296.696 47.0341 296.696C48.6327 296.696 49.7855 295.159 49.7855 291.916C49.7855 288.688 48.6481 287.136 47.0341 287.136C46.2195 287.136 45.451 287.612 44.9745 288.412C44.4672 289.257 44.3443 290.41 44.3443 291.916Z" fill="#414042"/>
<path d="M36.5712 206.579L39.9373 201.583L40.8288 202.167L37.8623 206.686C38.1236 206.594 38.4618 206.486 38.9844 206.486C40.8135 206.486 42.12 207.993 42.12 209.776C42.12 211.835 40.4907 213.173 38.677 213.173C36.6788 213.173 35.3262 211.574 35.3262 209.837C35.3262 208.761 35.7873 207.747 36.5712 206.579ZM38.7231 207.455C37.4473 207.455 36.4021 208.5 36.4021 209.776C36.4021 211.052 37.4473 212.097 38.7231 212.097C39.9988 212.097 41.044 211.052 41.044 209.776C41.044 208.5 40.0142 207.455 38.7231 207.455ZM43.2683 207.363C43.2683 206.594 43.2991 205.81 43.4528 205.042C43.8832 202.828 45.2204 201.583 47.0188 201.583C48.4021 201.583 49.6164 202.413 50.262 203.92C50.6924 204.903 50.8153 206.041 50.8153 207.363C50.8153 208.684 50.677 209.837 50.262 210.821C49.6164 212.327 48.4021 213.173 47.0188 213.173C45.7891 213.173 44.7747 212.589 44.0983 211.467C43.4528 210.406 43.2683 209.053 43.2683 207.363ZM44.3443 207.378C44.3443 208.9 44.4672 210.068 44.9745 210.913C45.451 211.712 46.2349 212.158 47.0341 212.158C48.6327 212.158 49.7855 210.621 49.7855 207.378C49.7855 204.15 48.6481 202.598 47.0341 202.598C46.2195 202.598 45.451 203.074 44.9745 203.873C44.4672 204.719 44.3443 205.872 44.3443 207.378Z" fill="#414042"/>
<path d="M35.3108 119.918C35.3108 118.397 36.7249 117.044 38.6001 117.044C40.4138 117.044 41.7511 118.397 41.7511 119.949C41.7511 120.964 41.2438 121.732 40.1986 122.301C41.5359 122.977 42.2737 123.838 42.2737 125.191C42.2737 126.943 40.9979 128.618 38.5232 128.618C36.1101 128.618 34.8189 126.989 34.8189 125.283C34.8189 123.869 35.6182 122.977 36.9554 122.301C35.8488 121.732 35.3108 120.871 35.3108 119.918ZM38.554 118.12C37.3551 118.12 36.4636 118.935 36.4636 119.934C36.4636 120.964 37.4934 121.84 38.5847 121.84C39.8298 121.84 40.6751 120.841 40.6751 119.903C40.6751 119.058 39.9527 118.12 38.554 118.12ZM38.6001 122.854C37.0169 122.854 35.8949 124.069 35.8949 125.314C35.8949 126.528 36.894 127.604 38.5386 127.604C40.1525 127.604 41.1977 126.482 41.1977 125.206C41.1977 124.038 40.1064 122.854 38.6001 122.854ZM43.2683 122.824C43.2683 122.055 43.2991 121.271 43.4528 120.503C43.8832 118.289 45.2204 117.044 47.0188 117.044C48.4021 117.044 49.6164 117.874 50.262 119.38C50.6924 120.364 50.8153 121.502 50.8153 122.824C50.8153 124.145 50.677 125.298 50.262 126.282C49.6164 127.788 48.4021 128.634 47.0188 128.634C45.7891 128.634 44.7747 128.05 44.0983 126.927C43.4528 125.867 43.2683 124.514 43.2683 122.824ZM44.3443 122.839C44.3443 124.361 44.4672 125.529 44.9745 126.374C45.451 127.173 46.2349 127.619 47.0341 127.619C48.6327 127.619 49.7855 126.082 49.7855 122.839C49.7855 119.611 48.6481 118.059 47.0341 118.059C46.2195 118.059 45.451 118.535 44.9745 119.334C44.4672 120.18 44.3443 121.333 44.3443 122.839Z" fill="#414042"/>
<path d="M30.004 33.8587H28.2671L28.9281 32.7827H31.1107V43.8188H30.004V33.8587ZM35.0719 38.2854C35.0719 37.5169 35.1026 36.733 35.2563 35.9644C35.6867 33.7511 37.024 32.5061 38.8223 32.5061C40.2057 32.5061 41.42 33.3361 42.0655 34.8424C42.4959 35.8261 42.6189 36.9635 42.6189 38.2854C42.6189 39.6073 42.4805 40.7601 42.0655 41.7438C41.42 43.2501 40.2057 44.0955 38.8223 44.0955C37.5927 44.0955 36.5782 43.5114 35.9019 42.3894C35.2563 41.3288 35.0719 39.9762 35.0719 38.2854ZM36.1478 38.3008C36.1478 39.8225 36.2708 40.9906 36.778 41.836C37.2545 42.6353 38.0384 43.0811 38.8377 43.0811C40.4362 43.0811 41.589 41.544 41.589 38.3008C41.589 35.073 40.4516 33.5205 38.8377 33.5205C38.0231 33.5205 37.2545 33.997 36.778 34.7963C36.2708 35.6417 36.1478 36.7945 36.1478 38.3008ZM43.5828 38.2854C43.5828 37.5169 43.6135 36.733 43.7672 35.9644C44.1976 33.7511 45.5349 32.5061 47.3332 32.5061C48.7166 32.5061 49.9309 33.3361 50.5764 34.8424C51.0068 35.8261 51.1298 36.9635 51.1298 38.2854C51.1298 39.6073 50.9914 40.7601 50.5764 41.7438C49.9309 43.2501 48.7166 44.0955 47.3332 44.0955C46.1036 44.0955 45.0891 43.5114 44.4128 42.3894C43.7672 41.3288 43.5828 39.9762 43.5828 38.2854ZM44.6587 38.3008C44.6587 39.8225 44.7817 40.9906 45.2889 41.836C45.7654 42.6353 46.5493 43.0811 47.3486 43.0811C48.9471 43.0811 50.0999 41.544 50.0999 38.3008C50.0999 35.073 48.9625 33.5205 47.3486 33.5205C46.5339 33.5205 45.7654 33.997 45.2889 34.7963C44.7817 35.6417 44.6587 36.7945 44.6587 38.3008Z" fill="#414042"/>
<path d="M13 292.039H1.96388L1.96388 289.487C1.96388 288.335 2.04073 287.474 2.24055 286.936C2.67093 285.814 3.65465 285.122 4.89967 285.122C5.94488 285.122 6.821 285.614 7.31286 286.398C7.80472 287.182 7.86621 288.319 7.86621 289.841V290.932H13V292.039ZM3.03982 288.98L3.03982 290.932H6.79026C6.80563 290.302 6.79026 289.672 6.79026 289.103C6.79026 288.15 6.72878 287.412 6.32914 286.92C6.02173 286.536 5.45301 286.275 4.89967 286.275C4.33096 286.275 3.77761 286.552 3.45483 286.967C3.08594 287.458 3.03982 288.119 3.03982 288.98ZM6.32914 276.01H4.83819V274.981H13V276.01H11.6013C12.6772 276.902 13.1998 278.024 13.1998 279.3C13.1998 281.682 11.217 283.481 8.89604 283.481C6.57507 283.481 4.623 281.636 4.623 279.269C4.623 277.947 5.19171 276.825 6.32914 276.01ZM5.63746 279.177C5.63746 281.052 7.17453 282.405 8.92678 282.405C10.6944 282.405 12.2468 281.021 12.2468 279.192C12.2468 277.517 10.9864 275.934 8.95752 275.934C7.06693 275.934 5.63746 277.348 5.63746 279.177ZM4.83819 271.682H1.7948V270.637H4.83819V268.961H5.76043V270.637H13V271.682H5.76043V273.127H4.83819V271.682ZM13 267.549H4.83819V266.504H13V267.549ZM1.47202 267.042C1.47202 266.565 1.85628 266.166 2.33277 266.166C2.80926 266.166 3.2089 266.565 3.2089 267.042C3.2089 267.518 2.80926 267.903 2.33277 267.903C1.84091 267.903 1.47202 267.503 1.47202 267.042ZM9.00363 256.295V263.642C10.8789 263.596 12.2468 262.32 12.2468 260.568C12.2468 258.862 11.2785 258.047 10.2948 257.448L10.7559 256.571C12.3852 257.401 13.1998 258.677 13.1998 260.46C13.1998 263.165 11.1248 264.718 8.94215 264.718C6.71341 264.718 4.623 263.073 4.623 260.522C4.623 258.201 6.2984 256.326 9.00363 256.295ZM8.08139 263.534V257.448C6.39062 257.878 5.63746 259.092 5.63746 260.506C5.63746 261.967 6.42136 263.058 8.08139 263.534ZM4.83819 253.292H6.2984C5.19171 252.446 4.623 251.432 4.623 250.233C4.623 248.45 5.85265 247.205 8.41955 247.205H13V248.25H8.55788C6.63655 248.25 5.57598 248.849 5.57598 250.433C5.57598 251.309 5.96025 252.031 6.68267 252.584C7.48194 253.199 8.28121 253.292 9.57235 253.292H13V254.337H4.83819V253.292ZM4.83819 244.018H1.7948V242.972H4.83819L4.83819 241.297H5.76043L5.76043 242.972H13V244.018H5.76043V245.462H4.83819V244.018ZM12.047 240.515L11.2939 239.854C11.8779 239.332 12.2007 238.763 12.2007 238.148C12.2007 237.349 11.6166 236.642 10.8481 236.642C10.3716 236.642 9.92587 236.918 9.71068 237.318C8.66548 239.193 8.21973 240.146 6.79026 240.146C5.49913 240.146 4.623 239.147 4.623 237.902C4.623 237.011 5.05338 236.334 5.72969 235.643L6.42136 236.319C5.94488 236.811 5.63746 237.303 5.63746 237.964C5.63746 238.64 6.11395 239.193 6.72878 239.193C7.14379 239.193 7.6049 238.932 7.82009 238.563C8.91141 236.688 9.32642 235.643 10.802 235.643C12.0778 235.643 13.2152 236.626 13.2152 238.102C13.2152 239.009 12.8002 239.931 12.047 240.515ZM16.1971 226.327V227.48C14.4141 228.233 11.9241 228.71 9.26493 228.71C6.46748 228.71 3.77761 228.187 1.47202 227.173L1.47202 225.959C3.43946 226.927 6.20618 227.557 9.14197 227.557C11.8165 227.557 14.3372 227.111 16.1971 226.327ZM1.47202 215.535L1.47202 214.644L13.7685 222.682V223.682L2.56333 216.365C2.80926 217.395 2.88612 218.486 2.88612 219.639C2.88612 219.701 2.87075 219.87 2.87075 219.931C3.27038 219.639 3.67002 219.47 4.28485 219.47C5.57598 219.47 6.88248 220.5 6.88248 222.098C6.88248 223.589 5.69894 224.665 4.30022 224.665C2.71704 224.665 1.68721 223.359 1.68721 222.083C1.68721 221.499 2.02536 220.807 2.02536 219.055C2.02536 217.395 1.68721 216.304 1.47202 215.535ZM2.64019 222.068C2.64019 222.975 3.37798 223.712 4.28485 223.712C5.37616 223.712 5.9295 222.882 5.9295 222.068C5.9295 221.238 5.37616 220.423 4.28485 220.423C3.45483 220.423 2.64019 221.238 2.64019 222.068ZM10.7251 218.64C8.98826 218.64 8.12751 217.333 8.12751 216.042C8.12751 214.736 8.98826 213.445 10.7251 213.445C12.0316 213.445 13.3228 214.736 13.3228 216.042C13.3228 217.472 12.1546 218.64 10.7251 218.64ZM10.7251 214.398C9.71068 214.398 9.08049 215.335 9.08049 216.211C9.08049 216.965 9.55698 217.687 10.7251 217.687C11.632 217.687 12.3544 216.949 12.3544 216.042C12.3544 215.135 11.632 214.398 10.7251 214.398ZM1.47202 211.809V210.657C3.23964 209.919 5.71432 209.458 8.38881 209.458C11.1863 209.458 13.8915 209.965 16.1971 210.964V212.178C14.2297 211.21 11.4783 210.534 8.52714 210.534C5.83728 210.534 3.33187 211.026 1.47202 211.809Z" fill="#414042"/>
<path d="M202 110H102V462H202V110Z" fill="url(#paint1_linear_317_10069)"/>
<path d="M59.3184 36.8633H65.012" stroke="#414042" stroke-width="0.653695" stroke-miterlimit="10"/>
<path d="M202.359 470.838V462.046" stroke="#414042" stroke-width="0.653695" stroke-miterlimit="10"/>
<path d="M473.572 470.838V462.046" stroke="#414042" stroke-width="0.653695" stroke-miterlimit="10"/>
<path d="M747.109 470.838V462.046" stroke="#414042" stroke-width="0.653695" stroke-miterlimit="10"/>
<path d="M65.0137 461.446V35.9429" stroke="#414042" stroke-width="0.653695" stroke-miterlimit="10"/>
<path d="M573 128H473V462H573V128Z" fill="#D4DDDA"/>
<path d="M473 136H375V462H473V136Z" fill="url(#paint2_linear_317_10069)"/>
<path d="M845 122H747V462H845V122Z" fill="#D4DDDA"/>
<path d="M747 122H647V462H747V122Z" fill="url(#paint3_linear_317_10069)"/>
<path d="M300 115H202V462H300V115Z" fill="#D4DDDA"/>
<path d="M237.038 101.562C237.038 100.04 238.452 98.6872 240.328 98.6872C242.141 98.6872 243.479 100.04 243.479 101.592C243.479 102.607 242.971 103.375 241.926 103.944C243.263 104.62 244.001 105.481 244.001 106.834C244.001 108.586 242.725 110.261 240.251 110.261C237.838 110.261 236.546 108.632 236.546 106.926C236.546 105.512 237.346 104.62 238.683 103.944C237.576 103.375 237.038 102.514 237.038 101.562ZM240.281 99.7632C239.083 99.7632 238.191 100.578 238.191 101.577C238.191 102.607 239.221 103.483 240.312 103.483C241.557 103.483 242.403 102.484 242.403 101.546C242.403 100.701 241.68 99.7632 240.281 99.7632ZM240.328 104.497C238.744 104.497 237.622 105.712 237.622 106.957C237.622 108.171 238.621 109.247 240.266 109.247C241.88 109.247 242.925 108.125 242.925 106.849C242.925 105.681 241.834 104.497 240.328 104.497ZM248.439 100.04H246.702L247.363 98.9639H249.546V110H248.439V100.04ZM255.351 108.34C255.843 108.34 256.273 108.755 256.273 109.278C256.273 109.8 255.858 110.215 255.351 110.215C254.829 110.215 254.429 109.785 254.429 109.278C254.429 108.77 254.844 108.34 255.351 108.34ZM258.323 101.562C258.323 100.04 259.737 98.6872 261.612 98.6872C263.426 98.6872 264.763 100.04 264.763 101.592C264.763 102.607 264.256 103.375 263.211 103.944C264.548 104.62 265.286 105.481 265.286 106.834C265.286 108.586 264.01 110.261 261.535 110.261C259.122 110.261 257.831 108.632 257.831 106.926C257.831 105.512 258.63 104.62 259.968 103.944C258.861 103.375 258.323 102.514 258.323 101.562ZM261.566 99.7632C260.367 99.7632 259.476 100.578 259.476 101.577C259.476 102.607 260.506 103.483 261.597 103.483C262.842 103.483 263.687 102.484 263.687 101.546C263.687 100.701 262.965 99.7632 261.566 99.7632ZM261.612 104.497C260.029 104.497 258.907 105.712 258.907 106.957C258.907 108.171 259.906 109.247 261.551 109.247C263.165 109.247 264.21 108.125 264.21 106.849C264.21 105.681 263.119 104.497 261.612 104.497Z" fill="#414042"/>
<path d="M410.266 121.04V119.964H417.259L411.357 131.277L410.45 130.816L415.553 121.04H410.266ZM419.96 124.683L423.326 119.687L424.218 120.271L421.251 124.79C421.512 124.698 421.851 124.59 422.373 124.59C424.202 124.59 425.509 126.097 425.509 127.88C425.509 129.939 423.879 131.277 422.066 131.277C420.068 131.277 418.715 129.678 418.715 127.941C418.715 126.865 419.176 125.851 419.96 124.683ZM422.112 125.559C420.836 125.559 419.791 126.604 419.791 127.88C419.791 129.156 420.836 130.201 422.112 130.201C423.388 130.201 424.433 129.156 424.433 127.88C424.433 126.604 423.403 125.559 422.112 125.559ZM428.502 129.34C428.993 129.34 429.424 129.755 429.424 130.278C429.424 130.8 429.009 131.215 428.502 131.215C427.979 131.215 427.579 130.785 427.579 130.278C427.579 129.77 427.994 129.34 428.502 129.34ZM431.473 122.562C431.473 121.04 432.887 119.687 434.763 119.687C436.576 119.687 437.914 121.04 437.914 122.592C437.914 123.607 437.406 124.375 436.361 124.944C437.699 125.62 438.436 126.481 438.436 127.834C438.436 129.586 437.161 131.261 434.686 131.261C432.273 131.261 430.982 129.632 430.982 127.926C430.982 126.512 431.781 125.62 433.118 124.944C432.011 124.375 431.473 123.514 431.473 122.562ZM434.717 120.763C433.518 120.763 432.626 121.578 432.626 122.577C432.626 123.607 433.656 124.483 434.747 124.483C435.992 124.483 436.838 123.484 436.838 122.546C436.838 121.701 436.115 120.763 434.717 120.763ZM434.763 125.497C433.18 125.497 432.057 126.712 432.057 127.957C432.057 129.171 433.057 130.247 434.701 130.247C436.315 130.247 437.36 129.125 437.36 127.849C437.36 126.681 436.269 125.497 434.763 125.497Z" fill="#414042"/>
<path d="M683.359 107.04V105.964H690.353L684.451 117.277L683.544 116.816L688.647 107.04H683.359ZM697.065 112.281L693.715 117.277L692.808 116.693L695.79 112.174C695.482 112.266 695.113 112.373 694.652 112.373C692.823 112.373 691.532 110.882 691.532 109.084C691.532 107.04 693.131 105.687 694.96 105.687C696.958 105.687 698.31 107.27 698.31 109.023C698.31 110.083 697.849 111.113 697.065 112.281ZM694.914 111.405C696.189 111.405 697.235 110.36 697.235 109.084C697.235 107.808 696.205 106.763 694.914 106.763C693.638 106.763 692.608 107.793 692.608 109.084C692.608 110.36 693.638 111.405 694.914 111.405ZM701.595 115.34C702.087 115.34 702.518 115.755 702.518 116.278C702.518 116.8 702.103 117.215 701.595 117.215C701.073 117.215 700.673 116.785 700.673 116.278C700.673 115.77 701.088 115.34 701.595 115.34ZM704.644 107.04V105.964H711.638L705.735 117.277L704.828 116.816L709.931 107.04H704.644Z" fill="#414042"/>
<path d="M782.137 107.04V105.964H789.13L783.228 117.277L782.321 116.816L787.424 107.04H782.137ZM795.843 112.281L792.492 117.277L791.585 116.693L794.567 112.174C794.26 112.266 793.891 112.373 793.43 112.373C791.6 112.373 790.309 110.882 790.309 109.084C790.309 107.04 791.908 105.687 793.737 105.687C795.735 105.687 797.088 107.27 797.088 109.023C797.088 110.083 796.627 111.113 795.843 112.281ZM793.691 111.405C794.967 111.405 796.012 110.36 796.012 109.084C796.012 107.808 794.982 106.763 793.691 106.763C792.415 106.763 791.385 107.793 791.385 109.084C791.385 110.36 792.415 111.405 793.691 111.405ZM800.373 115.34C800.865 115.34 801.295 115.755 801.295 116.278C801.295 116.8 800.88 117.215 800.373 117.215C799.85 117.215 799.45 116.785 799.45 116.278C799.45 115.77 799.865 115.34 800.373 115.34ZM803.344 108.562C803.344 107.04 804.759 105.687 806.634 105.687C808.448 105.687 809.785 107.04 809.785 108.592C809.785 109.607 809.278 110.375 808.232 110.944C809.57 111.62 810.307 112.481 810.307 113.834C810.307 115.586 809.032 117.261 806.557 117.261C804.144 117.261 802.853 115.632 802.853 113.926C802.853 112.512 803.652 111.62 804.989 110.944C803.882 110.375 803.344 109.514 803.344 108.562ZM806.588 106.763C805.389 106.763 804.497 107.578 804.497 108.577C804.497 109.607 805.527 110.483 806.618 110.483C807.863 110.483 808.709 109.484 808.709 108.546C808.709 107.701 807.986 106.763 806.588 106.763ZM806.634 111.497C805.051 111.497 803.929 112.712 803.929 113.957C803.929 115.171 804.928 116.247 806.572 116.247C808.186 116.247 809.231 115.125 809.231 113.849C809.231 112.681 808.14 111.497 806.634 111.497Z" fill="#414042"/>
<path d="M509.045 116.04V114.964H516.038L510.136 126.277L509.229 125.816L514.332 116.04H509.045ZM517.479 117.562C517.479 116.04 518.893 114.687 520.768 114.687C522.582 114.687 523.919 116.04 523.919 117.592C523.919 118.607 523.412 119.375 522.367 119.944C523.704 120.62 524.442 121.481 524.442 122.834C524.442 124.586 523.166 126.261 520.691 126.261C518.278 126.261 516.987 124.632 516.987 122.926C516.987 121.512 517.786 120.62 519.124 119.944C518.017 119.375 517.479 118.514 517.479 117.562ZM520.722 115.763C519.523 115.763 518.632 116.578 518.632 117.577C518.632 118.607 519.661 119.483 520.753 119.483C521.998 119.483 522.843 118.484 522.843 117.546C522.843 116.701 522.121 115.763 520.722 115.763ZM520.768 120.497C519.185 120.497 518.063 121.712 518.063 122.957C518.063 124.171 519.062 125.247 520.707 125.247C522.321 125.247 523.366 124.125 523.366 122.849C523.366 121.681 522.274 120.497 520.768 120.497ZM527.281 124.34C527.773 124.34 528.203 124.755 528.203 125.278C528.203 125.8 527.788 126.215 527.281 126.215C526.758 126.215 526.359 125.785 526.359 125.278C526.359 124.77 526.774 124.34 527.281 124.34ZM535.386 117.531C535.386 116.593 534.572 115.763 533.373 115.763C532.297 115.763 531.682 116.363 531.252 117.515H530.13C530.545 115.625 531.82 114.687 533.358 114.687C535.141 114.687 536.539 115.963 536.539 117.531C536.539 118.468 536.063 119.237 535.125 119.79C536.432 120.328 537.139 121.496 537.139 122.711C537.139 124.555 535.679 126.277 533.388 126.277C531.482 126.277 530.16 125.185 529.761 123.049H530.852C531.221 124.448 531.974 125.201 533.404 125.201C535.018 125.201 536.063 124.063 536.063 122.788C536.063 121.973 535.602 121.22 534.833 120.805C534.203 120.467 533.542 120.42 532.835 120.39V119.375C534.587 119.268 535.386 118.545 535.386 117.531Z" fill="#414042"/>
<path d="M884.355 462.046H65.0137" stroke="#414042" stroke-width="0.653695" stroke-miterlimit="10"/>
<path d="M158.483 498.534V487.498H161.204C162.418 487.498 163.54 487.559 164.632 488.005C166.614 488.804 167.798 490.71 167.798 493.139C167.798 496.29 165.892 498.534 162.341 498.534H158.483ZM159.59 497.458H161.219C163.31 497.458 164.693 497.273 165.677 496.074C166.307 495.306 166.645 494.307 166.645 493.154C166.645 492.032 166.338 491.033 165.723 490.234C164.678 488.866 163.11 488.574 160.712 488.574H159.59V497.458ZM169.768 498.534V487.498H170.874V498.534H169.768ZM178.523 489.019L177.631 489.711C177.032 488.927 176.509 488.358 175.602 488.358C174.649 488.358 174.111 489.035 174.111 489.757C174.111 490.357 174.465 490.987 175.095 491.463C177.17 493 178.692 494.061 178.692 495.844C178.692 497.396 177.385 498.81 175.587 498.81C174.065 498.81 173.066 497.965 172.251 496.474L173.189 495.905C173.85 497.12 174.649 497.734 175.495 497.734C176.647 497.734 177.539 496.889 177.539 495.859C177.539 494.645 176.401 493.953 173.896 491.924C173.373 491.509 172.958 490.633 172.958 489.803C172.958 488.281 174.142 487.221 175.633 487.221C176.985 487.221 177.8 488.036 178.523 489.019ZM191.327 489.542L190.451 490.203C189.483 488.927 188.099 488.297 186.516 488.297C183.903 488.297 181.705 490.234 181.705 493.046C181.705 495.782 183.795 497.781 186.577 497.781C188.115 497.781 189.421 497.15 190.451 495.951L191.327 496.612C190.19 498.042 188.514 498.795 186.501 498.795C182.812 498.795 180.552 496.197 180.552 492.954C180.552 489.696 183.073 487.221 186.501 487.221C188.53 487.221 190.236 488.02 191.327 489.542ZM198.804 487.221C202.155 487.221 204.707 489.726 204.707 493.016C204.707 496.259 202.171 498.81 198.897 498.81C195.5 498.81 193.071 496.151 193.071 493.062C193.071 489.772 195.623 487.221 198.804 487.221ZM198.866 488.297C196.437 488.297 194.224 490.234 194.224 493.062C194.224 495.782 196.376 497.734 198.866 497.734C201.448 497.734 203.554 495.767 203.554 493C203.554 490.203 201.31 488.297 198.866 488.297ZM210.811 498.534L206.077 487.498H207.276L210.934 496.028L214.654 487.498H215.853L211.057 498.534H210.811ZM217.715 498.534V487.498H224.017V488.574H218.821V492.032H224.017V493.108H218.821V497.458H224.017V498.534H217.715ZM226.002 498.534V487.498H228.538C229.691 487.498 230.567 487.574 231.105 487.774C232.242 488.205 232.918 489.188 232.918 490.433C232.918 490.987 232.842 491.309 232.596 491.801C232.027 492.954 230.92 493.4 229.091 493.4L233.072 498.534H231.704L227.739 493.4H227.108V498.534H226.002ZM229.368 488.574H227.108V492.324C227.723 492.324 228.353 492.339 228.937 492.339C229.89 492.339 230.628 492.247 231.105 491.863C231.504 491.54 231.766 491.002 231.766 490.433C231.766 489.357 231.028 488.574 229.368 488.574ZM242.122 488.574H240.385L241.046 487.498H243.229V498.534H242.122V488.574Z" fill="#414042"/>
<path d="M130.774 417.995L136.41 411.929C138.132 410.064 139.136 408.937 139.136 407.338C139.136 405.637 137.742 404.264 135.959 404.264C134.094 404.264 132.721 405.637 132.537 407.891H131.123C131.205 405.022 133.275 402.911 136.021 402.911C138.685 402.911 140.57 404.879 140.57 407.338C140.57 409.347 139.382 410.74 137.64 412.626L133.971 416.561H140.775V417.995H130.774ZM142.04 414.573L150.238 402.911H150.545V413.138H152.328V414.573H150.545V417.995H149.07V414.573H142.04ZM144.745 413.138H149.07V407.031L144.745 413.138ZM153.49 410.617C153.49 409.592 153.531 408.547 153.736 407.523C154.31 404.571 156.093 402.911 158.491 402.911C160.336 402.911 161.955 404.018 162.815 406.027C163.389 407.338 163.553 408.855 163.553 410.617C163.553 412.38 163.369 413.917 162.815 415.228C161.955 417.237 160.336 418.364 158.491 418.364C156.851 418.364 155.499 417.585 154.597 416.089C153.736 414.675 153.49 412.872 153.49 410.617ZM154.925 410.638C154.925 412.667 155.089 414.224 155.765 415.351C156.401 416.417 157.446 417.011 158.512 417.011C160.643 417.011 162.18 414.962 162.18 410.638C162.18 406.334 160.663 404.264 158.512 404.264C157.425 404.264 156.401 404.899 155.765 405.965C155.089 407.092 154.925 408.629 154.925 410.638ZM171.028 402.911H172.565L166.457 420.004H164.92L171.028 402.911ZM135.247 442.995L140.883 436.929C142.605 435.064 143.609 433.937 143.609 432.338C143.609 430.637 142.215 429.264 140.432 429.264C138.567 429.264 137.194 430.637 137.01 432.891H135.596C135.678 430.022 137.748 427.911 140.494 427.911C143.158 427.911 145.044 429.879 145.044 432.338C145.044 434.347 143.855 435.74 142.113 437.626L138.444 441.561H145.249V442.995H135.247ZM147.353 431.744C147.353 429.715 149.239 427.911 151.739 427.911C154.158 427.911 155.941 429.715 155.941 431.785C155.941 433.137 155.264 434.162 153.871 434.92C155.654 435.822 156.637 436.97 156.637 438.773C156.637 441.11 154.936 443.344 151.637 443.344C148.419 443.344 146.698 441.171 146.698 438.896C146.698 437.011 147.763 435.822 149.546 434.92C148.071 434.162 147.353 433.014 147.353 431.744ZM151.678 429.346C150.079 429.346 148.891 430.432 148.891 431.764C148.891 433.137 150.264 434.306 151.719 434.306C153.379 434.306 154.506 432.973 154.506 431.723C154.506 430.596 153.543 429.346 151.678 429.346ZM151.739 435.658C149.628 435.658 148.132 437.277 148.132 438.937C148.132 440.556 149.464 441.991 151.657 441.991C153.809 441.991 155.203 440.495 155.203 438.794C155.203 437.236 153.748 435.658 151.739 435.658ZM158.701 431.744C158.701 429.715 160.587 427.911 163.087 427.911C165.505 427.911 167.288 429.715 167.288 431.785C167.288 433.137 166.612 434.162 165.218 434.92C167.001 435.822 167.985 436.97 167.985 438.773C167.985 441.11 166.284 443.344 162.985 443.344C159.767 443.344 158.046 441.171 158.046 438.896C158.046 437.011 159.111 435.822 160.894 434.92C159.419 434.162 158.701 433.014 158.701 431.744ZM163.026 429.346C161.427 429.346 160.238 430.432 160.238 431.764C160.238 433.137 161.612 434.306 163.067 434.306C164.727 434.306 165.854 432.973 165.854 431.723C165.854 430.596 164.891 429.346 163.026 429.346ZM163.087 435.658C160.976 435.658 159.48 437.277 159.48 438.937C159.48 440.556 160.812 441.991 163.005 441.991C165.157 441.991 166.551 440.495 166.551 438.794C166.551 437.236 165.096 435.658 163.087 435.658Z" fill="white"/>
<path d="M138.259 96.5615C138.259 95.0398 139.673 93.6872 141.548 93.6872C143.362 93.6872 144.699 95.0398 144.699 96.5923C144.699 97.6067 144.192 98.3753 143.147 98.944C144.484 99.6203 145.222 100.481 145.222 101.834C145.222 103.586 143.946 105.261 141.471 105.261C139.058 105.261 137.767 103.632 137.767 101.926C137.767 100.512 138.566 99.6203 139.904 98.944C138.797 98.3753 138.259 97.5145 138.259 96.5615ZM141.502 94.7632C140.303 94.7632 139.412 95.5778 139.412 96.5769C139.412 97.6067 140.442 98.4828 141.533 98.4828C142.778 98.4828 143.623 97.4838 143.623 96.5461C143.623 95.7008 142.901 94.7632 141.502 94.7632ZM141.548 99.4973C139.965 99.4973 138.843 100.712 138.843 101.957C138.843 103.171 139.842 104.247 141.487 104.247C143.101 104.247 144.146 103.125 144.146 101.849C144.146 100.681 143.055 99.4973 141.548 99.4973ZM151.904 96.5308C151.904 95.5932 151.089 94.7632 149.89 94.7632C148.814 94.7632 148.199 95.3626 147.769 96.5154H146.647C147.062 94.6248 148.338 93.6872 149.875 93.6872C151.658 93.6872 153.056 94.963 153.056 96.5308C153.056 97.4684 152.58 98.2369 151.642 98.7903C152.949 99.3282 153.656 100.496 153.656 101.711C153.656 103.555 152.196 105.277 149.905 105.277C148 105.277 146.678 104.185 146.278 102.049H147.369C147.738 103.448 148.491 104.201 149.921 104.201C151.535 104.201 152.58 103.063 152.58 101.788C152.58 100.973 152.119 100.22 151.35 99.8047C150.72 99.4666 150.059 99.4205 149.352 99.3897V98.3753C151.104 98.2677 151.904 97.5452 151.904 96.5308ZM156.572 103.34C157.064 103.34 157.494 103.755 157.494 104.278C157.494 104.8 157.079 105.215 156.572 105.215C156.049 105.215 155.65 104.785 155.65 104.278C155.65 103.77 156.065 103.34 156.572 103.34ZM164.678 96.5308C164.678 95.5932 163.863 94.7632 162.664 94.7632C161.588 94.7632 160.973 95.3626 160.543 96.5154H159.421C159.836 94.6248 161.112 93.6872 162.649 93.6872C164.432 93.6872 165.83 94.963 165.83 96.5308C165.83 97.4684 165.354 98.2369 164.416 98.7903C165.723 99.3282 166.43 100.496 166.43 101.711C166.43 103.555 164.97 105.277 162.679 105.277C160.773 105.277 159.451 104.185 159.052 102.049H160.143C160.512 103.448 161.265 104.201 162.695 104.201C164.309 104.201 165.354 103.063 165.354 101.788C165.354 100.973 164.893 100.22 164.124 99.8047C163.494 99.4666 162.833 99.4205 162.126 99.3897V98.3753C163.878 98.2677 164.678 97.5452 164.678 96.5308Z" fill="#414042"/>
<path d="M402.706 417.995L408.342 411.929C410.063 410.064 411.068 408.937 411.068 407.338C411.068 405.637 409.674 404.264 407.891 404.264C406.026 404.264 404.653 405.637 404.468 407.891H403.054C403.136 405.022 405.206 402.911 407.952 402.911C410.617 402.911 412.502 404.879 412.502 407.338C412.502 409.347 411.313 410.74 409.571 412.626L405.903 416.561H412.707V417.995H402.706ZM414.812 406.744C414.812 404.715 416.697 402.911 419.198 402.911C421.616 402.911 423.399 404.715 423.399 406.785C423.399 408.137 422.723 409.162 421.329 409.92C423.112 410.822 424.096 411.97 424.096 413.773C424.096 416.11 422.395 418.344 419.095 418.344C415.878 418.344 414.156 416.171 414.156 413.896C414.156 412.011 415.222 410.822 417.005 409.92C415.529 409.162 414.812 408.014 414.812 406.744ZM419.136 404.346C417.538 404.346 416.349 405.432 416.349 406.764C416.349 408.137 417.722 409.306 419.177 409.306C420.837 409.306 421.964 407.973 421.964 406.723C421.964 405.596 421.001 404.346 419.136 404.346ZM419.198 410.658C417.087 410.658 415.591 412.277 415.591 413.937C415.591 415.556 416.923 416.991 419.116 416.991C421.268 416.991 422.661 415.495 422.661 413.794C422.661 412.236 421.206 410.658 419.198 410.658ZM428.496 403.28H434.87V404.715H429.623L428.906 408.691C429.275 408.588 429.808 408.424 430.628 408.424C433.394 408.424 435.28 410.494 435.28 413.199C435.28 416.028 433.312 418.344 430.115 418.344C427.615 418.344 425.934 416.683 425.627 414.429H427.144C427.512 416.233 428.886 416.991 430.218 416.991C432.103 416.991 433.743 415.392 433.743 413.138C433.743 411.15 432.39 409.777 430.279 409.777C429.132 409.777 428.127 410.166 427.144 410.576L428.496 403.28ZM442.959 402.911H444.496L438.389 420.004H436.852L442.959 402.911ZM414.782 431.703C414.782 430.453 413.696 429.346 412.098 429.346C410.663 429.346 409.843 430.145 409.269 431.682H407.773C408.327 429.162 410.028 427.911 412.077 427.911C414.454 427.911 416.319 429.612 416.319 431.703C416.319 432.953 415.684 433.978 414.434 434.715C416.176 435.433 417.119 436.99 417.119 438.609C417.119 441.069 415.172 443.364 412.118 443.364C409.577 443.364 407.814 441.909 407.281 439.06H408.737C409.228 440.925 410.233 441.929 412.139 441.929C414.29 441.929 415.684 440.413 415.684 438.712C415.684 437.626 415.069 436.621 414.045 436.068C413.204 435.617 412.323 435.556 411.38 435.515V434.162C413.717 434.019 414.782 433.055 414.782 431.703ZM419.388 429.715V428.28H428.712L420.843 443.364L419.634 442.749L426.438 429.715H419.388ZM434.486 429.715H432.17L433.051 428.28H435.961V442.995H434.486V429.715Z" fill="white"/>
<path d="M681.215 403.28H687.588V404.715H682.342L681.624 408.691C681.993 408.588 682.526 408.424 683.346 408.424C686.113 408.424 687.998 410.494 687.998 413.199C687.998 416.028 686.031 418.344 682.834 418.344C680.333 418.344 678.653 416.683 678.345 414.429H679.862C680.231 416.233 681.604 416.991 682.936 416.991C684.822 416.991 686.461 415.392 686.461 413.138C686.461 411.15 685.108 409.777 682.998 409.777C681.85 409.777 680.846 410.166 679.862 410.576L681.215 403.28ZM689.468 417.995L695.104 411.929C696.825 410.064 697.829 408.937 697.829 407.338C697.829 405.637 696.436 404.264 694.653 404.264C692.788 404.264 691.415 405.637 691.23 407.891H689.816C689.898 405.022 691.968 402.911 694.714 402.911C697.379 402.911 699.264 404.879 699.264 407.338C699.264 409.347 698.075 410.74 696.333 412.626L692.665 416.561H699.469V417.995H689.468ZM703.91 403.28H710.284V404.715H705.037L704.32 408.691C704.689 408.588 705.222 408.424 706.042 408.424C708.808 408.424 710.694 410.494 710.694 413.199C710.694 416.028 708.726 418.344 705.529 418.344C703.029 418.344 701.349 416.683 701.041 414.429H702.558C702.927 416.233 704.3 416.991 705.632 416.991C707.517 416.991 709.157 415.392 709.157 413.138C709.157 411.15 707.804 409.777 705.693 409.777C704.546 409.777 703.541 410.166 702.558 410.576L703.91 403.28ZM718.373 402.911H719.91L713.803 420.004H712.266L718.373 402.911ZM685.032 434.572L689.52 427.911L690.709 428.69L686.753 434.715C687.102 434.592 687.553 434.449 688.249 434.449C690.688 434.449 692.43 436.457 692.43 438.835C692.43 441.581 690.258 443.364 687.84 443.364C685.175 443.364 683.372 441.233 683.372 438.917C683.372 437.482 683.987 436.13 685.032 434.572ZM687.901 435.74C686.2 435.74 684.806 437.134 684.806 438.835C684.806 440.536 686.2 441.929 687.901 441.929C689.602 441.929 690.996 440.536 690.996 438.835C690.996 437.134 689.623 435.74 687.901 435.74ZM697.036 428.28H703.409V429.715H698.163L697.445 433.691C697.814 433.588 698.347 433.424 699.167 433.424C701.934 433.424 703.819 435.494 703.819 438.199C703.819 441.028 701.852 443.344 698.655 443.344C696.154 443.344 694.474 441.683 694.166 439.429H695.683C696.052 441.233 697.425 441.991 698.757 441.991C700.642 441.991 702.282 440.392 702.282 438.138C702.282 436.15 700.929 434.777 698.819 434.777C697.671 434.777 696.667 435.166 695.683 435.576L697.036 428.28ZM713.077 436.703L708.609 443.364L707.4 442.585L711.376 436.56C710.966 436.683 710.474 436.826 709.859 436.826C707.42 436.826 705.699 434.838 705.699 432.441C705.699 429.715 707.83 427.911 710.269 427.911C712.933 427.911 714.737 430.022 714.737 432.359C714.737 433.773 714.122 435.146 713.077 436.703ZM710.207 435.535C711.908 435.535 713.302 434.142 713.302 432.441C713.302 430.74 711.929 429.346 710.207 429.346C708.506 429.346 707.133 430.719 707.133 432.441C707.133 434.142 708.506 435.535 710.207 435.535Z" fill="white"/>
<path d="M229.554 417.995L235.189 411.929C236.911 410.064 237.915 408.937 237.915 407.338C237.915 405.637 236.522 404.264 234.739 404.264C232.874 404.264 231.5 405.637 231.316 407.891H229.902C229.984 405.022 232.054 402.911 234.8 402.911C237.464 402.911 239.35 404.879 239.35 407.338C239.35 409.347 238.161 410.74 236.419 412.626L232.751 416.561H239.555V417.995H229.554ZM248.505 406.703C248.505 405.453 247.419 404.346 245.82 404.346C244.385 404.346 243.566 405.145 242.992 406.682H241.496C242.049 404.162 243.75 402.911 245.8 402.911C248.177 402.911 250.042 404.612 250.042 406.703C250.042 407.953 249.406 408.978 248.156 409.715C249.898 410.433 250.841 411.99 250.841 413.609C250.841 416.069 248.894 418.364 245.84 418.364C243.299 418.364 241.537 416.909 241.004 414.06H242.459C242.951 415.925 243.955 416.929 245.861 416.929C248.013 416.929 249.406 415.413 249.406 413.712C249.406 412.626 248.792 411.621 247.767 411.068C246.927 410.617 246.045 410.556 245.103 410.515V409.162C247.439 409.019 248.505 408.055 248.505 406.703ZM259.853 406.703C259.853 405.453 258.766 404.346 257.168 404.346C255.733 404.346 254.913 405.145 254.34 406.682H252.844C253.397 404.162 255.098 402.911 257.147 402.911C259.525 402.911 261.39 404.612 261.39 406.703C261.39 407.953 260.754 408.978 259.504 409.715C261.246 410.433 262.189 411.99 262.189 413.609C262.189 416.069 260.242 418.364 257.188 418.364C254.647 418.364 252.885 416.909 252.352 414.06H253.807C254.299 415.925 255.303 416.929 257.209 416.929C259.361 416.929 260.754 415.413 260.754 413.712C260.754 412.626 260.14 411.621 259.115 411.068C258.275 410.617 257.393 410.556 256.451 410.515V409.162C258.787 409.019 259.853 408.055 259.853 406.703ZM269.807 402.911H271.344L265.237 420.004H263.7L269.807 402.911ZM234.027 442.995L239.663 436.929C241.384 435.064 242.388 433.937 242.388 432.338C242.388 430.637 240.995 429.264 239.212 429.264C237.347 429.264 235.974 430.637 235.789 432.891H234.375C234.457 430.022 236.527 427.911 239.273 427.911C241.937 427.911 243.823 429.879 243.823 432.338C243.823 434.347 242.634 435.74 240.892 437.626L237.224 441.561H244.028V442.995H234.027ZM246.133 431.744C246.133 429.715 248.018 427.911 250.519 427.911C252.937 427.911 254.72 429.715 254.72 431.785C254.72 433.137 254.044 434.162 252.65 434.92C254.433 435.822 255.417 436.97 255.417 438.773C255.417 441.11 253.716 443.344 250.416 443.344C247.198 443.344 245.477 441.171 245.477 438.896C245.477 437.011 246.543 435.822 248.326 434.92C246.85 434.162 246.133 433.014 246.133 431.744ZM250.457 429.346C248.859 429.346 247.67 430.432 247.67 431.764C247.67 433.137 249.043 434.306 250.498 434.306C252.158 434.306 253.285 432.973 253.285 431.723C253.285 430.596 252.322 429.346 250.457 429.346ZM250.519 435.658C248.408 435.658 246.912 437.277 246.912 438.937C246.912 440.556 248.244 441.991 250.437 441.991C252.588 441.991 253.982 440.495 253.982 438.794C253.982 437.236 252.527 435.658 250.519 435.658ZM259.817 428.28H266.191V429.715H260.944L260.227 433.691C260.596 433.588 261.129 433.424 261.948 433.424C264.715 433.424 266.601 435.494 266.601 438.199C266.601 441.028 264.633 443.344 261.436 443.344C258.936 443.344 257.255 441.683 256.948 439.429H258.464C258.833 441.233 260.206 441.991 261.538 441.991C263.424 441.991 265.063 440.392 265.063 438.138C265.063 436.15 263.711 434.777 261.6 434.777C260.452 434.777 259.448 435.166 258.464 435.576L259.817 428.28Z" fill="black"/>
<path d="M501.483 417.995L507.119 411.929C508.841 410.064 509.845 408.937 509.845 407.338C509.845 405.637 508.451 404.264 506.668 404.264C504.803 404.264 503.43 405.637 503.246 407.891H501.832C501.914 405.022 503.984 402.911 506.73 402.911C509.394 402.911 511.279 404.879 511.279 407.338C511.279 409.347 510.091 410.74 508.349 412.626L504.68 416.561H511.484V417.995H501.483ZM513.589 406.744C513.589 404.715 515.475 402.911 517.975 402.911C520.393 402.911 522.176 404.715 522.176 406.785C522.176 408.137 521.5 409.162 520.107 409.92C521.89 410.822 522.873 411.97 522.873 413.773C522.873 416.11 521.172 418.344 517.873 418.344C514.655 418.344 512.934 416.171 512.934 413.896C512.934 412.011 513.999 410.822 515.782 409.92C514.307 409.162 513.589 408.014 513.589 406.744ZM517.914 404.346C516.315 404.346 515.126 405.432 515.126 406.764C515.126 408.137 516.5 409.306 517.955 409.306C519.615 409.306 520.742 407.973 520.742 406.723C520.742 405.596 519.779 404.346 517.914 404.346ZM517.975 410.658C515.864 410.658 514.368 412.277 514.368 413.937C514.368 415.556 515.7 416.991 517.893 416.991C520.045 416.991 521.439 415.495 521.439 413.794C521.439 412.236 519.984 410.658 517.975 410.658ZM524.937 406.744C524.937 404.715 526.823 402.911 529.323 402.911C531.741 402.911 533.524 404.715 533.524 406.785C533.524 408.137 532.848 409.162 531.454 409.92C533.237 410.822 534.221 411.97 534.221 413.773C534.221 416.11 532.52 418.344 529.221 418.344C526.003 418.344 524.281 416.171 524.281 413.896C524.281 412.011 525.347 410.822 527.13 409.92C525.655 409.162 524.937 408.014 524.937 406.744ZM529.261 404.346C527.663 404.346 526.474 405.432 526.474 406.764C526.474 408.137 527.847 409.306 529.302 409.306C530.963 409.306 532.09 407.973 532.09 406.723C532.09 405.596 531.126 404.346 529.261 404.346ZM529.323 410.658C527.212 410.658 525.716 412.277 525.716 413.937C525.716 415.556 527.048 416.991 529.241 416.991C531.393 416.991 532.786 415.495 532.786 413.794C532.786 412.236 531.331 410.658 529.323 410.658ZM541.737 402.911H543.274L537.166 420.004H535.629L541.737 402.911ZM513.56 431.703C513.56 430.453 512.473 429.346 510.875 429.346C509.44 429.346 508.621 430.145 508.047 431.682H506.551C507.104 429.162 508.805 427.911 510.854 427.911C513.232 427.911 515.097 429.612 515.097 431.703C515.097 432.953 514.461 433.978 513.211 434.715C514.953 435.433 515.896 436.99 515.896 438.609C515.896 441.069 513.949 443.364 510.895 443.364C508.354 443.364 506.592 441.909 506.059 439.06H507.514C508.006 440.925 509.01 441.929 510.916 441.929C513.068 441.929 514.461 440.413 514.461 438.712C514.461 437.626 513.847 436.621 512.822 436.068C511.982 435.617 511.1 435.556 510.158 435.515V434.162C512.494 434.019 513.56 433.055 513.56 431.703ZM519.743 434.572L524.231 427.911L525.42 428.69L521.464 434.715C521.813 434.592 522.264 434.449 522.961 434.449C525.399 434.449 527.141 436.457 527.141 438.835C527.141 441.581 524.969 443.364 522.551 443.364C519.886 443.364 518.083 441.233 518.083 438.917C518.083 437.482 518.698 436.13 519.743 434.572ZM522.612 435.74C520.911 435.74 519.518 437.134 519.518 438.835C519.518 440.536 520.911 441.929 522.612 441.929C524.313 441.929 525.707 440.536 525.707 438.835C525.707 437.134 524.334 435.74 522.612 435.74ZM529.41 431.744C529.41 429.715 531.296 427.911 533.796 427.911C536.214 427.911 537.997 429.715 537.997 431.785C537.997 433.137 537.321 434.162 535.927 434.92C537.71 435.822 538.694 436.97 538.694 438.773C538.694 441.11 536.993 443.344 533.694 443.344C530.476 443.344 528.755 441.171 528.755 438.896C528.755 437.011 529.82 435.822 531.603 434.92C530.128 434.162 529.41 433.014 529.41 431.744ZM533.735 429.346C532.136 429.346 530.947 430.432 530.947 431.764C530.947 433.137 532.32 434.306 533.776 434.306C535.436 434.306 536.563 432.973 536.563 431.723C536.563 430.596 535.6 429.346 533.735 429.346ZM533.796 435.658C531.685 435.658 530.189 437.277 530.189 438.937C530.189 440.556 531.521 441.991 533.714 441.991C535.866 441.991 537.26 440.495 537.26 438.794C537.26 437.236 535.805 435.658 533.796 435.658Z" fill="black"/>
<path d="M777.67 403.28H784.043V404.715H778.797L778.08 408.691C778.448 408.588 778.981 408.424 779.801 408.424C782.568 408.424 784.453 410.494 784.453 413.199C784.453 416.028 782.486 418.344 779.289 418.344C776.788 418.344 775.108 416.683 774.8 414.429H776.317C776.686 416.233 778.059 416.991 779.391 416.991C781.277 416.991 782.916 415.392 782.916 413.138C782.916 411.15 781.564 409.777 779.453 409.777C778.305 409.777 777.301 410.166 776.317 410.576L777.67 403.28ZM785.923 417.995L791.559 411.929C793.28 410.064 794.285 408.937 794.285 407.338C794.285 405.637 792.891 404.264 791.108 404.264C789.243 404.264 787.87 405.637 787.685 407.891H786.271C786.353 405.022 788.423 402.911 791.169 402.911C793.834 402.911 795.719 404.879 795.719 407.338C795.719 409.347 794.53 410.74 792.788 412.626L789.12 416.561H795.924V417.995H785.923ZM801.882 404.715H799.566L800.447 403.28H803.358V417.995H801.882V404.715ZM814.828 402.911H816.365L810.258 420.004H808.721L814.828 402.911ZM781.487 434.572L785.975 427.911L787.164 428.69L783.208 434.715C783.557 434.592 784.008 434.449 784.705 434.449C787.143 434.449 788.885 436.457 788.885 438.835C788.885 441.581 786.713 443.364 784.295 443.364C781.63 443.364 779.827 441.233 779.827 438.917C779.827 437.482 780.442 436.13 781.487 434.572ZM784.356 435.74C782.655 435.74 781.261 437.134 781.261 438.835C781.261 440.536 782.655 441.929 784.356 441.929C786.057 441.929 787.451 440.536 787.451 438.835C787.451 437.134 786.078 435.74 784.356 435.74ZM793.491 428.28H799.864V429.715H794.618L793.9 433.691C794.269 433.588 794.802 433.424 795.622 433.424C798.389 433.424 800.274 435.494 800.274 438.199C800.274 441.028 798.307 443.344 795.11 443.344C792.609 443.344 790.929 441.683 790.621 439.429H792.138C792.507 441.233 793.88 441.991 795.212 441.991C797.098 441.991 798.737 440.392 798.737 438.138C798.737 436.15 797.384 434.777 795.274 434.777C794.126 434.777 793.122 435.166 792.138 435.576L793.491 428.28ZM809.347 431.703C809.347 430.453 808.261 429.346 806.662 429.346C805.228 429.346 804.408 430.145 803.834 431.682H802.338C802.892 429.162 804.593 427.911 806.642 427.911C809.019 427.911 810.884 429.612 810.884 431.703C810.884 432.953 810.249 433.978 808.999 434.715C810.741 435.433 811.684 436.99 811.684 438.609C811.684 441.069 809.737 443.364 806.683 443.364C804.142 443.364 802.379 441.909 801.846 439.06H803.301C803.793 440.925 804.797 441.929 806.703 441.929C808.855 441.929 810.249 440.413 810.249 438.712C810.249 437.626 809.634 436.621 808.609 436.068C807.769 435.617 806.888 435.556 805.945 435.515V434.162C808.281 434.019 809.347 433.055 809.347 431.703Z" fill="black"/>
<path d="M430.149 498.534V487.498H432.87C434.084 487.498 435.206 487.559 436.298 488.005C438.281 488.804 439.464 490.71 439.464 493.139C439.464 496.29 437.558 498.534 434.007 498.534H430.149ZM431.256 497.458H432.885C434.976 497.458 436.359 497.273 437.343 496.074C437.973 495.306 438.311 494.307 438.311 493.154C438.311 492.032 438.004 491.033 437.389 490.234C436.344 488.866 434.776 488.574 432.378 488.574H431.256V497.458ZM441.434 498.534V487.498H442.54V498.534H441.434ZM450.189 489.019L449.297 489.711C448.698 488.927 448.175 488.358 447.268 488.358C446.315 488.358 445.777 489.035 445.777 489.757C445.777 490.357 446.131 490.987 446.761 491.463C448.836 493 450.358 494.061 450.358 495.844C450.358 497.396 449.051 498.81 447.253 498.81C445.731 498.81 444.732 497.965 443.917 496.474L444.855 495.905C445.516 497.12 446.315 497.734 447.161 497.734C448.313 497.734 449.205 496.889 449.205 495.859C449.205 494.645 448.067 493.953 445.562 491.924C445.039 491.509 444.624 490.633 444.624 489.803C444.624 488.281 445.808 487.221 447.299 487.221C448.651 487.221 449.466 488.036 450.189 489.019ZM462.993 489.542L462.117 490.203C461.149 488.927 459.765 488.297 458.182 488.297C455.569 488.297 453.371 490.234 453.371 493.046C453.371 495.782 455.461 497.781 458.243 497.781C459.781 497.781 461.087 497.15 462.117 495.951L462.993 496.612C461.856 498.042 460.18 498.795 458.167 498.795C454.478 498.795 452.218 496.197 452.218 492.954C452.218 489.696 454.739 487.221 458.167 487.221C460.196 487.221 461.902 488.02 462.993 489.542ZM470.47 487.221C473.821 487.221 476.373 489.726 476.373 493.016C476.373 496.259 473.837 498.81 470.563 498.81C467.166 498.81 464.737 496.151 464.737 493.062C464.737 489.772 467.289 487.221 470.47 487.221ZM470.532 488.297C468.103 488.297 465.89 490.234 465.89 493.062C465.89 495.782 468.042 497.734 470.532 497.734C473.114 497.734 475.22 495.767 475.22 493C475.22 490.203 472.976 488.297 470.532 488.297ZM482.477 498.534L477.743 487.498H478.942L482.6 496.028L486.32 487.498H487.519L482.723 498.534H482.477ZM489.381 498.534V487.498H495.683V488.574H490.487V492.032H495.683V493.108H490.487V497.458H495.683V498.534H489.381ZM497.668 498.534V487.498H500.204C501.357 487.498 502.233 487.574 502.771 487.774C503.908 488.205 504.584 489.188 504.584 490.433C504.584 490.987 504.508 491.309 504.262 491.801C503.693 492.954 502.586 493.4 500.757 493.4L504.738 498.534H503.37L499.405 493.4H498.774V498.534H497.668ZM501.034 488.574H498.774V492.324C499.389 492.324 500.019 492.339 500.603 492.339C501.556 492.339 502.294 492.247 502.771 491.863C503.17 491.54 503.432 491.002 503.432 490.433C503.432 489.357 502.694 488.574 501.034 488.574ZM510.329 498.534L514.556 493.984C515.847 492.585 516.601 491.74 516.601 490.541C516.601 489.265 515.555 488.235 514.218 488.235C512.819 488.235 511.79 489.265 511.651 490.956H510.591C510.652 488.804 512.205 487.221 514.264 487.221C516.263 487.221 517.677 488.696 517.677 490.541C517.677 492.047 516.785 493.092 515.479 494.507L512.727 497.458H517.83V498.534H510.329Z" fill="#414042"/>
<path d="M691.133 498.534V487.498H693.685C694.838 487.498 695.698 487.574 696.236 487.774C697.359 488.205 698.05 489.188 698.05 490.433C698.05 491.479 697.558 492.355 696.774 492.847C695.991 493.338 694.853 493.4 693.331 493.4H692.24V498.534H691.133ZM694.192 488.574H692.24V492.324C692.87 492.339 693.5 492.324 694.069 492.324C695.022 492.324 695.76 492.262 696.252 491.863C696.636 491.555 696.897 490.987 696.897 490.433C696.897 489.865 696.621 489.311 696.206 488.989C695.714 488.62 695.053 488.574 694.192 488.574ZM703.934 490.157C706.378 490.157 708.192 492.14 708.192 494.476C708.192 496.797 706.393 498.749 703.934 498.749C701.475 498.749 699.676 496.797 699.676 494.476C699.676 492.14 701.49 490.157 703.934 490.157ZM703.934 491.171C702.182 491.171 700.752 492.677 700.752 494.491C700.752 496.274 702.09 497.734 703.934 497.734C705.763 497.734 707.116 496.274 707.116 494.491C707.116 492.677 705.671 491.171 703.934 491.171ZM714.006 490.157C716.45 490.157 718.264 492.14 718.264 494.476C718.264 496.797 716.465 498.749 714.006 498.749C711.547 498.749 709.748 496.797 709.748 494.476C709.748 492.14 711.562 490.157 714.006 490.157ZM714.006 491.171C712.254 491.171 710.824 492.677 710.824 494.491C710.824 496.274 712.162 497.734 714.006 497.734C715.835 497.734 717.188 496.274 717.188 494.491C717.188 492.677 715.743 491.171 714.006 491.171ZM720.051 498.534V487.221H721.096V498.534H720.051ZM731.321 494.537H723.973C724.019 496.413 725.295 497.781 727.048 497.781C728.754 497.781 729.568 496.812 730.168 495.828L731.044 496.29C730.214 497.919 728.938 498.734 727.155 498.734C724.45 498.734 722.897 496.658 722.897 494.476C722.897 492.247 724.542 490.157 727.094 490.157C729.415 490.157 731.29 491.832 731.321 494.537ZM724.081 493.615H730.168C729.737 491.924 728.523 491.171 727.109 491.171C725.649 491.171 724.557 491.955 724.081 493.615ZM740.395 498.534V497.135C739.504 498.211 738.382 498.734 737.106 498.734C734.723 498.734 732.925 496.751 732.925 494.43C732.925 492.109 734.77 490.157 737.137 490.157C738.459 490.157 739.581 490.725 740.395 491.863V487.221H741.44V498.534H740.395ZM737.229 491.171C735.354 491.171 734.001 492.708 734.001 494.46C734.001 496.228 735.384 497.781 737.214 497.781C738.889 497.781 740.457 496.52 740.457 494.491C740.457 492.601 739.058 491.171 737.229 491.171ZM755.165 491.863V490.372H756.195V498.534H755.165V497.135C754.274 498.211 753.152 498.734 751.876 498.734C749.493 498.734 747.695 496.751 747.695 494.43C747.695 492.109 749.539 490.157 751.907 490.157C753.228 490.157 754.35 490.725 755.165 491.863ZM751.999 491.171C750.124 491.171 748.771 492.708 748.771 494.46C748.771 496.228 750.154 497.781 751.983 497.781C753.659 497.781 755.242 496.52 755.242 494.491C755.242 492.601 753.828 491.171 751.999 491.171ZM759.601 490.372V491.832C760.447 490.725 761.461 490.157 762.66 490.157C764.443 490.157 765.688 491.386 765.688 493.953V498.534H764.643V494.092C764.643 492.17 764.043 491.11 762.46 491.11C761.584 491.11 760.862 491.494 760.308 492.216C759.694 493.016 759.601 493.815 759.601 495.106V498.534H758.556V490.372H759.601ZM775.039 491.863V490.372H776.069V498.534H775.039V497.135C774.147 498.211 773.025 498.734 771.75 498.734C769.367 498.734 767.569 496.751 767.569 494.43C767.569 492.109 769.413 490.157 771.78 490.157C773.102 490.157 774.224 490.725 775.039 491.863ZM771.873 491.171C769.997 491.171 768.645 492.708 768.645 494.46C768.645 496.228 770.028 497.781 771.857 497.781C773.533 497.781 775.116 496.52 775.116 494.491C775.116 492.601 773.702 491.171 771.873 491.171ZM778.276 498.534V487.221H779.321V498.534H778.276ZM783.982 497.919L780.631 490.372H781.738L784.55 496.658L787.271 490.372H788.393L783.521 501.516H782.414L783.982 497.919ZM788.979 497.581L789.64 496.828C790.163 497.412 790.731 497.734 791.346 497.734C792.146 497.734 792.853 497.15 792.853 496.382C792.853 495.905 792.576 495.46 792.176 495.244C790.301 494.199 789.348 493.753 789.348 492.324C789.348 491.033 790.347 490.157 791.592 490.157C792.484 490.157 793.16 490.587 793.852 491.263L793.175 491.955C792.684 491.479 792.192 491.171 791.531 491.171C790.854 491.171 790.301 491.648 790.301 492.262C790.301 492.677 790.562 493.139 790.931 493.354C792.806 494.445 793.852 494.86 793.852 496.336C793.852 497.611 792.868 498.749 791.392 498.749C790.486 498.749 789.563 498.334 788.979 497.581ZM795.569 498.534V490.372H796.614V498.534H795.569ZM796.076 487.006C796.552 487.006 796.952 487.39 796.952 487.866C796.952 488.343 796.552 488.743 796.076 488.743C795.599 488.743 795.215 488.343 795.215 487.866C795.215 487.375 795.615 487.006 796.076 487.006ZM798.015 497.581L798.676 496.828C799.199 497.412 799.768 497.734 800.383 497.734C801.182 497.734 801.889 497.15 801.889 496.382C801.889 495.905 801.612 495.46 801.213 495.244C799.337 494.199 798.384 493.753 798.384 492.324C798.384 491.033 799.383 490.157 800.628 490.157C801.52 490.157 802.196 490.587 802.888 491.263L802.212 491.955C801.72 491.479 801.228 491.171 800.567 491.171C799.891 491.171 799.337 491.648 799.337 492.262C799.337 492.677 799.599 493.139 799.968 493.354C801.843 494.445 802.888 494.86 802.888 496.336C802.888 497.611 801.904 498.749 800.429 498.749C799.522 498.749 798.6 498.334 798.015 497.581Z" fill="#414042"/>
<defs>
<linearGradient id="paint0_linear_317_10069" x1="556.023" y1="2.2325e-06" x2="556.023" y2="19.6109" gradientUnits="userSpaceOnUse">
<stop stop-color="#982384"/>
<stop offset="1" stop-color="#009656"/>
</linearGradient>
<linearGradient id="paint1_linear_317_10069" x1="152" y1="110" x2="152" y2="462" gradientUnits="userSpaceOnUse">
<stop stop-color="#982384"/>
<stop offset="1" stop-color="#009656"/>
</linearGradient>
<linearGradient id="paint2_linear_317_10069" x1="424" y1="136" x2="424" y2="462" gradientUnits="userSpaceOnUse">
<stop stop-color="#982384"/>
<stop offset="1" stop-color="#009656"/>
</linearGradient>
<linearGradient id="paint3_linear_317_10069" x1="697" y1="122" x2="697" y2="462" gradientUnits="userSpaceOnUse">
<stop stop-color="#982384"/>
<stop offset="1" stop-color="#009656"/>
</linearGradient>
</defs>
</svg>
